{"glyphs":{"0":{"ha":914,"x_min":61,"x_max":854,"o":"m 467 -14 q 175 126 289 -14 q 61 499 61 265 q 166 866 61 732 q 457 1000 271 1000 q 742 858 629 1000 q 854 492 854 717 q 746 122 854 258 q 467 -14 638 -14 m 485 42 q 662 148 593 42 q 731 436 731 254 q 647 796 731 649 q 435 943 563 943 q 254 836 324 943 q 185 544 185 729 q 269 185 185 328 q 485 42 353 42 z "},"1":{"ha":406,"x_min":63,"x_max":335,"o":"m 111 0 q 86 17 86 0 l 86 19 q 102 40 86 29 q 134 65 118 50 q 150 106 150 81 l 150 810 q 136 851 150 838 q 106 863 122 864 q 76 867 90 863 q 63 886 63 872 l 63 890 q 89 917 63 907 l 242 982 q 285 986 269 993 q 301 961 301 979 q 284 926 301 951 q 267 864 267 900 l 267 106 q 283 65 267 81 q 317 40 300 50 q 335 19 335 29 l 335 17 q 310 0 335 0 l 111 0 z "},"2":{"ha":790,"x_min":49,"x_max":753,"o":"m 731 211 q 747 204 742 211 q 750 185 753 197 l 711 29 q 678 0 701 0 l 75 0 q 49 25 49 0 l 49 36 q 87 168 49 101 q 183 288 125 235 q 308 401 240 342 q 433 511 375 460 q 528 626 490 563 q 567 750 567 689 q 513 890 567 838 q 392 943 460 943 q 280 906 325 943 q 218 826 235 869 q 178 745 201 782 q 125 708 154 708 q 78 725 96 708 q 60 771 60 742 q 151 924 60 849 q 385 1000 243 1000 q 606 932 521 1000 q 692 740 692 864 q 640 585 692 660 q 513 451 589 510 q 361 338 438 393 q 225 218 285 282 q 154 90 165 154 l 597 90 q 656 120 633 90 q 694 181 679 150 q 721 211 708 211 l 731 211 z "},"3":{"ha":771,"x_min":49,"x_max":714,"o":"m 385 571 q 622 490 531 568 q 714 283 714 411 q 619 71 714 156 q 363 -14 525 -14 q 131 42 213 -14 q 49 158 49 99 q 65 206 49 189 q 107 224 81 224 q 147 205 129 224 q 181 160 165 186 q 217 107 196 133 q 276 62 238 81 q 367 43 314 43 q 529 103 468 43 q 590 261 590 163 q 520 444 590 379 q 343 510 450 510 l 328 510 q 298 526 306 510 q 304 560 290 543 l 564 879 l 88 879 q 60 907 60 879 l 60 961 q 86 986 60 986 l 676 986 q 704 963 704 986 l 704 950 q 683 908 704 931 l 385 571 z "},"4":{"ha":781,"x_min":10,"x_max":749,"o":"m 729 296 q 749 278 749 296 l 749 253 q 729 235 749 235 l 615 235 l 615 100 q 630 61 615 75 q 659 38 644 47 q 674 19 674 29 l 674 17 q 649 0 674 0 l 460 0 q 433 17 433 0 l 433 19 q 461 49 433 29 q 489 100 489 68 l 489 235 l 46 235 q 10 265 10 235 l 10 269 q 22 315 10 296 l 463 947 q 524 986 488 986 l 592 986 q 615 961 615 986 l 615 296 l 729 296 m 86 296 l 489 296 l 490 878 l 86 296 z "},"5":{"ha":778,"x_min":47,"x_max":728,"o":"m 404 614 q 635 531 542 614 q 728 317 728 447 q 631 79 728 172 q 374 -14 533 -14 q 132 42 217 -14 q 47 161 47 99 q 65 207 47 192 q 110 222 83 222 q 147 204 131 222 q 178 160 163 186 q 215 108 193 133 q 277 64 236 82 q 375 46 318 46 q 539 115 475 46 q 603 294 603 183 q 541 483 603 413 q 371 554 479 554 q 165 482 275 554 q 117 478 143 465 q 94 519 92 492 l 156 968 q 178 986 156 986 l 679 986 q 697 967 697 986 l 697 906 q 679 886 697 886 l 218 886 l 157 540 q 404 614 260 614 z "},"6":{"ha":821,"x_min":61,"x_max":760,"o":"m 444 631 q 671 540 582 631 q 760 299 760 450 q 664 75 760 164 q 425 -14 568 -14 q 161 122 261 -14 q 61 482 61 257 q 101 738 61 622 q 230 926 142 853 q 442 1000 318 1000 q 671 925 588 1000 q 754 779 754 850 q 737 732 754 747 q 693 717 719 717 q 644 740 664 717 q 609 796 624 763 q 576 863 594 829 q 521 919 557 896 q 433 943 485 943 q 253 822 319 944 q 185 508 188 700 q 295 598 226 565 q 444 631 364 631 m 436 43 q 582 107 526 43 q 638 276 638 171 q 575 488 638 403 q 408 574 513 574 q 259 515 322 574 q 190 379 196 456 q 273 133 208 222 q 436 43 338 43 z "},"7":{"ha":711,"x_min":14,"x_max":701,"o":"m 675 986 q 701 964 701 986 l 701 951 q 686 903 701 939 l 315 24 q 281 0 307 0 l 208 0 q 188 11 193 0 q 186 32 182 22 l 613 889 l 165 889 q 117 857 136 889 q 82 794 97 825 q 50 763 67 763 l 38 763 q 18 790 14 763 l 47 954 q 83 986 54 986 l 675 986 z "},"8":{"ha":832,"x_min":53,"x_max":778,"o":"m 540 524 q 631 480 594 500 q 705 428 668 460 q 760 353 742 396 q 778 257 778 311 q 678 58 778 131 q 422 -14 578 -14 q 151 60 250 -14 q 53 238 53 133 q 307 508 53 413 q 154 609 208 554 q 100 753 100 664 q 188 931 100 863 q 424 999 276 999 q 651 929 568 999 q 735 760 735 860 q 540 524 735 604 m 217 783 q 277 651 217 699 q 456 557 338 603 q 575 644 522 589 q 628 776 628 700 q 569 896 628 846 q 418 946 510 946 q 273 899 329 946 q 217 783 217 853 m 435 43 q 597 94 533 43 q 661 224 661 144 q 642 311 661 274 q 574 381 624 349 q 497 428 525 414 q 393 472 468 442 q 371 482 378 479 q 227 383 288 447 q 167 236 167 318 q 241 97 167 150 q 435 43 315 43 z "},"9":{"ha":817,"x_min":57,"x_max":756,"o":"m 390 1000 q 658 865 560 1000 q 756 504 756 729 q 661 127 756 268 q 388 -14 567 -14 q 160 58 243 -14 q 76 206 76 131 q 94 251 76 235 q 140 268 113 268 q 183 245 165 268 q 215 189 201 222 q 248 122 229 156 q 304 66 267 89 q 396 43 342 43 q 575 165 518 43 q 632 492 632 288 q 372 364 558 364 q 145 453 233 364 q 57 692 57 542 q 151 910 57 821 q 390 1000 244 1000 m 408 421 q 563 480 504 421 q 622 628 622 539 q 539 856 603 769 q 374 943 475 943 q 232 880 286 943 q 178 714 178 817 q 242 508 178 594 q 408 421 306 421 z "}," ":{"ha":313,"x_min":0,"x_max":0,"o":""},"!":{"ha":339,"x_min":82,"x_max":258,"o":"m 140 258 q 103 956 114 515 q 137 1001 103 988 q 205 1003 171 1015 q 239 957 239 990 q 196 258 229 543 q 168 239 193 239 q 140 258 143 239 m 233 6 q 221 -5 233 6 q 171 -15 208 -15 q 108 6 133 -15 q 82 67 82 28 q 108 128 82 106 q 171 151 133 151 q 233 128 208 151 q 258 67 258 106 q 233 6 258 28 z "},"\"":{"ha":507,"x_min":65,"x_max":444,"o":"m 97 625 q 67 942 74 749 q 85 992 65 974 q 132 1010 104 1010 q 181 992 161 1010 q 200 942 200 975 q 185 774 197 882 q 164 625 172 665 q 130 599 157 599 q 97 625 103 599 m 342 625 q 311 942 318 749 q 329 992 310 974 q 376 1010 349 1010 q 425 992 406 1010 q 444 942 444 975 q 429 774 442 882 q 408 625 417 665 q 374 599 401 599 q 342 625 347 599 z "},"#":{"ha":946,"x_min":43,"x_max":904,"o":"m 885 667 q 904 651 904 667 l 904 615 q 885 600 904 600 l 707 600 l 651 390 l 833 390 q 854 376 854 390 l 854 338 q 833 324 854 324 l 635 324 l 553 13 q 529 0 551 0 l 485 0 q 472 24 465 0 l 553 324 l 294 324 l 213 13 q 190 0 211 0 l 144 0 q 132 24 128 0 l 213 324 l 64 324 q 43 338 43 324 l 43 376 q 64 390 43 390 l 231 390 l 286 600 l 113 600 q 93 615 93 600 l 93 651 q 113 667 93 667 l 304 667 l 371 917 q 392 931 375 931 l 435 931 q 449 907 453 931 l 385 667 l 644 667 l 711 917 q 731 931 713 931 l 775 931 q 788 907 794 931 l 725 667 l 885 667 m 571 390 l 626 600 l 368 600 l 313 390 l 571 390 z "},"$":{"ha":757,"x_min":44,"x_max":707,"o":"m 707 261 q 622 83 707 161 q 406 -3 536 6 l 406 -135 q 390 -156 406 -156 l 364 -156 q 350 -135 350 -156 l 350 -4 q 217 24 278 0 q 119 81 156 49 q 64 147 83 114 q 44 204 44 179 q 60 251 44 235 q 101 268 75 268 q 156 236 131 268 q 200 165 182 204 q 258 88 218 125 q 350 42 297 50 l 350 439 q 280 466 301 457 q 217 495 258 475 q 154 534 175 515 q 109 581 133 553 q 74 647 85 610 q 64 728 64 683 q 144 907 64 835 q 356 985 225 979 l 356 1075 q 371 1094 356 1094 l 396 1094 q 411 1075 411 1094 l 411 983 q 610 915 535 975 q 685 793 685 856 q 625 726 685 726 q 577 756 597 726 q 544 822 557 786 q 497 893 531 858 q 411 936 463 928 l 411 553 q 601 467 551 501 q 707 261 707 394 m 190 768 q 233 649 190 693 q 356 574 276 606 l 356 938 q 236 885 282 932 q 190 768 190 838 m 406 40 q 528 101 476 47 q 579 224 579 156 q 535 340 579 297 q 406 417 490 382 l 406 40 z "},"%":{"ha":1213,"x_min":40,"x_max":1172,"o":"m 283 474 q 110 549 181 474 q 40 738 40 625 q 106 926 40 853 q 279 1000 172 1000 q 449 922 379 1000 q 518 733 518 844 q 451 546 518 618 q 283 474 383 474 m 310 0 q 295 7 299 0 q 297 24 292 14 l 836 974 q 856 986 844 986 l 900 986 q 915 979 911 986 q 913 963 918 972 l 378 13 q 354 0 371 0 l 310 0 m 296 514 q 384 565 353 514 q 415 694 415 617 q 372 878 415 797 q 261 958 329 958 q 169 906 201 958 q 138 775 138 854 q 181 592 138 669 q 296 514 225 514 m 938 -14 q 765 63 835 -14 q 694 251 694 139 q 760 440 694 367 q 933 513 826 513 q 1103 435 1033 513 q 1172 247 1172 358 q 1105 59 1172 132 q 938 -14 1038 -14 m 950 28 q 1038 78 1007 28 q 1069 207 1069 129 q 1026 391 1069 310 q 915 472 983 472 q 824 420 857 472 q 792 289 792 368 q 835 106 792 183 q 950 28 879 28 z "},"&":{"ha":986,"x_min":50,"x_max":983,"o":"m 960 71 q 983 53 983 71 l 983 46 q 952 6 983 25 q 879 -14 921 -14 q 713 75 794 -14 l 693 97 q 385 -14 564 -14 q 138 53 226 -14 q 50 246 50 121 q 115 403 50 335 q 294 531 179 471 q 198 656 229 603 q 167 776 167 710 q 237 938 167 876 q 422 999 307 999 q 592 942 526 999 q 657 796 657 886 q 598 649 657 713 q 450 543 539 586 l 718 251 q 790 588 790 396 q 813 616 790 607 q 860 617 836 625 q 883 586 883 608 q 775 190 883 351 l 817 144 q 925 71 885 71 l 960 71 m 410 953 q 324 912 357 953 q 292 806 292 871 q 319 701 292 747 q 406 590 347 654 q 538 797 538 667 q 502 910 538 867 q 410 953 467 953 m 400 29 q 649 146 546 29 l 336 486 q 175 235 175 388 q 235 87 175 144 q 400 29 296 29 z "},"'":{"ha":263,"x_min":65,"x_max":200,"o":"m 97 625 q 67 942 74 749 q 85 992 65 974 q 132 1010 104 1010 q 181 992 161 1010 q 200 942 200 975 q 185 774 197 882 q 164 625 172 665 q 130 599 157 599 q 97 625 103 599 z "},"(":{"ha":356,"x_min":54,"x_max":335,"o":"m 281 -132 q 54 468 54 97 q 282 1068 54 840 q 319 1076 303 1088 q 321 1039 335 1064 q 169 468 169 825 q 321 -103 169 111 q 318 -140 335 -128 q 281 -132 301 -151 z "},")":{"ha":357,"x_min":21,"x_max":301,"o":"m 75 -132 q 38 -140 54 -151 q 35 -103 21 -128 q 188 468 188 113 q 35 1039 188 824 q 37 1076 21 1064 q 74 1068 53 1088 q 301 468 301 840 q 75 -132 301 100 z "},"*":{"ha":532,"x_min":47,"x_max":494,"o":"m 203 589 q 144 565 185 550 q 111 608 111 579 q 126 639 113 626 l 238 749 l 92 775 q 50 813 51 778 q 75 858 47 844 q 115 856 93 867 l 247 788 l 221 936 q 228 978 215 963 q 269 996 242 994 q 309 981 296 997 q 315 936 322 964 l 288 788 l 418 856 q 475 843 456 876 q 472 788 494 811 q 443 775 463 776 l 299 749 l 410 638 q 411 579 439 610 q 356 565 386 551 q 332 592 340 572 l 268 726 l 203 589 z "},"+":{"ha":833,"x_min":132,"x_max":701,"o":"m 390 92 q 375 113 375 92 l 375 336 l 154 336 q 132 350 135 336 l 133 401 q 154 415 133 415 l 375 415 l 375 639 q 390 660 375 660 l 443 660 q 458 639 458 660 l 458 415 l 681 417 q 701 401 701 417 l 701 350 q 681 336 701 336 l 460 336 l 460 113 q 443 92 460 92 l 390 92 z "},",":{"ha":290,"x_min":50,"x_max":232,"o":"m 89 -187 q 62 -185 74 -197 q 64 -158 50 -172 q 140 -35 128 -96 q 129 -14 144 -14 q 79 9 99 -14 q 60 69 60 32 q 83 135 60 110 q 144 160 106 160 q 206 131 181 160 q 232 57 232 103 q 89 -187 232 -89 z "},"-":{"ha":636,"x_min":78,"x_max":558,"o":"m 97 408 q 78 429 78 408 l 78 458 q 97 476 78 476 l 539 476 q 558 458 558 476 l 558 429 q 539 408 558 408 l 97 408 z "},".":{"ha":310,"x_min":67,"x_max":243,"o":"m 156 -14 q 92 8 117 -14 q 67 68 67 29 q 92 131 67 108 q 156 153 117 153 q 218 131 193 153 q 243 68 243 108 q 218 8 243 29 q 156 -14 193 -14 z "},"/":{"ha":510,"x_min":33,"x_max":475,"o":"m 54 -142 q 40 -119 33 -142 l 389 1093 q 411 1107 393 1107 l 456 1107 q 468 1083 475 1107 l 124 -128 q 99 -142 119 -142 l 54 -142 z "},":":{"ha":326,"x_min":76,"x_max":251,"o":"m 164 476 q 101 498 125 476 q 76 558 76 519 q 101 621 76 599 q 164 643 125 643 q 226 621 201 643 q 251 558 251 599 q 226 499 251 521 q 164 476 201 476 m 164 -14 q 101 8 125 -14 q 76 68 76 29 q 101 131 76 108 q 164 153 125 153 q 226 131 201 153 q 251 68 251 108 q 226 8 251 31 q 164 -14 201 -14 z "},";":{"ha":354,"x_min":83,"x_max":269,"o":"m 181 476 q 118 498 143 476 q 93 558 93 519 q 118 621 93 599 q 181 643 143 643 q 244 621 219 643 q 269 558 269 599 q 244 498 269 519 q 181 476 219 476 m 124 -187 q 96 -185 108 -197 q 97 -158 83 -172 q 176 -35 160 -100 q 163 -14 179 -14 q 113 10 133 -14 q 93 69 93 33 q 116 135 93 110 q 178 160 139 160 q 241 132 215 160 q 267 57 267 104 q 124 -187 267 -89 z "},"<":{"ha":833,"x_min":160,"x_max":643,"o":"m 622 183 q 643 161 643 174 l 643 94 q 614 82 643 69 l 185 301 q 160 335 160 314 l 160 408 q 185 440 160 428 l 614 664 q 632 663 625 668 q 639 649 639 657 l 639 582 q 619 558 639 567 l 236 369 l 622 183 z "},"=":{"ha":833,"x_min":138,"x_max":694,"o":"m 158 458 q 138 474 138 458 l 138 525 q 158 540 138 540 l 675 540 q 694 525 694 540 l 694 474 q 675 458 694 458 l 158 458 m 158 210 q 138 224 138 210 l 138 276 q 158 290 138 290 l 675 290 q 694 276 694 290 l 694 224 q 675 210 694 210 l 158 210 z "},">":{"ha":833,"x_min":189,"x_max":674,"o":"m 647 440 q 674 408 674 428 l 674 333 q 647 301 674 313 l 218 81 q 197 79 204 75 q 189 93 189 83 l 189 160 q 210 183 189 174 l 603 369 l 218 558 q 197 582 197 564 l 197 649 q 203 663 197 657 q 221 664 210 668 l 647 440 z "},"?":{"ha":710,"x_min":36,"x_max":664,"o":"m 271 267 q 283 368 265 321 q 330 447 300 415 q 397 515 360 479 q 465 583 433 551 q 519 660 497 614 q 540 757 540 706 q 487 892 540 842 q 363 943 433 943 q 269 919 307 943 q 211 860 231 894 q 177 791 192 825 q 144 733 163 757 q 101 708 126 708 q 54 725 72 708 q 36 771 36 742 q 128 923 36 846 q 357 1000 219 1000 q 578 935 492 1000 q 664 744 664 869 q 633 622 664 678 q 558 528 601 567 q 469 454 514 490 q 394 370 425 418 q 363 267 363 322 q 342 243 363 250 q 298 243 321 236 q 271 267 275 250 m 379 6 q 367 -5 379 6 q 318 -15 356 -15 q 256 6 281 -15 q 232 64 232 26 q 256 124 232 103 q 318 146 281 146 q 379 124 356 146 q 403 64 403 103 q 379 6 403 26 z "},"@":{"ha":1256,"x_min":47,"x_max":1228,"o":"m 693 1024 q 1079 885 931 1024 q 1228 544 1228 747 q 1154 285 1228 392 q 950 178 1081 178 q 847 206 893 178 q 783 281 800 233 q 564 176 706 176 q 394 242 464 176 q 325 413 325 308 q 419 658 325 561 q 663 754 514 754 q 849 674 786 754 l 860 728 q 878 744 861 744 l 944 744 q 961 724 968 744 l 885 357 q 899 270 874 303 q 969 238 925 238 q 1097 327 1047 238 q 1146 539 1146 417 q 1015 844 1146 725 q 678 964 885 964 q 290 804 451 964 q 129 424 129 644 q 252 109 129 235 q 579 -17 375 -17 q 836 35 715 -17 q 855 33 850 40 q 856 13 860 26 l 849 -6 q 822 -29 843 -19 q 567 -75 719 -75 q 191 68 335 -75 q 47 422 47 211 q 94 649 47 540 q 223 841 140 758 q 428 974 306 924 q 693 1024 550 1024 m 589 219 q 713 269 656 219 q 785 388 769 318 l 786 388 l 815 517 l 821 542 l 819 542 q 791 664 832 618 q 683 710 750 710 q 519 617 586 710 q 449 400 451 525 q 486 268 447 317 q 589 219 525 219 z "},"A":{"ha":929,"x_min":8,"x_max":929,"o":"m 863 97 q 902 51 875 69 q 929 19 929 32 l 929 17 q 903 0 929 0 l 707 0 q 681 17 681 0 l 681 19 q 690 36 681 28 q 710 50 700 44 q 728 68 721 56 q 728 97 735 81 l 661 261 l 211 261 l 150 97 q 149 68 143 81 q 166 50 156 56 q 187 36 176 44 q 197 19 197 28 l 197 17 q 168 0 197 0 l 36 0 q 8 17 8 0 l 8 19 q 35 49 8 31 q 74 97 63 68 l 382 885 q 365 934 392 908 q 339 967 339 960 l 339 971 q 358 986 339 986 l 439 986 q 504 940 485 986 l 863 97 m 235 321 l 638 321 l 429 836 l 235 321 z "},"B":{"ha":917,"x_min":83,"x_max":871,"o":"m 588 529 q 797 443 724 511 q 871 271 871 375 q 766 72 871 143 q 492 0 661 0 l 111 0 q 83 17 83 0 l 83 21 q 108 50 83 31 q 133 97 133 69 l 133 889 q 108 936 133 917 q 83 967 83 956 l 83 969 q 111 986 83 986 l 414 986 q 678 918 581 986 q 775 740 775 850 q 725 605 775 661 q 588 529 675 549 m 260 882 l 258 604 q 274 566 258 581 q 313 551 289 551 l 457 551 q 605 599 549 551 q 661 719 661 646 q 594 874 661 818 q 411 929 526 929 l 301 928 q 260 882 260 928 m 481 57 q 673 106 604 57 q 742 250 742 154 q 658 425 742 356 q 424 494 574 494 l 260 494 l 260 124 q 276 75 260 93 q 318 57 292 57 l 481 57 z "},"C":{"ha":942,"x_min":46,"x_max":911,"o":"m 514 -14 q 188 142 329 -14 q 46 503 46 297 q 176 860 46 721 q 507 999 306 999 q 773 912 660 999 q 886 742 886 825 q 870 698 886 714 q 825 682 854 682 q 774 709 797 682 q 729 774 751 736 q 678 849 707 811 q 598 915 650 888 q 475 942 546 942 q 260 838 350 942 q 171 572 171 733 q 284 233 171 368 q 549 97 397 97 q 738 165 661 97 q 854 328 815 233 q 889 344 867 350 q 906 310 911 339 q 778 81 881 175 q 514 -14 676 -14 z "},"D":{"ha":1029,"x_min":82,"x_max":976,"o":"m 111 0 q 82 17 82 0 l 82 19 q 108 51 82 31 q 133 97 133 71 l 133 889 q 108 937 133 917 q 82 967 82 957 l 82 969 q 111 986 82 986 l 415 986 q 813 851 650 986 q 976 501 976 715 q 831 136 976 272 q 465 0 686 0 l 111 0 m 322 57 l 457 57 q 735 165 624 57 q 847 457 847 272 q 712 798 847 667 q 393 929 576 929 l 296 929 q 257 885 257 929 l 257 133 q 274 77 257 97 q 322 57 292 57 z "},"E":{"ha":833,"x_min":82,"x_max":808,"o":"m 111 0 q 82 17 82 0 l 82 19 q 108 49 82 29 q 133 99 133 69 l 133 888 q 121 924 133 910 q 95 948 108 939 q 82 967 82 957 l 82 971 q 107 986 82 986 l 696 986 q 731 956 724 986 l 764 818 q 747 790 769 790 l 740 790 q 709 812 726 790 q 677 860 692 833 q 640 908 663 886 q 592 929 617 929 l 297 929 q 258 882 258 929 l 258 533 l 511 533 q 542 546 529 533 q 560 574 554 558 q 574 603 567 590 q 592 615 582 615 l 597 615 q 615 592 615 615 l 615 421 q 597 397 615 397 l 592 397 q 574 410 582 397 q 560 437 567 422 q 542 464 554 451 q 511 476 529 476 l 258 476 l 257 117 q 270 74 257 92 q 308 57 283 57 l 635 57 q 682 79 660 57 q 717 128 704 101 q 748 178 731 156 q 781 200 765 200 l 789 200 q 803 192 799 200 q 806 172 808 183 l 772 32 q 736 0 765 0 l 111 0 z "},"F":{"ha":783,"x_min":82,"x_max":767,"o":"m 111 0 q 82 17 82 0 l 82 19 q 108 49 82 29 q 133 97 133 69 l 133 889 q 125 919 133 907 q 108 938 117 932 q 90 951 99 943 q 82 967 82 958 l 82 969 q 107 986 82 986 l 692 986 q 726 954 719 986 l 760 817 q 742 789 767 789 l 736 789 q 696 824 718 789 q 646 894 674 858 q 586 929 618 929 l 300 929 q 260 885 260 929 l 260 490 l 517 490 q 544 503 532 490 q 563 531 557 515 q 578 560 569 547 q 596 572 586 572 l 604 572 q 622 549 622 572 l 622 378 q 604 354 622 354 l 596 354 q 578 366 586 354 q 563 393 569 378 q 544 420 557 408 q 517 432 532 432 l 260 432 l 260 97 q 273 63 260 76 q 300 39 286 49 q 314 19 314 29 l 314 17 q 286 0 314 0 l 111 0 z "},"G":{"ha":1006,"x_min":51,"x_max":982,"o":"m 532 -14 q 195 136 339 -14 q 51 489 51 286 q 185 857 51 715 q 517 999 318 999 q 790 914 679 999 q 900 743 900 829 q 883 700 900 717 q 840 683 867 683 q 788 710 813 683 q 740 774 764 736 q 687 851 717 813 q 604 915 657 889 q 481 942 551 942 q 264 833 353 942 q 175 564 175 724 q 292 214 175 357 q 565 71 410 71 q 782 131 699 71 l 782 371 q 767 403 782 390 q 735 421 753 415 q 702 433 717 426 q 688 447 688 440 l 688 453 q 717 472 688 472 l 954 471 q 982 453 982 471 l 982 447 q 969 433 982 440 q 941 421 957 426 q 913 403 925 415 q 900 371 900 390 l 900 156 q 864 89 900 118 q 532 -14 740 -14 z "},"H":{"ha":1065,"x_min":83,"x_max":983,"o":"m 111 0 q 83 17 83 0 l 83 19 q 108 49 83 29 q 133 97 133 69 l 133 889 q 108 937 133 917 q 83 967 83 957 l 83 969 q 111 986 83 986 l 285 986 q 313 969 313 986 l 313 967 q 299 947 313 957 q 273 924 286 938 q 260 889 260 910 l 258 533 l 804 533 l 803 889 q 778 937 803 917 q 753 967 753 957 l 753 969 q 781 986 753 986 l 954 986 q 983 969 983 986 l 983 967 q 969 947 983 957 q 942 924 956 938 q 929 889 929 910 l 929 97 q 942 63 929 76 q 969 39 956 49 q 983 19 983 29 l 983 17 q 954 0 983 0 l 781 0 q 753 17 753 0 l 753 19 q 778 49 753 29 q 803 97 803 69 l 804 472 l 260 472 l 260 97 q 273 63 260 76 q 299 39 286 49 q 313 19 313 29 l 313 17 q 285 0 313 0 l 111 0 z "},"I":{"ha":394,"x_min":83,"x_max":313,"o":"m 83 17 l 83 19 q 108 49 83 29 q 133 96 133 68 l 133 889 q 108 937 133 917 q 83 967 83 957 l 83 969 q 111 986 83 986 l 285 986 q 313 969 313 986 l 313 967 q 299 947 313 957 q 273 924 286 938 q 260 889 260 910 l 260 96 q 286 49 260 68 q 313 19 313 29 l 313 17 q 285 0 313 0 l 111 0 q 83 17 83 0 z "},"J":{"ha":718,"x_min":14,"x_max":651,"o":"m 472 889 q 447 937 472 917 q 421 967 421 957 l 421 969 q 450 986 421 986 l 625 986 q 651 969 651 986 l 651 967 q 638 947 651 957 q 612 924 625 938 q 599 889 599 910 l 597 354 q 303 -14 596 -11 q 169 8 228 -14 q 78 67 111 31 q 30 140 46 103 q 14 210 14 176 q 30 256 14 239 q 74 274 46 274 q 122 250 104 274 q 150 192 140 226 q 174 124 160 158 q 224 67 189 90 q 314 43 258 43 q 428 109 383 43 q 472 296 472 175 l 472 889 z "},"K":{"ha":943,"x_min":83,"x_max":964,"o":"m 893 99 q 920 64 906 78 q 944 45 935 50 q 958 34 953 40 q 964 19 964 28 l 964 17 q 940 0 964 0 l 742 0 q 717 17 717 0 l 717 19 q 740 48 717 28 q 750 92 764 68 l 461 550 l 260 351 l 260 99 q 287 51 260 72 q 314 19 314 31 l 314 17 q 285 0 314 0 l 111 0 q 83 17 83 0 l 83 19 q 108 51 83 31 q 133 99 133 72 l 133 889 q 108 937 133 917 q 83 967 83 957 l 83 969 q 111 986 83 986 l 285 986 q 313 969 313 986 l 313 967 q 299 947 313 957 q 273 924 286 938 q 260 889 260 910 l 260 436 l 713 885 q 728 920 732 910 q 710 944 724 931 q 696 967 696 958 l 696 969 q 725 986 696 986 l 869 986 q 897 969 897 986 l 897 967 q 883 946 897 956 q 843 919 869 936 q 799 885 817 903 l 546 635 l 893 99 z "},"L":{"ha":799,"x_min":83,"x_max":792,"o":"m 111 0 q 83 17 83 0 l 83 19 q 108 50 83 31 q 133 97 133 69 l 133 889 q 108 937 133 918 q 83 967 83 956 l 83 969 q 111 986 83 986 l 286 986 q 314 969 314 986 l 314 967 q 287 937 314 956 q 260 889 260 918 l 260 111 q 304 57 260 57 l 613 57 q 663 81 640 57 q 697 133 685 104 q 726 186 710 163 q 758 210 743 210 l 769 210 q 785 185 792 210 l 750 32 q 715 0 743 0 l 111 0 z "},"M":{"ha":1243,"x_min":29,"x_max":1217,"o":"m 1160 101 q 1191 51 1165 71 q 1217 19 1217 31 l 1217 17 q 1188 0 1217 0 l 1017 0 q 989 17 989 0 l 989 19 q 1003 39 989 29 q 1028 63 1017 49 q 1035 101 1039 78 l 913 794 l 633 31 q 597 1 621 1 q 560 29 572 1 l 278 811 l 158 101 q 163 70 156 83 q 181 51 169 57 q 201 36 192 44 q 211 19 211 28 l 211 17 q 183 0 211 0 l 57 0 q 29 17 29 0 l 29 19 q 54 51 29 31 q 85 101 79 72 l 219 886 q 199 934 224 914 q 174 965 174 954 l 174 968 q 197 986 174 986 l 289 986 q 343 950 331 986 l 614 165 l 893 951 q 943 986 906 986 l 1042 986 q 1063 971 1063 986 l 1063 967 q 1048 945 1063 956 q 1022 918 1033 935 q 1015 875 1011 901 l 1160 101 z "},"N":{"ha":1042,"x_min":81,"x_max":967,"o":"m 939 986 q 967 968 967 986 l 967 965 q 939 936 967 956 q 911 889 911 917 l 911 38 q 876 0 911 0 l 842 0 q 797 36 821 0 l 204 844 l 204 101 q 219 65 204 79 q 249 40 233 50 q 264 19 264 29 l 264 17 q 235 0 264 0 l 108 0 q 81 17 81 0 l 81 19 q 107 51 81 29 q 133 101 133 72 l 133 888 q 120 922 133 908 q 94 944 107 935 q 81 963 81 953 l 81 968 q 108 986 81 986 l 214 986 q 264 958 244 986 l 840 161 l 840 889 q 812 936 840 917 q 783 965 783 956 l 783 968 q 813 986 783 986 l 939 986 z "},"O":{"ha":1072,"x_min":53,"x_max":1019,"o":"m 547 -14 q 193 138 333 -14 q 53 496 53 289 q 189 857 53 714 q 538 1000 325 1000 q 883 850 747 1000 q 1019 488 1019 700 q 883 133 1019 281 q 547 -14 746 -14 m 578 46 q 804 153 714 46 q 894 404 894 260 q 782 785 894 629 q 494 940 669 940 q 267 838 356 940 q 178 581 178 735 q 291 203 178 360 q 578 46 404 46 z "},"P":{"ha":840,"x_min":82,"x_max":807,"o":"m 111 0 q 82 18 82 0 l 82 21 q 108 49 82 29 q 133 97 133 69 l 133 889 q 108 935 133 914 q 82 965 82 956 l 82 969 q 111 986 82 986 l 369 986 q 536 968 460 986 q 674 913 613 950 q 772 812 736 875 q 807 665 807 749 q 700 421 807 507 q 401 335 593 335 l 258 335 l 258 97 q 285 49 258 69 q 313 21 313 29 l 313 18 q 285 0 313 0 l 111 0 m 308 392 l 401 392 q 603 456 529 392 q 678 635 678 521 q 588 853 678 778 q 369 929 499 929 l 294 929 q 258 885 258 929 l 258 442 q 308 392 258 392 z "},"Q":{"ha":1071,"x_min":53,"x_max":1058,"o":"m 1035 -81 q 1051 -84 1043 -76 q 1050 -104 1058 -92 q 967 -178 1029 -149 q 829 -207 904 -207 q 700 -181 765 -207 q 590 -122 635 -154 q 483 -64 544 -90 q 361 -37 421 -37 q 185 -81 268 -37 q 157 -70 164 -89 q 165 -36 150 -51 q 324 39 236 26 q 126 227 199 103 q 53 496 53 351 q 189 857 53 714 q 538 1000 325 1000 q 883 850 747 1000 q 1019 488 1019 700 q 889 139 1019 285 q 565 -14 758 -7 q 614 -42 576 -19 q 669 -73 651 -64 q 720 -96 688 -82 q 785 -115 753 -110 q 851 -121 817 -121 q 1035 -81 968 -121 m 178 581 q 291 203 178 360 q 578 46 404 46 q 804 153 714 46 q 894 404 894 260 q 782 785 894 629 q 494 940 669 940 q 267 838 356 940 q 178 581 178 735 z "},"R":{"ha":900,"x_min":83,"x_max":890,"o":"m 803 97 q 841 60 818 75 q 877 38 864 46 q 890 19 890 31 l 890 17 q 863 0 890 0 l 669 0 q 642 17 642 0 l 642 19 q 656 40 642 29 q 676 60 671 51 q 669 97 682 69 l 461 385 q 426 383 450 383 l 260 381 l 260 97 q 273 63 260 76 q 300 39 286 49 q 314 19 314 29 l 314 17 q 286 0 314 0 l 111 0 q 83 17 83 0 l 83 19 q 108 49 83 29 q 133 97 133 69 l 133 889 q 108 937 133 917 q 83 967 83 957 l 83 969 q 111 986 83 986 l 396 986 q 699 909 583 986 q 815 681 814 832 q 754 510 815 583 q 581 404 693 436 l 803 97 m 414 439 q 611 499 536 439 q 686 663 686 558 q 601 861 686 793 q 389 929 515 929 l 296 929 q 260 882 260 929 l 260 504 q 318 439 260 439 l 414 439 z "},"S":{"ha":842,"x_min":46,"x_max":793,"o":"m 438 -14 q 150 69 254 -14 q 46 231 46 151 q 60 271 46 256 q 99 286 74 286 q 145 259 125 285 q 184 197 165 233 q 229 126 203 161 q 310 65 256 90 q 443 40 365 40 q 603 92 542 40 q 665 226 665 144 q 633 340 665 296 q 548 405 600 385 q 433 438 496 425 q 306 465 369 450 q 190 506 242 481 q 105 588 138 532 q 72 728 72 643 q 165 923 72 847 q 418 999 257 999 q 680 926 582 999 q 778 772 778 854 q 721 717 778 717 q 674 740 693 717 q 640 797 656 764 q 603 864 625 831 q 533 921 581 897 q 414 944 485 944 q 256 892 313 944 q 199 757 199 839 q 231 650 199 692 q 317 589 264 608 q 433 556 369 569 q 559 526 496 543 q 675 483 622 510 q 760 398 728 456 q 793 256 793 340 q 690 60 793 133 q 438 -14 588 -14 z "},"T":{"ha":844,"x_min":11,"x_max":835,"o":"m 331 0 q 303 17 303 0 l 303 19 q 328 49 303 29 q 354 97 354 69 l 354 926 l 165 926 q 123 903 142 926 q 94 851 104 879 q 72 800 85 824 q 46 776 58 776 l 33 776 q 15 804 11 776 l 38 956 q 72 986 42 986 l 763 986 q 799 956 792 986 l 829 803 q 813 776 835 776 l 799 776 q 772 800 786 776 q 746 851 757 824 q 715 903 735 879 q 671 926 694 926 l 479 926 l 479 97 q 492 63 479 76 q 519 39 506 49 q 533 19 533 29 l 533 17 q 504 0 533 0 l 331 0 z "},"U":{"ha":999,"x_min":67,"x_max":938,"o":"m 510 -14 q 226 94 335 -14 q 117 383 117 203 l 117 889 q 92 936 117 917 q 67 965 67 956 l 67 969 q 94 986 67 986 l 269 986 q 297 969 297 986 l 297 965 q 271 936 297 956 q 244 889 244 917 l 244 383 q 324 138 244 229 q 533 46 403 46 q 729 135 649 46 q 810 383 810 225 l 810 889 q 783 936 810 917 q 757 965 757 956 l 757 969 q 786 986 757 986 l 908 986 q 938 969 938 986 l 938 965 q 909 936 938 956 q 881 889 881 917 l 881 382 q 778 94 881 203 q 510 -14 675 -14 z "},"V":{"ha":972,"x_min":-3,"x_max":969,"o":"m 943 986 q 969 971 969 986 l 969 967 q 943 938 969 956 q 904 889 917 919 l 546 36 q 496 0 529 0 q 449 35 465 0 l 60 888 q 22 935 46 917 q -3 967 -3 954 l -3 969 q 26 986 -3 986 l 225 986 q 254 969 254 986 l 254 967 q 243 950 254 958 q 221 935 232 942 q 202 917 210 929 q 203 888 194 904 l 525 138 l 828 889 q 822 924 836 910 q 790 947 808 938 q 771 967 771 957 l 771 971 q 799 986 771 986 l 943 986 z "},"W":{"ha":1363,"x_min":-7,"x_max":1351,"o":"m 1326 986 q 1351 971 1351 986 l 1351 967 q 1324 937 1351 956 q 1285 889 1296 918 l 1011 36 q 957 0 999 0 q 910 35 922 0 l 706 629 l 492 36 q 443 0 481 0 q 396 35 410 0 l 64 888 q 36 926 54 913 q 6 949 18 940 q -7 968 -7 957 l -7 971 q 18 986 -7 986 l 214 986 q 240 969 240 986 l 240 967 q 225 947 240 956 q 199 924 210 938 q 196 888 188 911 l 467 157 l 671 729 l 617 889 q 577 938 607 918 q 547 968 547 957 l 547 971 q 569 986 547 986 l 768 986 q 792 971 792 986 l 792 968 q 776 950 792 958 q 747 928 760 942 q 742 889 735 914 l 983 158 l 1210 889 q 1209 918 1215 906 q 1192 936 1203 931 q 1172 949 1182 942 q 1163 965 1163 957 l 1163 968 q 1188 986 1163 986 l 1326 986 z "},"X":{"ha":921,"x_min":-6,"x_max":919,"o":"m 842 97 q 876 63 856 78 q 908 40 897 49 q 919 19 919 31 l 919 17 q 892 0 919 0 l 690 0 q 664 17 664 0 l 664 19 q 680 42 664 29 q 703 64 696 54 q 697 97 710 74 l 432 451 l 169 97 q 163 64 157 74 q 181 42 168 54 q 194 19 194 29 l 194 17 q 167 0 194 0 l 22 0 q -6 17 -6 0 l -6 19 q 9 40 -6 31 q 47 63 24 49 q 83 97 69 78 l 394 501 l 103 889 q 67 924 88 910 q 34 947 46 939 q 22 967 22 956 l 22 969 q 50 986 22 986 l 247 986 q 275 969 275 986 l 275 967 q 260 944 275 957 q 238 922 244 932 q 243 889 231 913 l 494 557 l 736 889 q 741 922 749 913 q 717 944 733 932 q 701 967 701 957 l 701 969 q 728 986 701 986 l 879 986 q 907 969 907 986 l 907 967 q 892 947 907 956 q 855 924 878 939 q 817 889 832 910 l 532 507 l 842 97 z "},"Y":{"ha":917,"x_min":6,"x_max":904,"o":"m 876 986 q 904 971 904 986 l 904 967 q 876 936 904 954 q 831 889 847 918 l 531 399 l 531 97 q 544 63 531 76 q 570 39 557 49 q 583 19 583 29 l 583 17 q 557 0 583 0 l 382 0 q 354 17 354 0 l 354 19 q 379 49 354 29 q 404 97 404 69 l 404 390 l 82 889 q 36 934 67 914 q 6 967 6 954 l 6 969 q 33 986 6 986 l 236 986 q 264 969 264 986 l 264 967 q 247 945 264 957 q 220 924 229 933 q 221 889 211 914 l 492 443 l 763 889 q 763 925 774 915 q 734 946 753 935 q 715 967 715 957 l 715 969 q 740 986 715 986 l 876 986 z "},"Z":{"ha":839,"x_min":31,"x_max":831,"o":"m 801 206 q 824 178 831 206 l 785 29 q 751 0 775 0 l 58 0 q 39 8 47 0 q 31 25 31 15 l 31 33 q 49 71 31 44 l 638 929 l 201 929 q 160 907 181 929 q 128 858 140 885 q 99 808 115 831 q 65 786 82 786 l 60 786 q 39 819 32 786 l 76 956 q 111 986 83 986 l 758 986 q 777 978 769 986 q 785 961 785 971 l 785 949 q 764 908 785 939 l 178 57 l 647 57 q 697 80 674 57 q 735 131 721 103 q 767 183 750 160 q 799 206 783 206 l 801 206 z "},"[":{"ha":401,"x_min":115,"x_max":381,"o":"m 139 -146 q 115 -124 115 -146 l 115 1060 q 139 1082 115 1082 l 363 1082 q 381 1064 381 1082 l 381 1038 q 363 1021 381 1021 l 224 1021 l 224 -85 l 363 -85 q 381 -101 381 -85 l 381 -128 q 363 -146 381 -146 l 139 -146 z "},"\\":{"ha":499,"x_min":33,"x_max":465,"o":"m 406 -142 q 381 -128 385 -142 l 40 1083 q 53 1107 33 1107 l 92 1107 q 115 1093 111 1107 l 458 -119 q 442 -142 465 -142 l 406 -142 z "},"]":{"ha":401,"x_min":21,"x_max":286,"o":"m 39 -146 q 21 -128 21 -146 l 21 -101 q 39 -85 21 -85 l 178 -85 l 178 1021 l 39 1021 q 21 1038 21 1021 l 21 1064 q 39 1082 21 1082 l 263 1082 q 286 1060 286 1082 l 286 -124 q 263 -146 286 -146 l 39 -146 z "},"^":{"ha":833,"x_min":194,"x_max":639,"o":"m 628 853 q 636 822 639 838 q 622 804 633 807 q 594 813 610 801 l 410 985 l 238 813 q 215 806 228 803 q 198 823 201 810 q 206 853 194 836 l 358 1056 q 400 1075 371 1075 l 425 1075 q 468 1057 453 1075 l 628 853 z "},"_":{"ha":674,"x_min":44,"x_max":629,"o":"m 63 -68 q 44 -49 44 -68 l 44 -19 q 63 0 44 0 l 611 0 q 629 -19 629 0 l 629 -49 q 611 -68 629 -68 l 63 -68 z "},"`":{"ha":833,"x_min":157,"x_max":508,"o":"m 463 769 l 192 889 q 174 933 157 900 l 196 978 q 246 988 214 1011 l 490 813 q 497 779 508 797 q 463 769 486 761 z "},"a":{"ha":703,"x_min":50,"x_max":700,"o":"m 622 111 q 638 66 625 82 q 664 47 650 50 q 689 38 678 43 q 700 21 700 32 q 611 -8 700 -8 q 538 10 561 -8 q 510 83 514 29 q 310 -14 457 -14 q 122 42 193 -14 q 51 196 51 97 q 122 347 50 293 q 306 401 193 401 q 476 346 417 401 l 474 383 q 422 574 461 511 q 303 636 383 636 q 222 611 254 636 q 178 557 190 586 q 150 503 167 528 q 111 478 133 478 q 72 492 86 478 q 57 529 57 506 q 126 634 57 588 q 303 681 194 681 q 505 603 429 681 q 594 388 581 526 l 622 111 m 340 31 q 451 74 408 31 q 492 183 494 118 l 486 246 q 434 326 475 296 q 333 357 393 357 q 218 317 263 357 q 174 213 174 276 q 220 83 174 135 q 340 31 267 31 z "},"b":{"ha":790,"x_min":44,"x_max":744,"o":"m 221 590 q 425 681 293 681 q 651 587 557 681 q 744 343 744 493 q 652 88 744 190 q 426 -14 560 -14 q 213 92 289 -14 l 214 21 q 190 -1 214 -1 l 69 0 q 49 15 49 0 l 49 19 q 74 50 49 29 q 100 99 100 71 l 100 876 q 86 917 100 901 q 58 941 72 932 q 44 960 44 950 l 44 964 q 68 986 44 976 l 178 1039 q 209 1043 197 1049 q 221 1019 221 1038 l 221 590 m 408 31 q 563 106 506 31 q 621 310 621 182 q 558 545 621 454 q 393 636 494 636 q 272 584 324 636 q 221 461 221 532 l 221 264 l 219 244 l 221 244 q 278 96 221 161 q 408 31 336 31 z "},"c":{"ha":697,"x_min":40,"x_max":664,"o":"m 388 -14 q 141 87 242 -14 q 40 338 40 188 q 138 585 40 490 q 382 681 236 679 q 572 626 490 682 q 653 508 653 569 q 597 460 653 458 q 548 488 571 461 q 508 548 525 515 q 452 608 490 581 q 360 636 414 636 q 218 566 274 636 q 163 392 163 496 q 236 160 163 247 q 426 74 310 74 q 544 110 494 74 q 619 204 593 147 q 646 217 628 221 q 660 193 664 213 q 572 47 643 108 q 388 -14 500 -14 z "},"d":{"ha":789,"x_min":47,"x_max":743,"o":"m 692 97 q 717 49 692 69 q 743 19 743 28 l 743 15 q 722 0 743 0 l 606 0 q 582 22 585 0 l 579 92 q 488 13 544 40 q 368 -14 432 -14 q 142 83 236 -14 q 47 335 47 181 q 140 583 47 486 q 372 681 233 681 q 574 590 494 681 l 574 893 q 559 933 574 918 q 530 957 544 949 q 515 975 515 965 l 515 978 q 536 1001 515 992 l 649 1039 q 692 1018 692 1056 l 692 97 m 397 32 q 519 85 464 32 q 574 232 574 139 l 575 232 l 574 303 l 574 442 q 513 574 574 513 q 371 636 453 636 q 224 565 281 636 q 167 376 168 493 q 229 133 164 232 q 397 32 294 33 z "},"e":{"ha":688,"x_min":47,"x_max":654,"o":"m 611 196 q 638 208 621 211 q 651 185 654 204 q 563 49 636 111 q 369 -14 489 -14 q 140 83 232 -14 q 47 339 47 181 q 142 583 47 485 q 375 681 236 681 q 563 617 493 681 q 633 475 633 554 q 568 393 633 415 l 183 267 q 267 126 207 176 q 413 75 328 75 q 611 196 556 75 m 354 636 q 219 564 271 636 q 168 383 168 492 q 174 313 168 342 l 483 424 q 517 472 517 438 q 469 581 517 525 q 354 636 421 636 z "},"f":{"ha":474,"x_min":7,"x_max":553,"o":"m 369 1024 q 498 983 443 1024 q 553 888 553 943 q 539 853 553 868 q 501 839 525 839 q 449 860 465 839 q 431 908 433 882 q 410 957 429 935 q 350 979 392 979 q 260 896 282 981 q 265 704 239 811 l 265 667 l 458 667 q 472 660 467 667 q 478 647 478 654 l 478 629 q 458 611 478 611 l 265 611 l 265 99 q 281 64 265 78 q 312 40 296 50 q 328 21 328 31 l 328 17 q 307 0 328 0 l 111 0 q 90 17 90 0 l 90 21 q 103 40 90 31 q 130 64 117 50 q 143 99 143 78 l 143 611 l 28 611 q 7 629 7 611 l 7 647 q 28 667 7 667 l 143 667 l 143 788 q 203 958 143 893 q 369 1024 263 1024 z "},"g":{"ha":738,"x_min":42,"x_max":693,"o":"m 644 667 q 692 644 693 667 q 683 632 690 638 q 654 615 672 621 q 610 607 636 610 q 569 600 583 604 q 640 515 614 567 q 667 408 667 463 q 622 257 667 322 q 500 158 578 192 q 635 92 589 139 q 681 -17 681 46 q 591 -169 681 -112 q 358 -225 501 -225 q 126 -158 211 -225 q 42 -14 42 -90 q 55 24 42 8 q 93 39 68 39 q 127 23 113 39 q 151 -17 142 7 q 176 -70 160 -42 q 212 -123 192 -99 q 272 -164 232 -147 q 367 -181 313 -181 q 504 -137 451 -181 q 557 -25 557 -94 q 515 84 557 42 q 403 133 474 126 q 350 131 367 131 q 139 209 225 131 q 53 400 53 288 q 138 602 53 524 q 360 681 222 681 q 472 674 397 681 q 644 667 547 667 m 372 176 q 499 230 451 176 q 546 365 546 283 q 487 556 546 476 q 338 636 428 636 q 219 583 264 636 q 174 450 174 531 q 231 257 174 338 q 372 176 289 176 z "},"h":{"ha":789,"x_min":49,"x_max":754,"o":"m 704 100 q 731 53 707 72 q 754 22 754 33 l 754 17 q 726 0 754 0 l 560 0 q 532 17 532 0 l 532 22 q 545 42 532 32 q 571 65 558 51 q 582 99 583 78 l 568 382 q 517 564 563 501 q 397 626 471 626 q 272 572 321 626 q 224 435 224 518 l 224 97 q 251 52 224 71 q 279 22 279 33 l 279 18 q 250 0 279 0 l 76 0 q 50 18 50 0 l 50 22 q 76 52 50 33 q 101 97 101 71 l 101 882 q 88 920 101 906 q 62 944 75 935 q 49 961 49 953 l 49 965 q 68 989 49 981 l 182 1039 q 211 1042 200 1047 q 222 1021 222 1038 l 219 571 q 426 681 290 681 q 608 605 535 681 q 689 379 681 529 l 704 100 z "},"i":{"ha":338,"x_min":60,"x_max":286,"o":"m 167 799 q 99 822 124 799 q 74 885 74 846 q 99 948 74 924 q 167 972 125 972 q 232 948 207 972 q 257 885 257 924 q 232 822 257 846 q 167 799 207 799 m 86 0 q 60 18 60 0 l 60 24 q 72 42 60 33 q 97 65 85 51 q 110 99 110 78 l 110 513 q 85 568 110 544 q 60 599 60 592 l 60 601 q 81 622 60 611 l 188 675 q 220 678 210 683 q 231 656 231 672 l 231 99 q 239 70 231 82 q 258 53 247 58 q 278 40 269 47 q 286 24 286 32 l 286 18 q 257 0 286 0 l 86 0 z "},"j":{"ha":333,"x_min":-81,"x_max":261,"o":"m 171 799 q 103 822 128 799 q 78 885 78 846 q 103 948 78 924 q 171 972 129 972 q 236 948 211 972 q 261 885 261 924 q 236 822 261 846 q 171 799 211 799 m 74 -256 q -37 -225 6 -256 q -81 -144 -81 -194 q -65 -106 -81 -121 q -25 -90 -50 -90 q 17 -108 1 -90 q 36 -149 32 -126 q 54 -189 40 -171 q 94 -207 68 -207 q 141 -186 124 -207 q 158 -132 158 -165 q 139 -46 158 -97 q 119 36 119 6 l 119 513 q 94 567 119 544 q 69 597 69 589 l 69 601 q 89 622 69 611 l 200 675 q 233 678 221 685 q 244 656 244 671 l 244 4 q 221 -150 244 -76 q 74 -256 186 -256 z "},"k":{"ha":724,"x_min":46,"x_max":740,"o":"m 671 79 q 711 49 682 65 q 740 19 740 33 l 740 17 q 719 0 740 0 l 535 0 q 514 17 514 0 l 514 19 q 534 45 514 29 q 539 79 554 61 l 328 344 l 222 247 l 222 97 q 249 52 222 71 q 276 22 276 33 l 276 18 q 247 0 276 0 l 78 0 q 50 18 50 0 l 50 22 q 75 52 50 33 q 100 97 100 71 l 100 878 q 86 917 100 901 q 59 943 72 933 q 46 961 46 953 l 46 964 q 65 986 46 975 l 178 1039 q 210 1041 199 1047 q 222 1019 222 1035 l 222 322 l 503 569 q 511 598 518 589 q 488 622 504 607 q 472 646 472 636 l 472 650 q 494 667 472 667 l 651 667 q 671 651 671 667 l 671 647 q 657 626 671 636 q 617 600 643 615 q 574 571 590 585 l 408 418 l 671 79 z "},"l":{"ha":328,"x_min":53,"x_max":278,"o":"m 79 0 q 53 18 53 0 l 53 22 q 77 52 53 33 q 101 97 101 71 l 101 878 q 90 917 101 901 q 65 943 78 933 q 53 961 53 953 l 53 964 q 72 986 53 975 l 181 1039 q 213 1041 201 1047 q 224 1019 224 1035 l 224 97 q 251 52 224 71 q 278 22 278 33 l 278 18 q 250 0 278 0 l 79 0 z "},"m":{"ha":1250,"x_min":54,"x_max":1218,"o":"m 1167 99 q 1193 51 1168 71 q 1218 21 1218 31 l 1218 15 q 1190 -1 1218 -1 l 1024 -1 q 996 15 996 -1 l 996 21 q 1021 50 996 31 q 1044 97 1046 69 l 1031 368 q 980 565 1024 504 q 857 626 936 626 q 742 574 790 626 q 692 443 694 521 q 697 375 697 415 l 697 97 q 722 50 697 69 q 746 21 746 31 l 746 15 q 719 -1 746 -1 l 556 -1 q 526 15 526 -1 l 526 21 q 551 50 526 31 q 575 97 575 69 l 575 382 q 526 560 575 494 q 403 626 476 626 q 282 572 331 626 q 231 439 233 518 l 232 97 q 259 50 232 69 q 286 21 286 31 l 286 15 q 258 -1 286 -1 l 85 -1 q 57 15 57 -1 l 57 21 q 83 50 57 31 q 110 97 110 69 l 110 518 q 96 557 110 542 q 68 581 82 572 q 54 600 54 590 l 54 604 q 75 625 54 617 l 183 675 q 213 678 203 685 q 224 654 224 671 l 224 556 q 309 647 254 613 q 429 681 364 681 q 570 641 507 681 q 667 528 633 601 q 753 640 693 599 q 889 681 813 681 q 1072 605 1001 681 q 1151 365 1142 529 l 1167 99 z "},"n":{"ha":797,"x_min":53,"x_max":764,"o":"m 714 100 q 728 64 715 78 q 752 41 740 50 q 764 22 764 32 l 764 17 q 735 -1 764 -1 l 569 -1 q 540 17 540 -1 l 540 22 q 566 51 540 32 q 590 99 592 71 l 576 376 q 526 563 571 500 q 406 626 481 626 q 281 572 329 626 q 232 435 232 518 l 232 97 q 241 69 232 81 q 260 51 250 57 q 278 38 269 46 q 288 22 288 31 l 288 17 q 258 -1 288 -1 l 85 -1 q 57 17 57 -1 l 57 22 q 84 51 57 33 q 111 97 111 69 l 111 518 q 97 559 111 544 q 67 582 82 574 q 53 600 53 590 l 53 604 q 75 625 53 617 l 179 675 q 208 678 199 685 q 218 654 218 671 l 218 553 q 306 646 249 611 q 435 681 364 681 q 616 604 543 681 q 699 374 689 528 l 714 100 z "},"o":{"ha":785,"x_min":46,"x_max":736,"o":"m 408 -14 q 147 91 247 -14 q 46 343 46 196 q 143 584 46 488 q 383 681 240 681 q 637 578 538 681 q 736 328 736 476 q 644 84 736 182 q 408 -14 553 -14 m 425 32 q 560 101 507 32 q 614 286 614 171 q 544 534 614 433 q 369 635 475 635 q 225 566 281 635 q 169 382 169 497 q 242 138 169 243 q 425 32 314 32 z "},"p":{"ha":794,"x_min":44,"x_max":746,"o":"m 426 681 q 652 587 558 681 q 746 343 746 493 q 653 88 746 190 q 428 -14 561 -14 q 222 82 300 -14 l 222 -217 q 236 -253 222 -239 q 263 -276 250 -267 q 276 -294 276 -285 l 276 -299 q 249 -317 276 -317 l 78 -317 q 49 -299 49 -317 l 49 -294 q 57 -278 49 -286 q 74 -265 65 -271 q 92 -247 83 -260 q 100 -217 100 -235 l 100 519 q 72 566 100 546 q 44 597 44 586 l 44 601 q 67 626 44 618 l 167 675 q 206 656 206 693 l 204 564 q 295 649 236 618 q 426 681 354 681 m 411 31 q 565 106 507 31 q 622 310 622 182 q 560 545 622 454 q 396 636 497 636 q 281 591 332 636 q 222 482 231 546 l 222 244 q 280 96 222 161 q 411 31 338 31 z "},"q":{"ha":792,"x_min":47,"x_max":746,"o":"m 746 622 q 733 604 746 614 q 706 578 719 594 q 693 539 693 563 l 693 -218 q 706 -253 693 -239 q 733 -276 719 -267 q 746 -296 746 -286 l 746 -300 q 717 -317 746 -317 l 549 -317 q 521 -300 521 -317 l 521 -296 q 534 -276 521 -286 q 561 -253 547 -267 q 575 -218 575 -239 l 575 86 q 368 -14 504 -14 q 142 83 236 -14 q 47 335 47 181 q 140 583 47 486 q 374 681 233 681 q 586 576 508 681 l 586 651 q 599 675 586 668 q 631 675 611 682 l 725 650 q 746 626 746 644 l 746 622 m 397 32 q 519 85 464 32 q 575 232 575 139 l 575 446 q 513 576 574 515 q 372 636 453 636 q 225 565 282 636 q 167 376 168 493 q 229 133 164 232 q 397 32 294 33 z "},"r":{"ha":529,"x_min":54,"x_max":525,"o":"m 397 681 q 491 650 457 681 q 525 574 525 619 q 469 508 525 508 q 432 524 446 508 q 413 557 418 539 q 392 590 408 575 q 346 606 375 606 q 259 551 290 606 q 228 414 228 496 l 228 97 q 257 51 228 69 q 286 22 286 32 l 286 17 q 258 0 286 0 l 86 0 q 58 17 58 0 l 58 22 q 84 51 58 32 q 110 97 110 69 l 110 519 q 82 569 110 549 q 54 600 54 590 l 54 603 q 75 628 54 617 l 181 675 q 217 656 217 692 l 217 544 q 397 681 264 681 z "},"s":{"ha":649,"x_min":43,"x_max":606,"o":"m 325 -12 q 120 39 197 -12 q 43 146 43 90 q 97 197 43 197 q 135 180 121 197 q 161 138 150 163 q 188 88 172 113 q 239 45 204 63 q 325 28 274 28 q 439 60 394 28 q 483 150 483 93 q 440 236 483 206 q 333 280 396 267 q 208 310 271 293 q 102 371 146 326 q 58 490 58 415 q 132 626 58 571 q 319 681 206 681 q 515 629 440 681 q 590 517 590 578 q 576 482 590 496 q 540 468 561 468 q 497 494 515 468 q 467 553 479 521 q 419 611 456 585 q 325 638 383 638 q 223 603 264 638 q 182 517 182 568 q 226 433 182 463 q 332 389 269 403 q 456 358 394 375 q 562 297 518 342 q 606 175 606 251 q 528 41 606 94 q 325 -12 451 -12 z "},"t":{"ha":494,"x_min":10,"x_max":479,"o":"m 301 -14 q 170 40 218 -14 q 122 196 122 93 l 122 611 l 31 611 q 10 632 10 611 l 10 646 q 31 667 10 667 l 81 667 q 186 799 175 667 q 210 826 189 826 l 224 826 q 246 799 246 826 l 247 667 l 439 667 q 453 660 447 667 q 460 646 460 654 l 460 632 q 439 611 460 611 l 247 611 l 247 194 q 271 108 247 139 q 335 78 294 78 q 406 101 379 78 q 438 161 433 124 q 462 176 444 178 q 479 156 479 174 q 430 37 479 88 q 301 -14 381 -14 z "},"u":{"ha":785,"x_min":40,"x_max":753,"o":"m 675 119 q 688 67 675 85 q 714 47 700 49 q 740 39 728 44 q 753 21 753 33 q 667 -8 753 -8 q 565 94 561 -8 l 563 103 q 349 -14 499 -14 q 162 69 232 -14 q 92 303 92 151 l 92 549 q 66 600 92 579 q 40 629 40 621 l 40 633 q 61 654 40 650 l 178 675 q 215 658 215 682 l 214 293 q 256 106 214 172 q 378 40 299 40 q 503 99 453 40 q 554 251 554 157 l 554 549 q 527 599 554 578 q 500 629 500 619 l 500 633 q 521 654 500 650 l 639 675 q 675 658 675 682 l 675 119 z "},"v":{"ha":717,"x_min":3,"x_max":718,"o":"m 697 667 q 718 651 718 667 l 718 647 q 688 614 718 635 q 647 569 657 593 l 428 28 q 392 0 417 0 l 349 0 q 311 28 324 0 l 63 569 q 27 614 51 593 q 3 647 3 635 l 3 651 q 24 667 3 667 l 217 667 q 236 650 236 667 l 236 646 q 213 617 236 640 q 199 568 189 594 l 394 88 l 585 556 q 587 593 593 578 q 569 615 581 608 q 547 630 558 622 q 536 646 536 638 l 536 650 q 557 667 536 667 l 697 667 z "},"w":{"ha":1032,"x_min":1,"x_max":1031,"o":"m 1011 667 q 1031 650 1031 667 l 1031 646 q 1005 616 1031 635 q 968 568 979 597 l 774 28 q 739 0 764 0 l 713 0 q 675 28 683 0 l 518 519 l 360 28 q 325 0 351 0 l 307 0 q 269 28 281 0 l 56 568 q 23 615 44 596 q 1 646 1 635 l 1 650 q 22 667 1 667 l 197 667 q 217 650 217 667 l 217 646 q 203 628 217 636 q 179 606 189 619 q 178 567 169 592 l 336 125 l 500 642 q 524 664 506 664 l 569 665 q 593 643 586 665 l 753 119 l 907 558 q 904 601 917 586 q 874 626 892 617 q 857 646 857 636 l 857 650 q 878 667 857 667 l 1011 667 z "},"x":{"ha":697,"x_min":-1,"x_max":683,"o":"m 607 103 q 642 69 621 85 q 673 42 663 53 q 683 21 683 32 l 683 17 q 663 0 683 0 l 468 0 q 447 18 447 0 l 447 21 q 463 41 447 29 q 483 63 478 53 q 468 104 488 74 l 325 285 l 171 101 q 153 67 154 82 q 163 47 153 53 q 182 35 172 42 q 192 21 192 28 l 192 18 q 169 0 192 0 l 19 0 q -1 17 -1 0 l -1 21 q 10 39 -1 31 q 47 65 22 47 q 93 106 72 82 l 288 332 l 107 561 q 66 602 88 586 q 35 626 44 618 q 25 646 25 633 l 25 650 q 44 667 25 667 l 235 667 q 256 650 256 667 l 256 646 q 244 622 256 636 q 229 597 232 607 q 243 560 226 586 l 382 386 l 535 560 q 549 599 553 588 q 529 624 544 610 q 514 646 514 638 l 514 650 q 535 667 514 667 l 658 667 q 679 650 679 667 l 679 646 q 672 626 679 635 q 644 599 664 617 q 606 561 624 582 l 417 342 l 607 103 z "},"y":{"ha":725,"x_min":-26,"x_max":724,"o":"m 704 667 q 724 650 724 667 l 724 646 q 699 613 724 633 q 661 560 675 592 l 399 -19 q 364 -97 375 -74 q 326 -167 353 -119 q 276 -235 299 -214 q 219 -276 254 -257 q 144 -294 183 -294 q 22 -255 71 -294 q -26 -171 -26 -215 q -12 -131 -26 -146 q 26 -115 1 -115 q 67 -135 50 -115 q 91 -181 83 -156 q 117 -226 99 -206 q 165 -246 136 -246 q 335 -26 247 -246 l 68 561 q 27 613 53 592 q 1 646 1 633 l 1 650 q 22 667 1 667 l 203 667 q 222 650 222 667 l 222 646 q 210 624 222 636 q 193 602 199 613 q 199 560 188 592 l 399 89 l 597 549 q 601 590 608 574 q 582 613 594 606 q 557 629 569 621 q 544 646 544 638 l 544 650 q 565 667 544 667 l 704 667 z "},"z":{"ha":661,"x_min":35,"x_max":653,"o":"m 626 182 q 643 153 653 182 l 606 29 q 572 0 596 0 l 63 0 q 43 8 51 0 q 35 25 35 15 l 35 33 q 53 71 35 42 l 465 625 l 208 625 q 163 604 185 625 q 129 558 142 583 q 101 511 117 532 q 69 490 85 490 l 64 490 q 47 524 36 490 l 82 636 q 118 667 93 667 l 574 667 q 591 660 583 667 q 599 642 599 653 l 599 629 q 576 589 599 618 l 165 42 l 467 42 q 518 64 494 42 q 556 112 542 86 q 587 160 569 138 q 619 182 604 182 l 626 182 z "},"{":{"ha":408,"x_min":21,"x_max":399,"o":"m 363 -76 q 386 -90 379 -76 q 387 -118 393 -104 q 364 -132 381 -132 q 199 -76 261 -132 q 136 94 136 -19 l 136 267 q 113 390 136 350 q 57 429 90 429 q 29 447 38 429 q 28 481 21 464 q 57 499 36 499 q 113 536 90 499 q 136 650 136 574 l 136 853 q 200 1019 136 963 q 368 1074 264 1075 q 391 1060 383 1074 q 392 1033 399 1047 q 368 1019 386 1019 q 283 978 314 1019 q 250 857 251 936 l 249 656 q 144 463 249 494 q 247 260 249 433 l 247 89 q 363 -76 246 -76 z "},"|":{"ha":315,"x_min":115,"x_max":200,"o":"m 129 -125 q 115 -104 115 -125 l 115 967 q 131 988 115 985 l 183 986 q 200 967 200 986 l 200 -104 q 196 -120 200 -114 q 185 -125 192 -126 l 129 -125 z "},"}":{"ha":410,"x_min":13,"x_max":389,"o":"m 354 499 q 381 481 374 499 q 381 447 389 464 q 354 429 372 429 q 297 390 321 429 q 274 267 274 350 l 274 94 q 211 -76 274 -19 q 46 -132 149 -132 q 24 -118 31 -132 q 25 -90 18 -104 q 49 -76 32 -76 q 164 89 164 -76 l 163 260 q 194 408 161 361 q 268 463 228 454 q 194 517 228 472 q 161 656 161 563 l 161 857 q 128 978 160 936 q 43 1019 97 1019 q 19 1033 25 1019 q 20 1060 13 1047 q 43 1074 28 1074 q 210 1019 146 1075 q 274 853 274 963 l 274 650 q 298 536 275 574 q 354 499 321 499 z "},"~":{"ha":833,"x_min":101,"x_max":738,"o":"m 267 521 q 422 474 329 521 q 563 426 515 426 q 626 442 597 426 q 668 489 656 458 q 694 507 679 507 l 718 507 q 733 485 738 507 q 672 375 721 415 q 558 335 622 335 q 396 382 483 335 q 267 429 308 429 q 169 364 203 429 q 135 343 158 343 l 119 343 q 106 367 101 343 q 158 474 117 428 q 267 521 199 521 z "},"¡":{"ha":308,"x_min":67,"x_max":242,"o":"m 217 490 q 204 479 217 490 q 154 468 192 468 q 92 490 117 468 q 67 550 67 511 q 92 613 67 590 q 154 635 117 635 q 217 613 192 635 q 242 550 242 590 q 217 490 242 511 m 224 -243 q 190 -290 224 -276 q 123 -288 157 -303 q 89 -242 89 -274 q 125 368 93 75 q 153 386 128 386 q 181 368 178 386 q 224 -243 215 114 z "},"¢":{"ha":731,"x_min":54,"x_max":690,"o":"m 640 372 q 669 383 649 388 q 686 360 690 379 q 604 207 669 276 q 421 131 539 138 l 421 22 q 404 -1 421 -1 l 383 -1 q 365 22 365 -1 l 365 132 q 145 251 236 146 q 54 499 54 357 q 143 752 54 653 q 365 863 232 851 l 365 974 q 382 994 365 994 l 406 994 q 421 974 421 994 l 421 863 q 593 802 519 856 q 667 692 667 749 q 651 654 667 669 q 611 639 636 639 q 564 661 585 639 q 530 711 543 683 q 488 768 517 739 q 421 807 460 797 l 421 225 q 442 224 428 224 q 640 372 574 224 m 179 560 q 231 351 179 438 q 365 236 282 265 l 365 813 q 235 736 290 810 q 179 560 179 663 z "},"£":{"ha":910,"x_min":54,"x_max":869,"o":"m 818 199 q 849 213 828 217 q 865 185 869 208 q 773 39 843 96 q 581 -18 703 -18 q 347 65 482 -18 q 190 -14 285 -14 q 102 15 133 -14 q 71 90 71 44 q 106 163 71 135 q 197 192 140 192 q 306 171 247 192 q 311 235 311 197 q 260 424 311 321 l 75 424 q 54 438 54 424 l 54 472 q 75 485 54 485 l 228 485 q 167 700 167 601 q 258 921 167 838 q 514 1004 350 1004 q 724 950 633 1004 q 815 831 815 896 q 799 788 815 806 q 756 769 783 769 q 711 788 731 769 q 676 832 692 806 q 641 885 661 858 q 583 929 621 911 q 493 947 546 947 q 344 881 396 947 q 292 711 292 814 q 344 485 292 606 l 610 485 q 631 471 631 485 l 631 438 q 610 424 631 424 l 368 424 q 404 239 404 328 q 386 138 404 186 q 600 76 517 76 q 737 112 676 76 q 818 199 797 147 m 188 36 q 283 104 250 36 q 189 135 229 135 q 142 122 158 135 q 125 86 125 108 q 142 50 125 64 q 188 36 160 36 z "},"¤":{"ha":860,"x_min":72,"x_max":789,"o":"m 679 301 l 772 210 q 774 182 788 194 l 753 161 q 724 163 742 151 l 632 258 q 425 194 544 194 q 228 256 308 194 l 136 163 q 110 161 122 151 l 88 182 q 90 210 72 194 l 179 300 q 113 481 113 375 q 178 658 113 582 l 90 747 q 82 761 83 753 q 88 774 81 769 l 110 794 q 136 793 122 807 l 226 703 q 425 765 311 765 q 633 701 547 765 l 724 793 q 753 794 740 807 l 774 774 q 772 747 789 764 l 681 657 q 747 481 747 582 q 679 301 747 381 m 428 267 q 585 329 524 267 q 646 481 646 392 q 585 630 646 568 q 428 692 524 692 q 274 630 333 692 q 215 481 215 568 q 274 329 215 392 q 428 267 333 267 z "},"¥":{"ha":978,"x_min":33,"x_max":931,"o":"m 904 986 q 931 971 931 986 l 931 967 q 903 936 931 954 q 858 889 875 918 l 586 443 l 847 443 q 867 429 867 443 l 867 406 q 847 392 867 392 l 558 392 l 558 304 l 822 304 q 843 290 843 304 l 843 267 q 822 253 843 253 l 558 253 l 558 97 q 572 63 558 76 q 598 39 585 49 q 611 19 611 29 l 611 17 q 583 0 611 0 l 410 0 q 382 17 382 0 l 382 19 q 407 49 382 29 q 432 97 432 69 l 432 253 l 182 253 q 163 267 163 253 l 163 290 q 182 304 163 304 l 432 304 l 432 390 l 431 392 l 157 392 q 138 406 138 392 l 138 429 q 157 443 138 443 l 397 443 l 110 889 q 64 934 94 914 q 33 967 33 954 l 33 969 q 61 986 33 986 l 263 986 q 292 969 292 986 l 292 967 q 274 945 292 957 q 247 924 257 933 q 249 889 238 914 l 519 443 l 790 889 q 790 924 803 911 q 760 947 778 938 q 742 967 742 957 l 742 969 q 768 986 742 986 l 904 986 z "},"¦":{"ha":315,"x_min":115,"x_max":200,"o":"m 129 485 q 115 504 115 485 l 115 965 q 131 986 115 983 l 183 986 q 200 965 200 986 l 200 504 q 196 490 200 496 q 185 485 192 483 l 129 485 m 129 -125 q 115 -104 115 -125 l 115 329 q 131 350 115 350 l 183 350 q 200 329 200 350 l 200 -104 q 196 -120 200 -114 q 185 -125 192 -126 l 129 -125 z "},"§":{"ha":850,"x_min":46,"x_max":792,"o":"m 689 211 q 781 31 781 149 q 685 -135 781 -64 q 443 -206 590 -206 q 153 -127 260 -206 q 46 35 46 -49 q 106 93 46 93 q 148 68 129 93 q 187 7 167 43 q 236 -65 207 -29 q 322 -126 265 -101 q 458 -151 379 -151 q 602 -108 546 -151 q 658 -4 658 -64 q 626 86 658 50 q 542 140 594 122 q 428 172 490 158 q 304 203 367 186 q 190 246 242 221 q 108 319 139 271 q 76 439 76 368 q 181 635 76 571 q 93 810 93 697 q 186 990 93 924 q 419 1057 279 1057 q 683 984 583 1057 q 783 828 783 911 q 768 785 783 801 q 724 769 753 769 q 681 787 700 769 q 651 829 663 804 q 621 885 640 854 q 579 940 601 915 q 515 983 557 965 q 415 1000 472 1000 q 274 956 333 1000 q 214 842 214 911 q 246 749 214 786 q 328 694 278 713 q 441 660 379 675 q 565 628 503 646 q 677 585 626 611 q 760 509 728 558 q 792 388 792 460 q 689 211 792 285 m 196 483 q 222 399 196 433 q 294 344 247 364 q 390 311 342 324 q 505 283 439 299 q 613 250 571 267 q 675 363 675 306 q 649 441 675 408 q 576 493 624 474 q 478 526 528 513 q 363 558 429 540 q 254 593 297 575 q 196 483 196 550 z "},"¨":{"ha":833,"x_min":171,"x_max":607,"o":"m 257 801 q 194 824 218 801 q 171 882 171 846 q 194 940 171 918 q 257 963 218 963 q 317 940 294 963 q 340 882 340 918 q 317 824 340 846 q 257 801 294 801 m 522 801 q 460 824 483 801 q 436 882 436 846 q 460 940 436 918 q 522 963 483 963 q 583 940 558 963 q 607 882 607 917 q 583 824 607 847 q 522 801 558 801 z "},"©":{"ha":1219,"x_min":50,"x_max":1169,"o":"m 1006 81 q 924 0 1006 81 q 610 -82 842 -82 q 214 81 378 -82 q 50 476 50 244 q 214 871 50 708 q 610 1033 378 1033 q 1006 870 842 1033 q 1169 476 1169 707 q 1006 81 1169 244 m 610 -19 q 950 126 808 -19 q 1092 476 1092 272 q 950 825 1092 679 q 610 971 808 971 q 269 825 411 971 q 128 476 128 679 q 269 126 128 272 q 610 -19 410 -19 m 618 167 q 393 262 486 167 q 300 483 300 357 q 389 706 300 619 q 618 792 478 793 q 803 737 724 790 q 882 621 882 683 q 868 590 882 603 q 832 576 854 576 q 790 594 808 576 q 756 636 771 611 q 723 687 740 661 q 675 730 706 713 q 603 747 644 747 q 469 684 518 747 q 419 524 419 621 q 484 335 419 408 q 661 261 549 261 q 842 383 785 261 q 867 390 849 397 q 885 364 886 383 q 801 224 871 281 q 618 167 732 167 z "},"ª":{"ha":579,"x_min":58,"x_max":539,"o":"m 485 606 q 497 574 488 585 q 515 561 506 563 q 532 555 525 560 q 539 538 539 550 q 463 508 539 508 q 413 521 429 508 q 396 572 397 533 q 247 503 353 503 q 110 544 163 503 q 58 654 58 586 q 110 764 58 724 q 249 804 163 804 q 371 765 326 804 l 368 789 q 332 918 360 879 q 246 957 304 957 q 192 941 213 957 q 164 905 171 925 q 143 869 157 885 q 107 853 129 853 q 65 893 65 853 q 118 969 65 938 q 246 1000 171 1000 q 396 947 338 1000 q 465 792 454 894 l 485 606 m 276 544 q 351 571 319 544 q 382 636 383 597 l 378 689 q 339 740 369 719 q 267 761 308 761 q 190 735 219 761 q 161 663 161 710 q 192 578 161 611 q 276 544 224 544 z "},"«":{"ha":714,"x_min":47,"x_max":653,"o":"m 292 669 q 322 677 300 683 q 339 656 343 671 q 146 397 296 508 q 332 164 285 282 q 324 150 333 157 q 299 143 314 143 q 274 156 285 143 q 60 364 185 263 q 48 401 47 374 q 60 438 49 429 q 292 669 210 544 m 649 656 q 456 397 603 506 q 642 164 594 282 q 633 150 643 157 q 609 143 624 143 q 583 156 594 143 q 369 364 494 263 q 358 401 357 374 q 369 438 358 429 q 601 669 519 544 q 631 677 610 683 q 649 656 653 671 z "},"®":{"ha":1219,"x_min":50,"x_max":1169,"o":"m 214 871 q 296 952 214 871 q 610 1033 378 1033 q 1006 870 842 1033 q 1169 476 1169 707 q 1006 80 1169 244 q 610 -85 842 -85 q 214 80 378 -85 q 50 476 50 244 q 214 871 50 708 m 610 -18 q 950 128 808 -18 q 1092 476 1092 274 q 950 825 1092 679 q 610 971 808 971 q 269 825 411 971 q 128 476 128 679 q 269 127 128 272 q 610 -18 410 -18 m 838 267 q 854 246 846 254 q 867 235 863 238 q 876 228 872 232 q 879 218 879 224 l 879 211 q 861 197 879 197 l 719 197 q 703 210 703 197 l 703 218 q 718 235 703 224 q 722 267 733 246 l 624 432 l 522 429 l 522 265 q 540 238 522 250 q 558 219 558 225 l 558 210 q 540 197 558 197 l 396 197 q 379 210 379 197 l 379 219 q 397 238 379 225 q 414 265 414 250 l 414 732 q 397 760 414 749 q 379 781 379 772 l 379 785 q 396 796 379 796 l 589 796 q 791 748 717 796 q 867 614 865 700 q 829 514 868 560 q 722 446 790 468 l 838 267 m 556 474 l 615 474 q 711 510 675 474 q 747 603 747 546 q 710 712 747 671 q 608 753 672 753 l 549 753 q 522 724 522 753 l 522 507 q 556 474 522 474 z "},"¯":{"ha":833,"x_min":211,"x_max":625,"o":"m 236 840 q 211 861 211 840 l 211 900 q 236 921 211 921 l 600 921 q 625 900 625 921 l 625 861 q 600 840 625 840 l 236 840 z "},"°":{"ha":557,"x_min":47,"x_max":510,"o":"m 276 539 q 111 606 175 539 q 47 767 47 672 q 112 930 47 863 q 278 997 176 997 q 444 931 379 997 q 510 771 510 865 q 444 606 510 674 q 276 539 379 539 m 176 636 q 195 610 176 636 q 278 583 215 583 q 380 636 340 583 q 419 769 419 689 q 380 901 419 850 q 278 953 340 953 q 176 901 215 953 q 136 769 136 850 q 176 636 136 689 z "},"±":{"ha":833,"x_min":132,"x_max":701,"o":"m 390 183 q 375 204 375 183 l 375 426 l 154 426 q 132 442 135 426 l 133 492 q 154 507 133 507 l 375 507 l 375 729 q 390 751 375 749 l 443 750 q 458 729 458 750 l 458 507 l 681 507 q 701 493 701 507 l 701 442 q 681 426 701 426 l 460 426 l 460 204 q 455 188 460 194 q 443 183 450 182 l 390 183 m 154 0 q 133 14 133 0 l 133 65 q 154 79 133 79 l 681 79 q 701 65 701 79 l 701 14 q 681 0 701 0 l 154 0 z "},"´":{"ha":578,"x_min":101,"x_max":451,"o":"m 146 771 q 110 779 122 761 q 118 813 101 799 l 363 988 q 413 978 394 1011 l 435 933 q 415 889 451 903 l 146 771 z "},"¶":{"ha":885,"x_min":39,"x_max":814,"o":"m 463 -271 q 333 -248 393 -271 q 238 -190 274 -225 q 183 -117 203 -154 q 163 -49 163 -79 q 179 0 163 -18 q 224 18 196 18 q 282 -19 260 18 q 316 -99 304 -56 q 368 -180 328 -143 q 476 -217 408 -217 q 643 32 643 -217 l 643 925 l 514 925 l 514 358 q 489 333 514 333 l 358 332 q 131 424 222 331 q 39 667 39 518 q 131 897 39 808 q 358 986 222 986 l 785 986 q 814 967 814 986 l 814 964 q 785 933 814 950 q 756 883 756 915 l 754 83 q 673 -180 754 -90 q 463 -271 592 -269 z "},"·":{"ha":318,"x_min":69,"x_max":249,"o":"m 224 474 q 211 464 224 474 q 160 453 199 453 q 95 474 121 453 q 69 536 69 496 q 95 599 69 578 q 160 621 121 621 q 224 599 199 621 q 249 536 249 576 q 224 474 249 496 z "},"¸":{"ha":833,"x_min":315,"x_max":610,"o":"m 460 -78 q 566 -104 522 -78 q 610 -179 610 -131 q 564 -255 610 -226 q 451 -283 518 -283 q 338 -256 388 -283 q 325 -218 315 -244 q 349 -207 332 -197 q 433 -231 386 -231 q 492 -217 468 -231 q 514 -175 515 -203 q 426 -124 513 -124 q 394 -82 386 -124 l 410 0 l 464 0 l 460 -78 z "},"º":{"ha":594,"x_min":44,"x_max":549,"o":"m 304 506 q 119 577 193 506 q 44 757 44 649 q 115 931 44 863 q 297 1000 186 1000 q 475 926 401 1000 q 549 746 549 853 q 478 574 549 642 q 304 506 407 506 m 311 547 q 408 597 371 547 q 444 726 444 647 q 398 891 444 824 q 282 958 351 958 q 182 909 218 958 q 146 786 146 860 q 193 616 146 685 q 311 547 240 547 z "},"»":{"ha":715,"x_min":63,"x_max":668,"o":"m 346 438 q 357 401 357 429 q 346 364 357 374 q 132 156 221 263 q 106 143 121 143 q 82 150 92 143 q 74 164 72 157 q 258 397 121 282 q 67 656 110 508 q 84 677 63 671 q 114 669 106 683 q 346 438 196 544 m 657 438 q 668 401 668 429 q 657 364 668 374 q 443 156 526 260 q 417 143 432 143 q 393 150 403 143 q 385 164 383 157 q 569 397 429 281 q 378 656 421 508 q 395 677 374 671 q 425 669 417 683 q 657 438 504 546 z "},"¼":{"ha":960,"x_min":46,"x_max":919,"o":"m 260 490 q 236 478 260 478 l 94 478 q 71 490 71 478 l 71 496 q 95 516 71 501 q 119 556 119 531 l 119 865 q 101 901 119 894 q 65 902 82 907 q 46 914 49 897 l 46 917 q 65 939 46 932 l 218 993 q 243 982 243 1003 l 243 978 q 226 952 243 972 q 210 900 210 932 l 210 556 q 235 516 210 531 q 260 496 260 501 l 260 490 m 774 786 q 772 758 789 775 l 226 207 q 194 206 213 190 l 171 228 q 168 254 156 242 l 718 808 q 749 811 733 821 l 774 786 m 904 176 q 919 164 919 176 l 919 143 q 904 131 919 131 l 828 131 l 828 72 q 850 35 828 49 q 872 14 872 22 l 872 11 q 854 -1 872 -1 l 722 -1 q 703 11 703 -1 l 703 14 q 724 35 703 22 q 746 72 746 49 l 746 131 l 501 131 q 478 150 478 131 l 478 157 q 488 188 478 176 l 729 510 q 768 533 746 533 l 814 533 q 828 515 828 533 l 828 176 l 904 176 m 536 176 l 746 176 l 746 463 l 536 176 z "},"½":{"ha":1011,"x_min":46,"x_max":976,"o":"m 251 490 q 229 478 251 478 l 96 478 q 72 490 72 478 l 72 496 q 94 516 72 501 q 115 556 115 531 l 115 868 q 97 901 115 896 q 64 902 79 907 q 46 914 49 897 l 46 917 q 67 939 46 933 l 214 993 q 239 982 239 1001 l 239 978 q 222 952 239 971 q 206 903 206 933 l 206 556 q 228 516 206 531 q 251 496 251 501 l 251 490 m 769 786 q 769 758 785 775 l 222 207 q 190 206 210 189 l 167 228 q 164 254 151 242 l 714 808 q 744 811 731 822 l 769 786 m 960 143 q 972 128 976 143 l 940 17 q 922 1 935 1 l 563 1 q 549 15 549 1 l 549 21 q 579 108 549 67 q 653 179 610 149 q 742 239 697 210 q 817 303 786 268 q 847 376 847 339 q 822 444 847 419 q 754 468 796 468 q 694 447 718 468 q 660 402 669 426 q 635 357 650 378 q 603 336 621 336 q 564 379 564 336 q 622 467 564 426 q 756 508 679 508 q 886 470 838 508 q 935 371 935 432 q 892 272 935 318 q 797 199 850 226 q 689 135 744 172 q 615 63 633 97 l 863 63 q 900 83 885 63 q 926 123 915 103 q 949 143 938 143 l 960 143 z "},"¾":{"ha":1000,"x_min":39,"x_max":953,"o":"m 393 733 q 419 716 393 733 q 444 635 444 699 q 390 527 444 571 q 247 483 335 483 q 97 526 154 483 q 39 611 39 568 q 72 649 39 649 q 106 628 90 649 q 132 584 121 608 q 172 540 143 560 q 244 519 201 519 q 326 549 293 519 q 360 622 360 579 q 324 706 360 675 q 226 736 288 736 l 217 736 q 198 748 203 736 q 203 774 193 760 l 326 921 l 86 921 q 67 938 67 921 l 67 971 q 86 986 67 986 l 424 986 q 439 974 439 986 l 439 968 q 428 947 439 958 l 258 772 q 393 733 342 768 m 869 786 q 869 758 883 774 l 322 207 q 290 206 308 190 l 265 228 q 264 254 251 242 l 813 808 q 843 811 831 821 l 869 786 m 938 176 q 953 164 953 176 l 953 143 q 938 131 953 131 l 861 131 l 861 72 q 883 35 861 49 q 906 14 906 22 l 906 11 q 888 -1 906 -1 l 756 -1 q 736 11 736 -1 l 736 14 q 758 35 736 22 q 779 72 779 49 l 779 131 l 535 131 q 510 150 510 131 l 510 157 q 521 188 510 175 l 761 510 q 800 533 781 533 l 846 533 q 861 515 861 533 l 861 176 l 938 176 m 569 176 l 779 176 l 779 463 l 569 176 z "},"¿":{"ha":700,"x_min":40,"x_max":668,"o":"m 443 552 q 431 541 443 552 q 382 531 418 531 q 322 552 346 531 q 297 610 297 574 q 322 671 297 649 q 382 693 346 693 q 443 671 418 693 q 468 610 468 649 q 443 552 468 574 m 346 -317 q 126 -251 211 -317 q 40 -61 40 -186 q 72 60 40 6 q 147 153 103 115 q 236 228 192 192 q 312 313 281 265 q 343 417 343 361 q 364 440 343 433 q 407 441 385 447 q 433 417 429 435 q 414 299 439 353 q 348 206 389 244 q 265 128 307 167 q 194 39 224 90 q 164 -74 164 -12 q 217 -210 164 -160 q 342 -260 269 -260 q 452 -223 408 -260 q 512 -142 496 -186 q 551 -62 528 -99 q 604 -25 574 -25 q 651 -41 633 -25 q 668 -87 668 -57 q 575 -239 668 -161 q 346 -317 482 -317 z "},"À":{"ha":929,"x_min":8,"x_max":929,"o":"m 272 1154 q 246 1194 236 1161 l 260 1242 q 307 1261 271 1278 l 579 1136 q 593 1104 600 1125 q 560 1089 586 1086 l 272 1154 m 863 97 q 902 51 875 69 q 929 19 929 32 l 929 17 q 903 0 929 0 l 707 0 q 681 17 681 0 l 681 19 q 690 36 681 28 q 710 50 700 44 q 728 68 721 56 q 728 97 735 81 l 661 261 l 211 261 l 150 97 q 149 68 143 81 q 166 50 156 56 q 187 36 176 44 q 197 19 197 28 l 197 17 q 168 0 197 0 l 36 0 q 8 17 8 0 l 8 19 q 35 49 8 31 q 74 97 63 68 l 382 885 q 365 934 392 908 q 339 967 339 960 l 339 971 q 358 986 339 986 l 439 986 q 504 940 485 986 l 863 97 m 235 321 l 638 321 l 429 836 l 235 321 z "},"Á":{"ha":929,"x_min":8,"x_max":929,"o":"m 326 1086 q 293 1103 300 1083 q 307 1133 286 1122 l 583 1256 q 631 1235 617 1272 l 642 1188 q 640 1161 647 1172 q 614 1149 632 1150 l 326 1086 m 863 97 q 902 51 875 69 q 929 19 929 32 l 929 17 q 903 0 929 0 l 707 0 q 681 17 681 0 l 681 19 q 690 36 681 28 q 710 50 700 44 q 728 68 721 56 q 728 97 735 81 l 661 261 l 211 261 l 150 97 q 149 68 143 81 q 166 50 156 56 q 187 36 176 44 q 197 19 197 28 l 197 17 q 168 0 197 0 l 36 0 q 8 17 8 0 l 8 19 q 35 49 8 31 q 74 97 63 68 l 382 885 q 365 934 392 908 q 339 967 339 960 l 339 971 q 358 986 339 986 l 439 986 q 504 940 485 986 l 863 97 m 235 321 l 638 321 l 429 836 l 235 321 z "},"Â":{"ha":929,"x_min":8,"x_max":929,"o":"m 274 1063 q 238 1066 254 1050 q 242 1101 222 1082 l 394 1242 q 438 1261 415 1261 l 463 1261 q 506 1242 482 1261 l 664 1101 q 672 1065 685 1082 q 632 1063 658 1047 l 447 1169 l 274 1063 m 863 97 q 902 51 875 69 q 929 19 929 32 l 929 17 q 903 0 929 0 l 707 0 q 681 17 681 0 l 681 19 q 690 36 681 28 q 710 50 700 44 q 728 68 721 56 q 728 97 735 81 l 661 261 l 211 261 l 150 97 q 149 68 143 81 q 166 50 156 56 q 187 36 176 44 q 197 19 197 28 l 197 17 q 168 0 197 0 l 36 0 q 8 17 8 0 l 8 19 q 35 49 8 31 q 74 97 63 68 l 382 885 q 365 934 392 908 q 339 967 339 960 l 339 971 q 358 986 339 986 l 439 986 q 504 940 485 986 l 863 97 m 235 321 l 638 321 l 429 836 l 235 321 z "},"Ã":{"ha":929,"x_min":8,"x_max":929,"o":"m 236 1086 q 222 1110 218 1086 q 267 1205 233 1168 q 357 1242 301 1242 q 474 1202 404 1242 q 569 1163 543 1163 q 640 1210 618 1163 q 663 1228 647 1228 l 672 1228 q 686 1204 693 1228 q 554 1075 654 1075 q 441 1115 510 1075 q 342 1156 372 1156 q 271 1107 294 1156 q 249 1086 261 1086 l 236 1086 m 863 97 q 902 51 875 69 q 929 19 929 32 l 929 17 q 903 0 929 0 l 707 0 q 681 17 681 0 l 681 19 q 690 36 681 28 q 710 50 700 44 q 728 68 721 56 q 728 97 735 81 l 661 261 l 211 261 l 150 97 q 149 68 143 81 q 166 50 156 56 q 187 36 176 44 q 197 19 197 28 l 197 17 q 168 0 197 0 l 36 0 q 8 17 8 0 l 8 19 q 35 49 8 31 q 74 97 63 68 l 382 885 q 365 934 392 908 q 339 967 339 960 l 339 971 q 358 986 339 986 l 439 986 q 504 940 485 986 l 863 97 m 235 321 l 638 321 l 429 836 l 235 321 z "},"Ä":{"ha":929,"x_min":8,"x_max":929,"o":"m 383 1121 q 371 1110 383 1121 q 322 1099 360 1099 q 260 1122 285 1099 q 236 1179 236 1144 q 260 1237 236 1214 q 322 1260 285 1260 q 383 1238 360 1260 q 406 1179 406 1215 q 383 1121 406 1143 m 588 1099 q 526 1121 549 1099 q 503 1179 503 1143 q 526 1238 503 1215 q 588 1260 549 1260 q 648 1237 624 1260 q 672 1179 672 1214 q 648 1122 672 1144 q 588 1099 624 1099 m 863 97 q 902 51 875 69 q 929 19 929 32 l 929 17 q 903 0 929 0 l 707 0 q 681 17 681 0 l 681 19 q 690 36 681 28 q 710 50 700 44 q 728 68 721 56 q 728 97 735 81 l 661 261 l 211 261 l 150 97 q 149 68 143 81 q 166 50 156 56 q 187 36 176 44 q 197 19 197 28 l 197 17 q 168 0 197 0 l 36 0 q 8 17 8 0 l 8 19 q 35 49 8 31 q 74 97 63 68 l 382 885 q 365 934 392 908 q 339 967 339 960 l 339 971 q 358 986 339 986 l 439 986 q 504 940 485 986 l 863 97 m 235 321 l 638 321 l 429 836 l 235 321 z "},"Å":{"ha":929,"x_min":8,"x_max":929,"o":"m 451 1053 q 336 1092 382 1053 q 290 1190 290 1132 q 335 1292 290 1251 q 453 1332 381 1332 q 569 1292 522 1332 q 615 1194 615 1253 q 570 1093 615 1133 q 451 1053 525 1053 m 453 1286 q 392 1261 415 1286 q 369 1193 369 1236 q 392 1124 369 1151 q 453 1096 415 1096 q 513 1122 490 1096 q 536 1193 536 1149 q 513 1260 536 1233 q 453 1286 489 1286 m 863 97 q 902 51 875 69 q 929 19 929 32 l 929 17 q 903 0 929 0 l 707 0 q 681 17 681 0 l 681 19 q 690 36 681 28 q 710 50 700 44 q 728 68 721 56 q 728 97 735 81 l 661 261 l 211 261 l 150 97 q 149 68 143 81 q 166 50 156 56 q 187 36 176 44 q 197 19 197 28 l 197 17 q 168 0 197 0 l 36 0 q 8 17 8 0 l 8 19 q 35 49 8 31 q 74 97 63 68 l 382 885 q 365 934 392 908 q 339 967 339 960 l 339 971 q 358 986 339 986 l 439 986 q 504 940 485 986 l 863 97 m 235 321 l 638 321 l 429 836 l 235 321 z "},"Æ":{"ha":1292,"x_min":-8,"x_max":1271,"o":"m 1249 196 q 1264 172 1271 196 l 1229 32 q 1194 0 1225 0 l 621 0 q 592 17 592 0 l 592 19 q 617 52 592 32 q 643 99 643 72 l 643 263 l 281 263 l 183 97 q 182 63 174 72 q 206 42 190 53 q 221 21 221 31 l 221 18 q 193 0 221 0 l 21 0 q -8 18 -8 0 l -8 21 q -1 36 -8 29 q 18 49 7 43 q 44 67 29 54 q 69 97 58 79 l 532 868 q 539 913 546 899 q 517 941 532 926 q 501 964 501 956 l 501 969 q 526 986 501 986 l 1154 986 q 1190 956 1182 986 l 1222 821 q 1219 801 1225 808 q 1204 794 1214 794 l 1197 794 q 1167 815 1183 794 q 1136 862 1150 836 q 1099 908 1122 888 q 1051 929 1076 929 l 797 929 q 758 881 758 929 l 758 536 l 1019 536 q 1051 549 1038 536 q 1071 576 1064 561 q 1086 604 1078 592 q 1103 617 1094 617 l 1108 617 q 1126 589 1126 617 l 1126 428 q 1108 400 1126 400 l 1103 400 q 1086 412 1094 400 q 1071 438 1078 424 q 1051 465 1064 453 q 1019 476 1038 476 l 758 476 l 758 113 q 772 71 758 86 q 808 56 786 56 l 1093 56 q 1143 78 1119 56 q 1181 126 1167 100 q 1211 174 1194 151 q 1242 196 1228 196 l 1249 196 m 317 324 l 643 324 l 643 882 l 317 324 z "},"Ç":{"ha":942,"x_min":46,"x_max":911,"o":"m 854 328 q 889 344 867 350 q 906 310 911 339 q 785 85 882 179 q 533 -14 688 -8 l 529 -78 q 635 -104 593 -78 q 678 -179 678 -131 q 633 -255 678 -226 q 521 -283 588 -283 q 406 -256 456 -283 q 394 -218 385 -244 q 417 -207 401 -197 q 503 -231 457 -231 q 561 -217 538 -231 q 583 -175 585 -203 q 494 -124 582 -124 q 469 -112 478 -124 q 463 -82 460 -101 l 476 -12 q 174 157 303 6 q 46 503 46 308 q 176 860 46 721 q 507 999 306 999 q 773 912 660 999 q 886 742 886 825 q 870 698 886 714 q 825 682 854 682 q 774 709 797 682 q 729 774 751 736 q 678 849 707 811 q 598 915 650 888 q 475 942 546 942 q 260 838 350 942 q 171 572 171 733 q 284 233 171 368 q 549 97 397 97 q 738 165 661 97 q 854 328 815 233 z "},"È":{"ha":833,"x_min":82,"x_max":808,"o":"m 525 1089 l 238 1154 q 211 1194 201 1161 l 225 1242 q 272 1261 236 1278 l 546 1136 q 558 1104 565 1126 q 525 1089 551 1086 m 111 0 q 82 17 82 0 l 82 19 q 108 49 82 29 q 133 99 133 69 l 133 888 q 121 924 133 910 q 95 948 108 939 q 82 967 82 957 l 82 971 q 107 986 82 986 l 696 986 q 731 956 724 986 l 764 818 q 747 790 769 790 l 740 790 q 709 812 726 790 q 677 860 692 833 q 640 908 663 886 q 592 929 617 929 l 297 929 q 258 882 258 929 l 258 533 l 511 533 q 542 546 529 533 q 560 574 554 558 q 574 603 567 590 q 592 615 582 615 l 597 615 q 615 592 615 615 l 615 421 q 597 397 615 397 l 592 397 q 574 410 582 397 q 560 437 567 422 q 542 464 554 451 q 511 476 529 476 l 258 476 l 257 117 q 270 74 257 92 q 308 57 283 57 l 635 57 q 682 79 660 57 q 717 128 704 101 q 748 178 731 156 q 781 200 765 200 l 789 200 q 803 192 799 200 q 806 172 808 183 l 772 32 q 736 0 765 0 l 111 0 z "},"É":{"ha":833,"x_min":82,"x_max":808,"o":"m 290 1086 q 258 1103 265 1083 q 272 1133 251 1124 l 547 1256 q 594 1235 583 1272 l 607 1188 q 603 1161 611 1172 q 579 1149 596 1150 l 290 1086 m 111 0 q 82 17 82 0 l 82 19 q 108 49 82 29 q 133 99 133 69 l 133 888 q 121 924 133 910 q 95 948 108 939 q 82 967 82 957 l 82 971 q 107 986 82 986 l 696 986 q 731 956 724 986 l 764 818 q 747 790 769 790 l 740 790 q 709 812 726 790 q 677 860 692 833 q 640 908 663 886 q 592 929 617 929 l 297 929 q 258 882 258 929 l 258 533 l 511 533 q 542 546 529 533 q 560 574 554 558 q 574 603 567 590 q 592 615 582 615 l 597 615 q 615 592 615 615 l 615 421 q 597 397 615 397 l 592 397 q 574 410 582 397 q 560 437 567 422 q 542 464 554 451 q 511 476 529 476 l 258 476 l 257 117 q 270 74 257 92 q 308 57 283 57 l 635 57 q 682 79 660 57 q 717 128 704 101 q 748 178 731 156 q 781 200 765 200 l 789 200 q 803 192 799 200 q 806 172 808 183 l 772 32 q 736 0 765 0 l 111 0 z "},"Ê":{"ha":833,"x_min":82,"x_max":808,"o":"m 239 1063 q 203 1066 219 1050 q 208 1101 188 1082 l 361 1242 q 403 1261 381 1261 l 428 1261 q 471 1242 447 1261 l 629 1101 q 637 1065 650 1082 q 597 1063 624 1047 l 413 1169 l 239 1063 m 789 200 q 803 192 799 200 q 806 172 808 183 l 772 32 q 736 0 765 0 l 111 0 q 82 17 82 0 l 82 19 q 108 49 82 29 q 133 99 133 69 l 133 888 q 121 924 133 910 q 95 948 108 939 q 82 967 82 957 l 82 971 q 107 986 82 986 l 696 986 q 731 956 724 986 l 764 818 q 747 790 769 790 l 740 790 q 709 812 726 790 q 677 860 692 833 q 640 908 663 886 q 592 929 617 929 l 297 929 q 258 882 258 929 l 258 533 l 511 533 q 542 546 529 533 q 560 574 554 558 q 574 603 567 590 q 592 615 582 615 l 597 615 q 615 592 615 615 l 615 421 q 597 397 615 397 l 592 397 q 574 410 582 397 q 560 437 567 422 q 542 464 554 451 q 511 476 529 476 l 258 476 l 257 117 q 270 74 257 92 q 308 57 283 57 l 635 57 q 682 79 660 57 q 717 128 704 101 q 748 178 731 156 q 781 200 765 200 l 789 200 z "},"Ë":{"ha":833,"x_min":82,"x_max":808,"o":"m 285 1099 q 222 1121 246 1099 q 199 1179 199 1143 q 222 1238 199 1215 q 285 1260 246 1260 q 345 1238 322 1260 q 368 1179 368 1215 q 345 1121 368 1143 q 285 1099 322 1099 m 549 1099 q 487 1121 510 1099 q 464 1179 464 1143 q 487 1238 464 1215 q 549 1260 510 1260 q 610 1238 586 1260 q 633 1179 633 1215 q 610 1121 633 1143 q 549 1099 586 1099 m 111 0 q 82 17 82 0 l 82 19 q 108 49 82 29 q 133 99 133 69 l 133 888 q 121 924 133 910 q 95 948 108 939 q 82 967 82 957 l 82 971 q 107 986 82 986 l 696 986 q 731 956 724 986 l 764 818 q 747 790 769 790 l 740 790 q 709 812 726 790 q 677 860 692 833 q 640 908 663 886 q 592 929 617 929 l 297 929 q 258 882 258 929 l 258 533 l 511 533 q 542 546 529 533 q 560 574 554 558 q 574 603 567 590 q 592 615 582 615 l 597 615 q 615 592 615 615 l 615 421 q 597 397 615 397 l 592 397 q 574 410 582 397 q 560 437 567 422 q 542 464 554 451 q 511 476 529 476 l 258 476 l 257 117 q 270 74 257 92 q 308 57 283 57 l 635 57 q 682 79 660 57 q 717 128 704 101 q 748 178 731 156 q 781 200 765 200 l 789 200 q 803 192 799 200 q 806 172 808 183 l 772 32 q 736 0 765 0 l 111 0 z "},"Ì":{"ha":394,"x_min":-24,"x_max":342,"o":"m 301 1089 l 14 1154 q -14 1194 -24 1161 l 0 1242 q 47 1261 11 1278 l 321 1136 q 335 1104 342 1125 q 301 1089 328 1086 m 83 17 l 83 19 q 108 49 83 29 q 133 96 133 68 l 133 889 q 108 937 133 917 q 83 967 83 957 l 83 969 q 111 986 83 986 l 285 986 q 313 969 313 986 l 313 967 q 299 947 313 957 q 273 924 286 938 q 260 889 260 910 l 260 96 q 286 49 260 68 q 313 19 313 29 l 313 17 q 285 0 313 0 l 111 0 q 83 17 83 0 z "},"Í":{"ha":394,"x_min":28,"x_max":388,"o":"m 67 1086 q 35 1103 42 1083 q 49 1133 28 1124 l 324 1256 q 371 1235 360 1272 l 383 1188 q 380 1161 388 1172 q 356 1149 372 1150 l 67 1086 m 83 17 l 83 19 q 108 49 83 29 q 133 96 133 68 l 133 889 q 108 937 133 917 q 83 967 83 957 l 83 969 q 111 986 83 986 l 285 986 q 313 969 313 986 l 313 967 q 299 947 313 957 q 273 924 286 938 q 260 889 260 910 l 260 96 q 286 49 260 68 q 313 19 313 29 l 313 17 q 285 0 313 0 l 111 0 q 83 17 83 0 z "},"Î":{"ha":394,"x_min":-37,"x_max":426,"o":"m 406 1101 q 413 1065 426 1082 q 372 1063 399 1047 l 188 1169 l 14 1063 q -22 1066 -6 1050 q -17 1101 -37 1082 l 136 1242 q 178 1261 156 1261 l 204 1261 q 246 1242 224 1261 l 406 1101 m 285 986 q 313 969 313 986 l 313 967 q 299 947 313 957 q 273 924 286 938 q 260 889 260 910 l 260 96 q 286 49 260 68 q 313 19 313 29 l 313 17 q 285 0 313 0 l 111 0 q 83 17 83 0 l 83 19 q 108 49 83 29 q 133 96 133 68 l 133 889 q 108 937 133 917 q 83 967 83 957 l 83 969 q 111 986 83 986 l 285 986 z "},"Ï":{"ha":394,"x_min":-22,"x_max":413,"o":"m 64 1099 q 1 1121 25 1099 q -22 1179 -22 1143 q 1 1238 -22 1215 q 64 1260 25 1260 q 124 1238 101 1260 q 147 1179 147 1215 q 124 1121 147 1143 q 64 1099 101 1099 m 328 1099 q 266 1121 289 1099 q 243 1179 243 1143 q 266 1238 243 1215 q 328 1260 289 1260 q 389 1238 365 1260 q 413 1179 413 1215 q 389 1121 413 1143 q 328 1099 365 1099 m 83 17 l 83 19 q 108 49 83 29 q 133 96 133 68 l 133 889 q 108 937 133 917 q 83 967 83 957 l 83 969 q 111 986 83 986 l 285 986 q 313 969 313 986 l 313 967 q 299 947 313 957 q 273 924 286 938 q 260 889 260 910 l 260 96 q 286 49 260 68 q 313 19 313 29 l 313 17 q 285 0 313 0 l 111 0 q 83 17 83 0 z "},"Ð":{"ha":1035,"x_min":40,"x_max":981,"o":"m 419 986 q 817 851 654 986 q 981 501 981 715 q 835 136 981 272 q 469 0 690 0 l 115 0 q 86 17 86 0 l 86 19 q 112 51 86 31 q 138 97 138 71 l 138 471 l 61 471 q 40 488 40 471 l 40 510 q 61 526 40 526 l 138 526 l 138 889 q 112 937 138 917 q 86 967 86 957 l 86 969 q 115 986 86 986 l 419 986 m 461 57 q 740 165 628 57 q 851 457 851 272 q 716 798 851 667 q 397 929 581 929 l 300 929 q 261 885 261 929 l 261 526 l 454 526 q 475 510 475 526 l 475 489 q 454 471 475 471 l 261 471 l 261 133 q 278 77 261 97 q 326 57 296 57 l 461 57 z "},"Ñ":{"ha":1042,"x_min":81,"x_max":967,"o":"m 324 1086 q 308 1110 304 1086 q 354 1204 319 1167 q 443 1242 389 1242 q 561 1202 492 1242 q 656 1163 631 1163 q 726 1210 706 1163 q 750 1228 736 1228 l 760 1228 q 774 1204 781 1228 q 640 1075 742 1075 q 528 1115 597 1075 q 428 1156 458 1156 q 358 1107 381 1156 q 335 1086 347 1086 l 324 1086 m 939 986 q 967 968 967 986 l 967 965 q 939 936 967 956 q 911 889 911 917 l 911 38 q 876 0 911 0 l 842 0 q 797 36 821 0 l 204 844 l 204 101 q 219 65 204 79 q 249 40 233 50 q 264 19 264 29 l 264 17 q 235 0 264 0 l 108 0 q 81 17 81 0 l 81 19 q 107 51 81 29 q 133 101 133 72 l 133 888 q 120 922 133 908 q 94 944 107 935 q 81 963 81 953 l 81 968 q 108 986 81 986 l 214 986 q 264 958 244 986 l 840 161 l 840 889 q 812 936 840 917 q 783 965 783 956 l 783 968 q 813 986 783 986 l 939 986 z "},"Ò":{"ha":1071,"x_min":53,"x_max":1019,"o":"m 639 1089 l 351 1154 q 325 1194 315 1161 l 339 1242 q 386 1261 350 1278 l 660 1136 q 672 1104 679 1126 q 639 1089 665 1086 m 547 -14 q 193 138 333 -14 q 53 496 53 289 q 189 857 53 714 q 538 1000 325 1000 q 883 850 747 1000 q 1019 488 1019 700 q 883 133 1019 281 q 547 -14 746 -14 m 578 46 q 804 153 714 46 q 894 404 894 260 q 782 785 894 629 q 494 940 669 940 q 267 838 356 940 q 178 581 178 735 q 291 203 178 360 q 578 46 404 46 z "},"Ó":{"ha":1071,"x_min":53,"x_max":1019,"o":"m 404 1086 q 372 1103 379 1083 q 386 1133 365 1124 l 661 1256 q 708 1235 697 1272 l 721 1188 q 717 1161 725 1172 q 693 1149 710 1150 l 404 1086 m 547 -14 q 193 138 333 -14 q 53 496 53 289 q 189 857 53 714 q 538 1000 325 1000 q 883 850 747 1000 q 1019 488 1019 700 q 883 133 1019 281 q 547 -14 746 -14 m 578 46 q 804 153 714 46 q 894 404 894 260 q 782 785 894 629 q 494 940 669 940 q 267 838 356 940 q 178 581 178 735 q 291 203 178 360 q 578 46 404 46 z "},"Ô":{"ha":1071,"x_min":53,"x_max":1019,"o":"m 353 1063 q 317 1066 333 1050 q 322 1101 301 1082 l 475 1242 q 517 1261 494 1261 l 542 1261 q 585 1242 561 1261 l 743 1101 q 751 1065 764 1082 q 711 1063 738 1047 l 526 1169 l 353 1063 m 538 1000 q 883 850 747 1000 q 1019 488 1019 700 q 883 133 1019 281 q 547 -14 746 -14 q 193 138 333 -14 q 53 496 53 289 q 189 857 53 714 q 538 1000 325 1000 m 578 46 q 804 153 714 46 q 894 404 894 260 q 782 785 894 629 q 494 940 669 940 q 267 838 356 940 q 178 581 178 735 q 291 203 178 360 q 578 46 404 46 z "},"Õ":{"ha":1071,"x_min":53,"x_max":1019,"o":"m 442 1242 q 558 1202 489 1242 q 654 1163 628 1163 q 725 1210 703 1163 q 747 1228 732 1228 l 757 1228 q 771 1204 778 1228 q 639 1075 739 1075 q 526 1115 594 1075 q 426 1156 457 1156 q 356 1107 381 1156 q 333 1086 346 1086 l 321 1086 q 307 1110 303 1086 q 352 1205 318 1168 q 442 1242 386 1242 m 547 -14 q 193 138 333 -14 q 53 496 53 289 q 189 857 53 714 q 538 1000 325 1000 q 883 850 747 1000 q 1019 488 1019 700 q 883 133 1019 281 q 547 -14 746 -14 m 578 46 q 804 153 714 46 q 894 404 894 260 q 782 785 894 629 q 494 940 669 940 q 267 838 356 940 q 178 581 178 735 q 291 203 178 360 q 578 46 404 46 z "},"Ö":{"ha":1071,"x_min":53,"x_max":1019,"o":"m 403 1099 q 340 1121 364 1099 q 315 1179 315 1143 q 340 1238 315 1215 q 403 1260 364 1260 q 463 1238 440 1260 q 485 1179 485 1215 q 463 1121 485 1143 q 403 1099 440 1099 m 667 1099 q 605 1121 628 1099 q 582 1179 582 1143 q 605 1238 582 1215 q 667 1260 628 1260 q 727 1237 703 1260 q 751 1179 751 1214 q 727 1122 751 1144 q 667 1099 703 1099 m 547 -14 q 193 138 333 -14 q 53 496 53 289 q 189 857 53 714 q 538 1000 325 1000 q 883 850 747 1000 q 1019 488 1019 700 q 883 133 1019 281 q 547 -14 746 -14 m 578 46 q 804 153 714 46 q 894 404 894 260 q 782 785 894 629 q 494 940 669 940 q 267 838 356 940 q 178 581 178 735 q 291 203 178 360 q 578 46 404 46 z "},"×":{"ha":833,"x_min":189,"x_max":646,"o":"m 233 157 l 199 193 q 203 218 189 203 l 360 375 l 203 533 q 199 558 189 547 l 233 594 q 258 590 244 603 l 417 433 l 575 590 q 600 594 590 606 l 635 558 q 631 533 646 549 l 474 378 l 632 218 q 635 193 646 201 l 600 157 q 575 163 590 147 l 417 318 l 258 163 q 233 157 244 149 z "},"Ø":{"ha":1093,"x_min":49,"x_max":1032,"o":"m 924 817 q 1032 488 1032 678 q 895 133 1032 281 q 560 -14 758 -14 q 207 136 350 -14 l 104 38 q 79 38 89 28 l 58 57 q 64 82 49 67 l 168 182 q 65 496 65 319 q 201 857 65 714 q 550 1000 338 1000 q 885 861 750 1000 l 971 943 q 1000 947 988 960 l 1018 931 q 1014 903 1031 919 l 924 817 m 190 581 q 263 269 190 410 l 799 779 q 507 940 683 940 q 279 838 368 940 q 190 581 190 735 m 590 46 q 817 153 726 46 q 907 404 907 260 q 831 728 907 586 l 293 217 q 590 46 410 46 z "},"Ù":{"ha":999,"x_min":67,"x_max":938,"o":"m 639 1089 l 351 1154 q 324 1194 317 1161 l 338 1242 q 386 1261 349 1279 l 658 1136 q 672 1104 679 1125 q 639 1089 665 1086 m 510 -14 q 226 94 335 -14 q 117 383 117 203 l 117 889 q 92 936 117 917 q 67 965 67 956 l 67 969 q 94 986 67 986 l 269 986 q 297 969 297 986 l 297 965 q 271 936 297 956 q 244 889 244 917 l 244 383 q 324 138 244 229 q 533 46 403 46 q 729 135 649 46 q 810 383 810 225 l 810 889 q 783 936 810 917 q 757 965 757 956 l 757 969 q 786 986 757 986 l 908 986 q 938 969 938 986 l 938 965 q 909 936 938 956 q 881 889 881 917 l 881 382 q 778 94 881 203 q 510 -14 675 -14 z "},"Ú":{"ha":999,"x_min":67,"x_max":938,"o":"m 383 1086 q 350 1103 357 1083 q 364 1133 343 1122 l 640 1256 q 686 1235 675 1272 l 699 1188 q 697 1161 704 1172 q 671 1149 689 1150 l 383 1086 m 510 -14 q 226 94 335 -14 q 117 383 117 203 l 117 889 q 92 936 117 917 q 67 965 67 956 l 67 969 q 94 986 67 986 l 269 986 q 297 969 297 986 l 297 965 q 271 936 297 956 q 244 889 244 917 l 244 383 q 324 138 244 229 q 533 46 403 46 q 729 135 649 46 q 810 383 810 225 l 810 889 q 783 936 810 917 q 757 965 757 956 l 757 969 q 786 986 757 986 l 908 986 q 938 969 938 986 l 938 965 q 909 936 938 956 q 881 889 881 917 l 881 382 q 778 94 881 203 q 510 -14 675 -14 z "},"Û":{"ha":999,"x_min":67,"x_max":938,"o":"m 328 1063 q 292 1066 308 1050 q 297 1101 276 1082 l 450 1242 q 492 1261 469 1261 l 518 1261 q 560 1242 538 1261 l 719 1101 q 726 1065 740 1082 q 688 1063 713 1047 l 501 1169 l 328 1063 m 908 986 q 938 969 938 986 l 938 965 q 909 936 938 956 q 881 889 881 917 l 881 382 q 778 94 881 203 q 510 -14 675 -14 q 226 94 335 -14 q 117 383 117 203 l 117 889 q 92 936 117 917 q 67 965 67 956 l 67 969 q 94 986 67 986 l 269 986 q 297 969 297 986 l 297 965 q 271 936 297 956 q 244 889 244 917 l 244 383 q 324 138 244 229 q 533 46 403 46 q 729 135 649 46 q 810 383 810 225 l 810 889 q 783 936 810 917 q 757 965 757 956 l 757 969 q 786 986 757 986 l 908 986 z "},"Ü":{"ha":999,"x_min":67,"x_max":938,"o":"m 381 1099 q 318 1121 342 1099 q 294 1179 294 1143 q 318 1238 294 1215 q 381 1260 342 1260 q 441 1238 418 1260 q 464 1179 464 1215 q 441 1121 464 1143 q 381 1099 418 1099 m 644 1099 q 583 1121 606 1099 q 560 1179 560 1143 q 583 1238 560 1215 q 644 1260 606 1260 q 706 1238 682 1260 q 729 1179 729 1215 q 706 1121 729 1143 q 644 1099 682 1099 m 510 -14 q 226 94 335 -14 q 117 383 117 203 l 117 889 q 92 936 117 917 q 67 965 67 956 l 67 969 q 94 986 67 986 l 269 986 q 297 969 297 986 l 297 965 q 271 936 297 956 q 244 889 244 917 l 244 383 q 324 138 244 229 q 533 46 403 46 q 729 135 649 46 q 810 383 810 225 l 810 889 q 783 936 810 917 q 757 965 757 956 l 757 969 q 786 986 757 986 l 908 986 q 938 969 938 986 l 938 965 q 909 936 938 956 q 881 889 881 917 l 881 382 q 778 94 881 203 q 510 -14 675 -14 z "},"Ý":{"ha":917,"x_min":6,"x_max":904,"o":"m 347 1086 q 314 1103 321 1083 q 328 1133 307 1124 l 603 1256 q 650 1235 639 1272 l 663 1188 q 659 1161 667 1172 q 635 1149 651 1150 l 347 1086 m 876 986 q 904 971 904 986 l 904 967 q 876 936 904 954 q 831 889 847 918 l 531 399 l 531 97 q 544 63 531 76 q 570 39 557 49 q 583 19 583 29 l 583 17 q 557 0 583 0 l 382 0 q 354 17 354 0 l 354 19 q 379 49 354 29 q 404 97 404 69 l 404 390 l 82 889 q 36 934 67 914 q 6 967 6 954 l 6 969 q 33 986 6 986 l 236 986 q 264 969 264 986 l 264 967 q 247 945 264 957 q 220 924 229 933 q 221 889 211 914 l 492 443 l 763 889 q 763 925 774 915 q 734 946 753 935 q 715 967 715 957 l 715 969 q 740 986 715 986 l 876 986 z "},"Þ":{"ha":864,"x_min":83,"x_max":818,"o":"m 111 0 q 83 18 83 0 l 83 22 q 108 51 83 32 q 133 99 133 71 l 133 888 q 108 937 133 917 q 83 967 83 957 l 83 969 q 111 986 83 986 l 285 986 q 313 969 313 986 l 313 967 q 286 937 313 957 q 260 888 260 917 l 260 822 l 386 822 q 697 743 576 822 q 818 515 818 664 q 708 275 818 360 q 410 190 599 190 l 260 190 l 260 99 q 286 51 260 71 q 313 22 313 32 l 313 18 q 285 0 313 0 l 111 0 m 300 249 l 418 249 q 617 313 543 249 q 690 493 690 376 q 603 694 690 622 q 390 765 515 765 l 300 765 q 260 721 260 765 l 260 289 q 300 249 260 249 z "},"ß":{"ha":781,"x_min":47,"x_max":736,"o":"m 511 546 q 673 451 610 525 q 736 265 736 378 q 650 72 736 143 q 438 0 564 0 q 415 13 421 0 q 414 40 408 26 q 433 54 419 54 q 562 103 511 54 q 613 249 613 151 q 556 438 613 364 q 403 511 500 511 q 382 539 382 511 q 403 567 382 567 q 499 619 456 567 q 542 756 542 672 q 499 920 542 861 q 376 981 456 979 q 263 928 304 981 q 221 794 221 876 l 221 101 q 236 64 221 78 q 267 40 251 50 q 282 19 282 31 l 282 15 q 278 2 282 4 q 261 0 274 0 l 68 0 q 47 15 47 0 l 47 19 q 74 50 47 29 q 100 101 100 71 l 100 751 q 177 949 100 872 q 382 1025 254 1025 q 578 954 499 1025 q 658 769 658 883 q 616 634 658 694 q 511 546 574 574 z "},"à":{"ha":703,"x_min":50,"x_max":700,"o":"m 165 889 q 146 933 132 900 l 169 978 q 219 988 186 1013 l 464 813 q 471 779 482 797 q 435 769 460 761 l 165 889 m 622 111 q 638 66 625 82 q 664 47 650 50 q 689 38 678 43 q 700 21 700 32 q 611 -8 700 -8 q 538 10 561 -8 q 510 83 514 29 q 310 -14 457 -14 q 122 42 193 -14 q 51 196 51 97 q 122 347 50 293 q 306 401 193 401 q 476 346 417 401 l 474 383 q 422 574 461 511 q 303 636 383 636 q 222 611 254 636 q 178 557 190 586 q 150 503 167 528 q 111 478 133 478 q 72 492 86 478 q 57 529 57 506 q 126 634 57 588 q 303 681 194 681 q 505 603 429 681 q 594 388 581 526 l 622 111 m 340 31 q 451 74 408 31 q 492 183 494 118 l 486 246 q 434 326 475 296 q 333 357 393 357 q 218 317 263 357 q 174 213 174 276 q 220 83 174 135 q 340 31 267 31 z "},"á":{"ha":703,"x_min":50,"x_max":700,"o":"m 199 774 q 164 783 175 765 q 171 817 154 800 l 417 992 q 467 982 447 1015 l 489 938 q 469 893 506 906 l 199 774 m 622 111 q 638 66 625 82 q 664 47 650 50 q 689 38 678 43 q 700 21 700 32 q 611 -8 700 -8 q 538 10 561 -8 q 510 83 514 29 q 310 -14 457 -14 q 122 42 193 -14 q 51 196 51 97 q 122 347 50 293 q 306 401 193 401 q 476 346 417 401 l 474 383 q 422 574 461 511 q 303 636 383 636 q 222 611 254 636 q 178 557 190 586 q 150 503 167 528 q 111 478 133 478 q 72 492 86 478 q 57 529 57 506 q 126 634 57 588 q 303 681 194 681 q 505 603 429 681 q 594 388 581 526 l 622 111 m 340 31 q 451 74 408 31 q 492 183 494 118 l 486 246 q 434 326 475 296 q 333 357 393 357 q 218 317 263 357 q 174 213 174 276 q 220 83 174 135 q 340 31 267 31 z "},"â":{"ha":703,"x_min":50,"x_max":700,"o":"m 136 774 q 101 778 117 763 q 104 814 85 794 l 257 954 q 300 972 276 972 l 325 972 q 367 954 347 972 l 526 814 q 534 777 547 794 q 494 774 521 760 l 310 882 l 136 774 m 622 111 q 638 66 625 82 q 664 47 650 50 q 689 38 678 43 q 700 21 700 32 q 611 -8 700 -8 q 538 10 561 -8 q 510 83 514 29 q 310 -14 457 -14 q 122 42 193 -14 q 51 196 51 97 q 122 347 50 293 q 306 401 193 401 q 476 346 417 401 l 474 383 q 422 574 461 511 q 303 636 383 636 q 222 611 254 636 q 178 557 190 586 q 150 503 167 528 q 111 478 133 478 q 72 492 86 478 q 57 529 57 506 q 126 634 57 588 q 303 681 194 681 q 505 603 429 681 q 594 388 581 526 l 622 111 m 340 31 q 451 74 408 31 q 492 183 494 118 l 486 246 q 434 326 475 296 q 333 357 393 357 q 218 317 263 357 q 174 213 174 276 q 220 83 174 135 q 340 31 267 31 z "},"ã":{"ha":703,"x_min":50,"x_max":700,"o":"m 89 828 q 75 851 71 828 q 121 946 86 908 q 210 983 156 983 q 327 944 257 983 q 422 904 397 904 q 493 951 471 904 q 517 969 500 969 l 525 969 q 539 946 546 969 q 407 817 508 817 q 294 857 363 817 q 194 897 225 897 q 124 849 147 897 q 101 828 114 828 l 89 828 m 622 111 q 638 66 625 82 q 664 47 650 50 q 689 38 678 43 q 700 21 700 32 q 611 -8 700 -8 q 538 10 561 -8 q 510 83 514 29 q 310 -14 457 -14 q 122 42 193 -14 q 51 196 51 97 q 122 347 50 293 q 306 401 193 401 q 476 346 417 401 l 474 383 q 422 574 461 511 q 303 636 383 636 q 222 611 254 636 q 178 557 190 586 q 150 503 167 528 q 111 478 133 478 q 72 492 86 478 q 57 529 57 506 q 126 634 57 588 q 303 681 194 681 q 505 603 429 681 q 594 388 581 526 l 622 111 m 340 31 q 451 74 408 31 q 492 183 494 118 l 486 246 q 434 326 475 296 q 333 357 393 357 q 218 317 263 357 q 174 213 174 276 q 220 83 174 135 q 340 31 267 31 z "},"ä":{"ha":703,"x_min":50,"x_max":700,"o":"m 186 801 q 124 824 147 801 q 100 882 100 846 q 124 940 100 918 q 186 963 147 963 q 247 940 224 963 q 269 882 269 918 q 247 824 269 846 q 186 801 224 801 m 450 801 q 388 824 411 801 q 365 882 365 846 q 388 940 365 918 q 450 963 411 963 q 511 940 488 963 q 535 882 535 918 q 511 824 535 846 q 450 801 488 801 m 622 111 q 638 66 625 82 q 664 47 650 50 q 689 38 678 43 q 700 21 700 32 q 611 -8 700 -8 q 538 10 561 -8 q 510 83 514 29 q 310 -14 457 -14 q 122 42 193 -14 q 51 196 51 97 q 122 347 50 293 q 306 401 193 401 q 476 346 417 401 l 474 383 q 422 574 461 511 q 303 636 383 636 q 222 611 254 636 q 178 557 190 586 q 150 503 167 528 q 111 478 133 478 q 72 492 86 478 q 57 529 57 506 q 126 634 57 588 q 303 681 194 681 q 505 603 429 681 q 594 388 581 526 l 622 111 m 340 31 q 451 74 408 31 q 492 183 494 118 l 486 246 q 434 326 475 296 q 333 357 393 357 q 218 317 263 357 q 174 213 174 276 q 220 83 174 135 q 340 31 267 31 z "},"å":{"ha":703,"x_min":50,"x_max":700,"o":"m 315 756 q 199 796 246 756 q 153 894 153 836 q 199 996 153 956 q 317 1036 244 1036 q 433 997 386 1036 q 479 899 479 957 q 434 796 479 836 q 315 756 389 756 m 317 990 q 256 965 279 990 q 232 896 232 939 q 256 828 232 856 q 317 800 279 800 q 377 826 354 800 q 400 896 400 853 q 376 963 400 936 q 317 990 353 990 m 622 111 q 638 66 625 82 q 664 47 650 50 q 689 38 678 43 q 700 21 700 32 q 611 -8 700 -8 q 538 10 561 -8 q 510 83 514 29 q 310 -14 457 -14 q 122 42 193 -14 q 51 196 51 97 q 122 347 50 293 q 306 401 193 401 q 476 346 417 401 l 474 383 q 422 574 461 511 q 303 636 383 636 q 222 611 254 636 q 178 557 190 586 q 150 503 167 528 q 111 478 133 478 q 72 492 86 478 q 57 529 57 506 q 126 634 57 588 q 303 681 194 681 q 505 603 429 681 q 594 388 581 526 l 622 111 m 340 31 q 451 74 408 31 q 492 183 494 118 l 486 246 q 434 326 475 296 q 333 357 393 357 q 218 317 263 357 q 174 213 174 276 q 220 83 174 135 q 340 31 267 31 z "},"æ":{"ha":1117,"x_min":51,"x_max":1082,"o":"m 1039 208 q 1065 220 1049 225 q 1079 196 1082 215 q 990 53 1064 115 q 799 -10 915 -10 q 641 32 711 -10 q 529 147 571 74 q 458 32 515 78 q 310 -14 400 -14 q 123 42 194 -14 q 51 196 51 99 q 121 346 51 290 q 306 401 190 401 q 478 346 415 401 l 475 383 q 423 574 463 511 q 303 636 383 636 q 224 611 254 636 q 183 557 193 586 q 155 503 172 528 q 113 478 138 478 q 72 492 86 478 q 57 531 57 507 q 131 635 57 590 q 303 681 204 681 q 543 551 467 681 q 803 685 636 685 q 992 620 921 685 q 1063 474 1063 556 q 1000 393 1063 413 l 614 265 q 699 129 639 179 q 843 79 760 79 q 1039 208 972 79 m 781 639 q 649 567 700 639 q 597 388 597 496 q 603 313 597 344 l 911 422 q 944 474 944 436 q 897 583 944 526 q 781 639 849 639 m 340 32 q 451 83 408 32 q 492 196 493 133 l 488 243 q 436 324 478 293 q 333 356 394 356 q 219 318 263 356 q 175 221 175 281 q 221 85 175 139 q 340 32 267 32 z "},"ç":{"ha":697,"x_min":40,"x_max":664,"o":"m 619 204 q 646 217 628 221 q 660 193 664 213 q 574 50 643 111 q 397 -14 506 -11 l 393 -78 q 499 -104 457 -78 q 542 -179 542 -131 q 497 -255 542 -226 q 383 -283 451 -283 q 269 -256 319 -283 q 258 -218 249 -244 q 281 -207 265 -197 q 365 -231 318 -231 q 424 -217 400 -231 q 446 -175 447 -203 q 358 -124 444 -124 q 326 -82 319 -124 l 340 -11 q 126 103 211 6 q 40 338 40 201 q 138 585 40 490 q 382 681 236 679 q 572 626 490 682 q 653 508 653 569 q 597 460 653 458 q 548 488 571 461 q 508 548 525 515 q 452 608 490 581 q 360 636 414 636 q 218 566 274 636 q 163 392 163 496 q 236 160 163 247 q 426 74 310 74 q 544 110 494 74 q 619 204 593 147 z "},"è":{"ha":688,"x_min":47,"x_max":654,"o":"m 196 889 q 176 933 160 900 l 199 978 q 249 988 217 1011 l 493 813 q 501 779 511 797 q 465 769 490 761 l 196 889 m 611 196 q 638 208 621 211 q 651 185 654 204 q 563 49 636 111 q 369 -14 489 -14 q 140 83 232 -14 q 47 339 47 181 q 142 583 47 485 q 375 681 236 681 q 563 617 493 681 q 633 475 633 554 q 568 393 633 415 l 183 267 q 267 126 207 176 q 413 75 328 75 q 611 196 556 75 m 354 636 q 219 564 271 636 q 168 383 168 492 q 174 313 168 342 l 483 424 q 517 472 517 438 q 469 581 517 525 q 354 636 421 636 z "},"é":{"ha":688,"x_min":47,"x_max":654,"o":"m 228 774 q 193 783 204 767 q 200 817 183 800 l 446 992 q 496 982 476 1015 l 517 938 q 519 911 525 924 q 499 893 514 899 l 228 774 m 611 196 q 638 208 621 211 q 651 185 654 204 q 563 49 636 111 q 369 -14 489 -14 q 140 83 232 -14 q 47 339 47 181 q 142 583 47 485 q 375 681 236 681 q 563 617 493 681 q 633 475 633 554 q 568 393 633 415 l 183 267 q 267 126 207 176 q 413 75 328 75 q 611 196 556 75 m 354 636 q 219 564 271 636 q 168 383 168 492 q 174 313 168 342 l 483 424 q 517 472 517 438 q 469 581 517 525 q 354 636 421 636 z "},"ê":{"ha":688,"x_min":47,"x_max":654,"o":"m 165 774 q 130 778 146 763 q 135 814 114 794 l 288 954 q 329 972 306 972 l 356 972 q 397 954 375 972 l 557 814 q 564 777 578 794 q 524 774 550 760 l 339 881 l 165 774 m 611 196 q 638 208 621 211 q 651 185 654 204 q 563 49 636 111 q 369 -14 489 -14 q 140 83 232 -14 q 47 339 47 181 q 142 583 47 485 q 375 681 236 681 q 563 617 493 681 q 633 475 633 554 q 568 393 633 415 l 183 267 q 267 126 207 176 q 413 75 328 75 q 611 196 556 75 m 354 636 q 219 564 271 636 q 168 383 168 492 q 174 313 168 342 l 483 424 q 517 472 517 438 q 469 581 517 525 q 354 636 421 636 z "},"ë":{"ha":688,"x_min":47,"x_max":654,"o":"m 215 801 q 152 824 176 801 q 128 882 128 846 q 152 940 128 918 q 215 963 176 963 q 276 940 253 963 q 299 882 299 918 q 276 824 299 846 q 215 801 253 801 m 479 801 q 417 824 440 801 q 394 882 394 846 q 417 940 394 918 q 479 963 440 963 q 540 940 517 963 q 564 882 564 918 q 540 824 564 846 q 479 801 517 801 m 611 196 q 638 208 621 211 q 651 185 654 204 q 563 49 636 111 q 369 -14 489 -14 q 140 83 232 -14 q 47 339 47 181 q 142 583 47 485 q 375 681 236 681 q 563 617 493 681 q 633 475 633 554 q 568 393 633 415 l 183 267 q 267 126 207 176 q 413 75 328 75 q 611 196 556 75 m 354 636 q 219 564 271 636 q 168 383 168 492 q 174 313 168 342 l 483 424 q 517 472 517 438 q 469 581 517 525 q 354 636 421 636 z "},"ì":{"ha":338,"x_min":-6,"x_max":344,"o":"m 297 769 l 28 889 q 8 933 -6 900 l 32 978 q 82 988 49 1013 l 326 813 q 333 779 344 797 q 297 769 322 761 m 86 0 q 60 18 60 0 l 60 24 q 72 42 60 33 q 97 65 85 51 q 110 99 110 78 l 110 513 q 85 568 110 544 q 60 599 60 592 l 60 601 q 81 622 60 611 l 188 675 q 220 678 210 683 q 231 656 231 672 l 231 99 q 239 70 231 82 q 258 53 247 58 q 278 40 269 47 q 286 24 286 32 l 286 18 q 257 0 286 0 l 86 0 z "},"í":{"ha":338,"x_min":17,"x_max":358,"o":"m 61 774 q 26 783 38 765 q 33 817 17 800 l 279 992 q 329 982 310 1015 l 350 938 q 353 911 358 924 q 332 893 347 899 l 61 774 m 86 0 q 60 18 60 0 l 60 24 q 72 42 60 33 q 97 65 85 51 q 110 99 110 78 l 110 513 q 85 568 110 544 q 60 599 60 592 l 60 601 q 81 622 60 611 l 188 675 q 220 678 210 683 q 231 656 231 672 l 231 99 q 239 70 231 82 q 258 53 247 58 q 278 40 269 47 q 286 24 286 32 l 286 18 q 257 0 286 0 l 86 0 z "},"î":{"ha":338,"x_min":-54,"x_max":410,"o":"m 389 814 q 396 777 410 794 q 357 774 382 760 l 172 882 l -3 774 q -38 778 -22 763 q -33 814 -54 794 l 119 954 q 163 972 139 972 l 188 972 q 229 954 210 972 l 389 814 m 231 99 q 239 70 231 82 q 258 53 247 58 q 278 40 269 47 q 286 24 286 32 l 286 18 q 257 0 286 0 l 86 0 q 60 18 60 0 l 60 24 q 72 42 60 33 q 97 65 85 51 q 110 99 110 78 l 110 513 q 85 568 110 544 q 60 599 60 592 l 60 601 q 81 622 60 611 l 188 675 q 220 678 210 683 q 231 656 231 672 l 231 99 z "},"ï":{"ha":338,"x_min":-39,"x_max":396,"o":"m 47 801 q -15 824 8 801 q -39 882 -39 846 q -15 940 -39 918 q 47 963 8 963 q 108 940 85 963 q 131 882 131 918 q 108 824 131 846 q 47 801 85 801 m 372 824 q 360 813 372 824 q 311 801 349 801 q 250 824 274 801 q 226 882 226 846 q 250 940 226 918 q 311 963 274 963 q 372 940 349 963 q 396 882 396 918 q 372 824 396 846 m 86 0 q 60 18 60 0 l 60 24 q 72 42 60 33 q 97 65 85 51 q 110 99 110 78 l 110 513 q 85 568 110 544 q 60 599 60 592 l 60 601 q 81 622 60 611 l 188 675 q 220 678 210 683 q 231 656 231 672 l 231 99 q 239 70 231 82 q 258 53 247 58 q 278 40 269 47 q 286 24 286 32 l 286 18 q 257 0 286 0 l 86 0 z "},"ð":{"ha":789,"x_min":47,"x_max":738,"o":"m 513 851 q 677 616 617 750 q 738 332 738 482 q 642 81 738 175 q 399 -14 547 -14 q 147 88 246 -14 q 47 343 47 190 q 137 585 47 489 q 367 681 226 681 q 564 592 486 681 q 417 819 515 721 l 233 757 q 210 764 217 749 l 200 782 q 214 808 192 801 l 369 861 q 224 967 314 910 q 207 992 208 978 q 215 1015 206 1007 q 238 1021 225 1024 q 464 894 357 982 l 615 946 q 640 939 633 950 l 649 919 q 635 893 657 903 l 513 851 m 611 276 l 611 301 q 532 551 597 467 q 371 636 467 636 q 225 565 281 636 q 169 382 169 494 q 240 131 169 232 q 419 31 311 31 q 556 101 501 31 q 611 276 611 172 z "},"ñ":{"ha":797,"x_min":53,"x_max":764,"o":"m 185 828 q 169 851 165 828 q 215 946 181 908 q 304 983 250 983 q 422 944 353 983 q 517 904 492 904 q 588 951 567 904 q 611 969 594 969 l 621 969 q 635 946 639 969 q 501 817 603 817 q 389 857 458 817 q 289 897 319 897 q 218 849 242 897 q 196 828 208 828 l 185 828 m 714 100 q 728 64 715 78 q 752 41 740 50 q 764 22 764 32 l 764 17 q 735 -1 764 -1 l 569 -1 q 540 17 540 -1 l 540 22 q 566 51 540 32 q 590 99 592 71 l 576 376 q 526 563 571 500 q 406 626 481 626 q 281 572 329 626 q 232 435 232 518 l 232 97 q 241 69 232 81 q 260 51 250 57 q 278 38 269 46 q 288 22 288 31 l 288 17 q 258 -1 288 -1 l 85 -1 q 57 17 57 -1 l 57 22 q 84 51 57 33 q 111 97 111 69 l 111 518 q 97 559 111 544 q 67 582 82 574 q 53 600 53 590 l 53 604 q 75 625 53 617 l 179 675 q 208 678 199 685 q 218 654 218 671 l 218 553 q 306 646 249 611 q 435 681 364 681 q 616 604 543 681 q 699 374 689 528 l 714 100 z "},"ò":{"ha":785,"x_min":46,"x_max":736,"o":"m 511 769 l 240 889 q 221 933 207 900 l 244 978 q 294 988 263 1011 l 539 813 q 546 779 557 797 q 511 769 535 761 m 408 -14 q 147 91 247 -14 q 46 343 46 196 q 143 584 46 488 q 383 681 240 681 q 637 578 538 681 q 736 328 736 476 q 644 84 736 182 q 408 -14 553 -14 m 425 32 q 560 101 507 32 q 614 286 614 171 q 544 534 614 433 q 369 635 475 635 q 225 566 281 635 q 169 382 169 497 q 242 138 169 243 q 425 32 314 32 z "},"ó":{"ha":785,"x_min":46,"x_max":736,"o":"m 275 774 q 239 783 250 767 q 246 817 229 800 l 492 992 q 542 982 524 1017 l 564 938 q 544 893 581 906 l 275 774 m 408 -14 q 147 91 247 -14 q 46 343 46 196 q 143 584 46 488 q 383 681 240 681 q 637 578 538 681 q 736 328 736 476 q 644 84 736 182 q 408 -14 553 -14 m 425 32 q 560 101 507 32 q 614 286 614 171 q 544 534 614 433 q 369 635 475 635 q 225 566 281 635 q 169 382 169 497 q 242 138 169 243 q 425 32 314 32 z "},"ô":{"ha":785,"x_min":46,"x_max":736,"o":"m 211 774 q 176 778 192 763 q 179 814 160 794 l 332 954 q 375 972 351 972 l 400 972 q 442 954 422 972 l 601 814 q 609 777 622 794 q 569 774 596 760 l 385 882 l 211 774 m 383 681 q 637 578 538 681 q 736 328 736 476 q 644 84 736 182 q 408 -14 553 -14 q 147 91 247 -14 q 46 343 46 196 q 143 584 46 488 q 383 681 240 681 m 425 32 q 560 101 507 32 q 614 286 614 171 q 544 534 614 433 q 369 635 475 635 q 225 566 281 635 q 169 382 169 497 q 242 138 169 243 q 425 32 314 32 z "},"õ":{"ha":785,"x_min":46,"x_max":736,"o":"m 283 983 q 401 944 332 983 q 496 904 471 904 q 567 951 546 904 q 590 969 574 969 l 600 969 q 614 946 618 969 q 481 817 582 817 q 368 857 436 817 q 268 897 300 897 q 197 849 222 897 q 175 828 188 828 l 164 828 q 149 851 144 828 q 194 946 160 908 q 283 983 229 983 m 408 -14 q 147 91 247 -14 q 46 343 46 196 q 143 584 46 488 q 383 681 240 681 q 637 578 538 681 q 736 328 736 476 q 644 84 736 182 q 408 -14 553 -14 m 425 32 q 560 101 507 32 q 614 286 614 171 q 544 534 614 433 q 369 635 475 635 q 225 566 281 635 q 169 382 169 497 q 242 138 169 243 q 425 32 314 32 z "},"ö":{"ha":785,"x_min":46,"x_max":736,"o":"m 260 801 q 197 824 221 801 q 174 882 174 846 q 197 940 174 918 q 260 963 221 963 q 320 940 297 963 q 343 882 343 918 q 320 824 343 846 q 260 801 297 801 m 525 801 q 463 824 486 801 q 439 882 439 846 q 463 940 439 918 q 525 963 486 963 q 585 940 561 963 q 610 882 610 917 q 585 824 610 847 q 525 801 561 801 m 408 -14 q 147 91 247 -14 q 46 343 46 196 q 143 584 46 488 q 383 681 240 681 q 637 578 538 681 q 736 328 736 476 q 644 84 736 182 q 408 -14 553 -14 m 425 32 q 560 101 507 32 q 614 286 614 171 q 544 534 614 433 q 369 635 475 635 q 225 566 281 635 q 169 382 169 497 q 242 138 169 243 q 425 32 314 32 z "},"÷":{"ha":833,"x_min":139,"x_max":696,"o":"m 418 568 q 352 592 376 568 q 328 653 328 615 q 352 715 328 690 q 418 739 376 739 q 481 715 457 739 q 506 653 506 690 q 481 592 506 615 q 418 568 457 568 m 158 335 q 139 350 139 335 l 139 401 q 158 417 139 417 l 675 417 q 696 401 696 417 l 696 350 q 675 335 696 335 l 158 335 m 418 -14 q 352 10 376 -14 q 328 71 328 33 q 352 133 328 108 q 418 157 376 157 q 481 133 457 157 q 506 71 506 108 q 481 10 506 33 q 418 -14 457 -14 z "},"ø":{"ha":797,"x_min":35,"x_max":757,"o":"m 746 653 q 743 625 757 642 l 667 551 q 743 328 743 456 q 651 84 743 182 q 415 -14 560 -14 q 169 76 271 -14 l 86 -4 q 65 -4 75 -14 l 46 14 q 50 39 35 25 l 131 117 q 53 343 53 214 q 150 584 53 488 q 390 681 247 681 q 626 593 531 681 l 701 665 q 731 668 717 681 l 746 653 m 175 382 q 214 197 175 283 l 556 525 q 375 635 486 635 q 231 566 286 635 q 175 382 175 497 m 619 286 q 583 472 619 392 l 243 146 q 432 32 318 32 q 567 101 514 32 q 619 286 619 171 z "},"ù":{"ha":785,"x_min":40,"x_max":753,"o":"m 240 889 q 222 933 206 900 l 244 978 q 294 988 263 1011 l 539 813 q 546 779 557 797 q 511 769 536 763 l 240 889 m 675 119 q 688 67 675 85 q 714 47 700 49 q 740 39 728 44 q 753 21 753 33 q 667 -8 753 -8 q 565 94 561 -8 l 563 103 q 349 -14 499 -14 q 162 69 232 -14 q 92 303 92 151 l 92 549 q 66 600 92 579 q 40 629 40 621 l 40 633 q 61 654 40 650 l 178 675 q 215 658 215 682 l 214 293 q 256 106 214 172 q 378 40 299 40 q 503 99 453 40 q 554 251 554 157 l 554 549 q 527 599 554 578 q 500 629 500 619 l 500 633 q 521 654 500 650 l 639 675 q 675 658 675 682 l 675 119 z "},"ú":{"ha":785,"x_min":40,"x_max":753,"o":"m 274 774 q 238 783 249 767 q 246 817 228 801 l 490 992 q 540 982 522 1015 l 563 938 q 565 911 569 924 q 543 893 560 899 l 274 774 m 675 119 q 688 67 675 85 q 714 47 700 49 q 740 39 728 44 q 753 21 753 33 q 667 -8 753 -8 q 565 94 561 -8 l 563 103 q 349 -14 499 -14 q 162 69 232 -14 q 92 303 92 151 l 92 549 q 66 600 92 579 q 40 629 40 621 l 40 633 q 61 654 40 650 l 178 675 q 215 658 215 682 l 214 293 q 256 106 214 172 q 378 40 299 40 q 503 99 453 40 q 554 251 554 157 l 554 549 q 527 599 554 578 q 500 629 500 619 l 500 633 q 521 654 500 650 l 639 675 q 675 658 675 682 l 675 119 z "},"û":{"ha":785,"x_min":40,"x_max":753,"o":"m 211 774 q 175 778 190 763 q 181 814 160 794 l 333 954 q 375 972 351 972 l 400 972 q 443 954 421 972 l 601 814 q 609 777 622 794 q 569 774 596 760 l 385 882 l 211 774 m 675 119 q 688 67 675 85 q 714 47 700 49 q 740 39 728 44 q 753 21 753 33 q 667 -8 753 -8 q 565 94 561 -8 l 563 103 q 349 -14 499 -14 q 162 69 232 -14 q 92 303 92 151 l 92 549 q 66 600 92 579 q 40 629 40 621 l 40 633 q 61 654 40 650 l 178 675 q 215 658 215 682 l 214 293 q 256 106 214 172 q 378 40 299 40 q 503 99 453 40 q 554 251 554 157 l 554 549 q 527 599 554 578 q 500 629 500 619 l 500 633 q 521 654 500 650 l 639 675 q 675 658 675 682 l 675 119 z "},"ü":{"ha":785,"x_min":40,"x_max":753,"o":"m 320 824 q 309 813 320 824 q 260 801 297 801 q 198 824 222 801 q 174 882 174 847 q 198 940 174 917 q 260 963 222 963 q 320 940 297 963 q 343 882 343 918 q 320 824 343 846 m 525 801 q 463 824 486 801 q 440 882 440 846 q 463 940 440 918 q 525 963 486 963 q 585 940 561 963 q 610 882 610 917 q 585 824 610 847 q 525 801 561 801 m 675 119 q 688 67 675 85 q 714 47 700 49 q 740 39 728 44 q 753 21 753 33 q 667 -8 753 -8 q 565 94 561 -8 l 563 103 q 349 -14 499 -14 q 162 69 232 -14 q 92 303 92 151 l 92 549 q 66 600 92 579 q 40 629 40 621 l 40 633 q 61 654 40 650 l 178 675 q 215 658 215 682 l 214 293 q 256 106 214 172 q 378 40 299 40 q 503 99 453 40 q 554 251 554 157 l 554 549 q 527 599 554 578 q 500 629 500 619 l 500 633 q 521 654 500 650 l 639 675 q 675 658 675 682 l 675 119 z "},"ý":{"ha":725,"x_min":-26,"x_max":724,"o":"m 268 774 q 233 783 244 767 q 240 817 224 800 l 486 992 q 536 982 517 1015 l 557 938 q 560 911 565 924 q 539 893 554 899 l 268 774 m 704 667 q 724 650 724 667 l 724 646 q 699 613 724 633 q 661 560 675 592 l 399 -19 q 364 -97 375 -74 q 326 -167 353 -119 q 276 -235 299 -214 q 219 -276 254 -257 q 144 -294 183 -294 q 22 -255 71 -294 q -26 -171 -26 -215 q -12 -131 -26 -146 q 26 -115 1 -115 q 67 -135 50 -115 q 91 -181 83 -156 q 117 -226 99 -206 q 165 -246 136 -246 q 335 -26 247 -246 l 68 561 q 27 613 53 592 q 1 646 1 633 l 1 650 q 22 667 1 667 l 203 667 q 222 650 222 667 l 222 646 q 210 624 222 636 q 193 602 199 613 q 199 560 188 592 l 399 89 l 597 549 q 601 590 608 574 q 582 613 594 606 q 557 629 569 621 q 544 646 544 638 l 544 650 q 565 667 544 667 l 704 667 z "},"þ":{"ha":781,"x_min":33,"x_max":732,"o":"m 411 681 q 638 586 544 681 q 732 344 732 492 q 640 89 732 192 q 413 -14 547 -14 q 210 82 286 -14 l 210 -217 q 238 -264 210 -244 q 265 -294 265 -283 l 265 -299 q 238 -317 265 -317 l 65 -317 q 38 -299 38 -317 l 38 -294 q 63 -264 38 -283 q 89 -217 89 -244 l 89 878 q 61 924 89 904 q 33 954 33 943 l 33 960 q 56 983 33 975 l 169 1038 q 211 1018 211 1060 l 211 590 q 411 681 282 681 m 396 32 q 552 108 494 32 q 610 311 610 183 q 546 544 610 453 q 381 636 482 636 q 267 590 318 636 q 211 478 217 544 l 210 231 q 272 91 215 150 q 396 32 329 32 z "},"ÿ":{"ha":725,"x_min":-26,"x_max":724,"o":"m 256 801 q 192 824 217 801 q 168 882 168 846 q 192 940 168 918 q 256 963 217 963 q 316 940 293 963 q 339 882 339 918 q 316 824 339 846 q 256 801 293 801 m 519 801 q 458 824 481 801 q 435 882 435 846 q 458 940 435 918 q 519 963 481 963 q 581 940 557 963 q 604 882 604 918 q 581 824 604 846 q 519 801 557 801 m 704 667 q 724 650 724 667 l 724 646 q 699 613 724 633 q 661 560 675 592 l 399 -19 q 364 -97 375 -74 q 326 -167 353 -119 q 276 -235 299 -214 q 219 -276 254 -257 q 144 -294 183 -294 q 22 -255 71 -294 q -26 -171 -26 -215 q -12 -131 -26 -146 q 26 -115 1 -115 q 67 -135 50 -115 q 91 -181 83 -156 q 117 -226 99 -206 q 165 -246 136 -246 q 335 -26 247 -246 l 68 561 q 27 613 53 592 q 1 646 1 633 l 1 650 q 22 667 1 667 l 203 667 q 222 650 222 667 l 222 646 q 210 624 222 636 q 193 602 199 613 q 199 560 188 592 l 399 89 l 597 549 q 601 590 608 574 q 582 613 594 606 q 557 629 569 621 q 544 646 544 638 l 544 650 q 565 667 544 667 l 704 667 z "},"Ā":{"ha":929,"x_min":8,"x_max":929,"o":"m 269 1126 q 246 1147 246 1126 l 246 1186 q 269 1207 246 1207 l 635 1207 q 658 1186 658 1207 l 658 1147 q 635 1126 658 1126 l 269 1126 m 863 97 q 902 51 875 69 q 929 19 929 32 l 929 17 q 903 0 929 0 l 707 0 q 681 17 681 0 l 681 19 q 690 36 681 28 q 710 50 700 44 q 728 68 721 56 q 728 97 735 81 l 661 261 l 211 261 l 150 97 q 149 68 143 81 q 166 50 156 56 q 187 36 176 44 q 197 19 197 28 l 197 17 q 168 0 197 0 l 36 0 q 8 17 8 0 l 8 19 q 35 49 8 31 q 74 97 63 68 l 382 885 q 365 934 392 908 q 339 967 339 960 l 339 971 q 358 986 339 986 l 439 986 q 504 940 485 986 l 863 97 m 235 321 l 638 321 l 429 836 l 235 321 z "},"ā":{"ha":703,"x_min":50,"x_max":700,"o":"m 133 839 q 108 861 108 839 l 108 900 q 133 921 108 921 l 497 921 q 522 900 522 921 l 522 861 q 497 839 522 839 l 133 839 m 622 111 q 638 66 625 82 q 664 47 650 50 q 689 38 678 43 q 700 21 700 32 q 611 -8 700 -8 q 538 10 561 -8 q 510 83 514 29 q 310 -14 457 -14 q 122 42 193 -14 q 51 196 51 97 q 122 347 50 293 q 306 401 193 401 q 476 346 417 401 l 474 383 q 422 574 461 511 q 303 636 383 636 q 222 611 254 636 q 178 557 190 586 q 150 503 167 528 q 111 478 133 478 q 72 492 86 478 q 57 529 57 506 q 126 634 57 588 q 303 681 194 681 q 505 603 429 681 q 594 388 581 526 l 622 111 m 340 31 q 451 74 408 31 q 492 183 494 118 l 486 246 q 434 326 475 296 q 333 357 393 357 q 218 317 263 357 q 174 213 174 276 q 220 83 174 135 q 340 31 267 31 z "},"Ă":{"ha":929,"x_min":8,"x_max":929,"o":"m 453 1079 q 309 1128 368 1079 q 239 1249 250 1178 q 258 1278 235 1272 q 288 1268 281 1285 q 349 1192 303 1221 q 453 1164 394 1164 q 558 1192 511 1164 q 619 1268 604 1221 q 649 1277 626 1283 q 668 1249 671 1271 q 599 1128 658 1178 q 453 1079 540 1079 m 863 97 q 902 51 875 69 q 929 19 929 32 l 929 17 q 903 0 929 0 l 707 0 q 681 17 681 0 l 681 19 q 690 36 681 28 q 710 50 700 44 q 728 68 721 56 q 728 97 735 81 l 661 261 l 211 261 l 150 97 q 149 68 143 81 q 166 50 156 56 q 187 36 176 44 q 197 19 197 28 l 197 17 q 168 0 197 0 l 36 0 q 8 17 8 0 l 8 19 q 35 49 8 31 q 74 97 63 68 l 382 885 q 365 934 392 908 q 339 967 339 960 l 339 971 q 358 986 339 986 l 439 986 q 504 940 485 986 l 863 97 m 235 321 l 638 321 l 429 836 l 235 321 z "},"ă":{"ha":703,"x_min":50,"x_max":700,"o":"m 315 786 q 172 835 231 786 q 101 956 113 885 q 120 984 97 978 q 150 974 143 990 q 210 899 164 928 q 315 871 257 871 q 420 899 374 871 q 482 974 467 928 q 511 983 489 989 q 531 956 533 978 q 462 835 521 885 q 315 786 403 786 m 622 111 q 638 66 625 82 q 664 47 650 50 q 689 38 678 43 q 700 21 700 32 q 611 -8 700 -8 q 538 10 561 -8 q 510 83 514 29 q 310 -14 457 -14 q 122 42 193 -14 q 51 196 51 97 q 122 347 50 293 q 306 401 193 401 q 476 346 417 401 l 474 383 q 422 574 461 511 q 303 636 383 636 q 222 611 254 636 q 178 557 190 586 q 150 503 167 528 q 111 478 133 478 q 72 492 86 478 q 57 529 57 506 q 126 634 57 588 q 303 681 194 681 q 505 603 429 681 q 594 388 581 526 l 622 111 m 340 31 q 451 74 408 31 q 492 183 494 118 l 486 246 q 434 326 475 296 q 333 357 393 357 q 218 317 263 357 q 174 213 174 276 q 220 83 174 135 q 340 31 267 31 z "},"Ą":{"ha":929,"x_min":8,"x_max":929,"o":"m 863 97 q 902 51 875 69 q 929 19 929 32 l 929 17 q 903 0 929 0 l 846 0 q 749 -169 749 -90 q 764 -220 749 -203 q 804 -237 779 -237 q 842 -231 818 -237 q 867 -244 861 -222 q 851 -281 871 -271 q 786 -296 828 -296 q 695 -267 733 -296 q 657 -186 657 -239 q 696 -88 657 -137 q 796 0 735 -39 l 707 0 q 681 17 681 0 l 681 19 q 690 36 681 28 q 710 50 700 44 q 728 68 721 56 q 728 97 735 81 l 661 261 l 211 261 l 150 97 q 149 68 143 81 q 166 50 156 56 q 187 36 176 44 q 197 19 197 28 l 197 17 q 168 0 197 0 l 36 0 q 8 17 8 0 l 8 19 q 35 49 8 31 q 74 97 63 68 l 382 885 q 365 934 392 908 q 339 967 339 960 l 339 971 q 358 986 339 986 l 439 986 q 504 940 485 986 l 863 97 m 235 321 l 638 321 l 429 836 l 235 321 z "},"ą":{"ha":703,"x_min":50,"x_max":700,"o":"m 700 21 q 625 -8 700 -6 q 549 -158 549 -92 q 564 -208 549 -190 q 603 -226 579 -226 q 640 -218 613 -226 q 667 -235 661 -210 q 651 -269 671 -260 q 585 -283 624 -283 q 495 -255 533 -283 q 457 -175 457 -226 q 569 -6 457 -85 q 510 83 515 7 q 310 -14 457 -14 q 122 42 193 -14 q 51 196 51 97 q 122 347 50 293 q 306 401 193 401 q 476 346 417 401 l 474 383 q 422 574 461 511 q 303 636 383 636 q 222 611 254 636 q 178 557 190 586 q 150 503 167 528 q 111 478 133 478 q 72 492 86 478 q 57 529 57 506 q 126 634 57 588 q 303 681 194 681 q 505 603 429 681 q 594 388 581 526 l 622 111 q 638 66 625 82 q 664 47 650 50 q 689 38 678 43 q 700 21 700 32 m 340 31 q 451 74 408 31 q 492 183 494 118 l 486 246 q 434 326 475 296 q 333 357 393 357 q 218 317 263 357 q 174 213 174 276 q 220 83 174 135 q 340 31 267 31 z "},"Ć":{"ha":942,"x_min":46,"x_max":911,"o":"m 368 1086 q 335 1103 342 1083 q 349 1133 328 1122 l 624 1256 q 671 1235 660 1272 l 683 1188 q 680 1161 688 1172 q 656 1149 672 1150 l 368 1086 m 514 -14 q 188 142 329 -14 q 46 503 46 297 q 176 860 46 721 q 507 999 306 999 q 773 912 660 999 q 886 742 886 825 q 870 698 886 714 q 825 682 854 682 q 774 709 797 682 q 729 774 751 736 q 678 849 707 811 q 598 915 650 888 q 475 942 546 942 q 260 838 350 942 q 171 572 171 733 q 284 233 171 368 q 549 97 397 97 q 738 165 661 97 q 854 328 815 233 q 889 344 867 350 q 906 310 911 339 q 778 81 881 175 q 514 -14 676 -14 z "},"ć":{"ha":697,"x_min":40,"x_max":664,"o":"m 250 774 q 214 783 225 767 q 222 817 204 801 l 467 992 q 518 982 499 1015 l 539 938 q 541 911 546 924 q 519 893 536 899 l 250 774 m 388 -14 q 141 87 242 -14 q 40 338 40 188 q 138 585 40 490 q 382 681 236 679 q 572 626 490 682 q 653 508 653 569 q 597 460 653 458 q 548 488 571 461 q 508 548 525 515 q 452 608 490 581 q 360 636 414 636 q 218 566 274 636 q 163 392 163 496 q 236 160 163 247 q 426 74 310 74 q 544 110 494 74 q 619 204 593 147 q 646 217 628 221 q 660 193 664 213 q 572 47 643 108 q 388 -14 500 -14 z "},"Ċ":{"ha":942,"x_min":46,"x_max":911,"o":"m 489 1078 q 423 1101 447 1078 q 399 1161 399 1124 q 423 1222 399 1199 q 489 1246 447 1246 q 551 1222 528 1246 q 575 1161 575 1199 q 551 1101 575 1124 q 489 1078 528 1078 m 514 -14 q 188 142 329 -14 q 46 503 46 297 q 176 860 46 721 q 507 999 306 999 q 773 912 660 999 q 886 742 886 825 q 870 698 886 714 q 825 682 854 682 q 774 709 797 682 q 729 774 751 736 q 678 849 707 811 q 598 915 650 888 q 475 942 546 942 q 260 838 350 942 q 171 572 171 733 q 284 233 171 368 q 549 97 397 97 q 738 165 661 97 q 854 328 815 233 q 889 344 867 350 q 906 310 911 339 q 778 81 881 175 q 514 -14 676 -14 z "},"ċ":{"ha":697,"x_min":40,"x_max":664,"o":"m 367 799 q 298 822 324 799 q 272 885 272 846 q 298 948 272 924 q 367 972 324 972 q 432 948 407 972 q 457 885 457 924 q 432 822 457 846 q 367 799 407 799 m 388 -14 q 141 87 242 -14 q 40 338 40 188 q 138 585 40 490 q 382 681 236 679 q 572 626 490 682 q 653 508 653 569 q 597 460 653 458 q 548 488 571 461 q 508 548 525 515 q 452 608 490 581 q 360 636 414 636 q 218 566 274 636 q 163 392 163 496 q 236 160 163 247 q 426 74 310 74 q 544 110 494 74 q 619 204 593 147 q 646 217 628 221 q 660 193 664 213 q 572 47 643 108 q 388 -14 500 -14 z "},"Č":{"ha":942,"x_min":46,"x_max":911,"o":"m 464 1057 l 306 1204 q 301 1225 296 1214 q 317 1240 306 1236 q 340 1238 329 1243 l 522 1121 l 704 1238 q 729 1240 717 1244 q 744 1224 742 1235 q 739 1204 747 1214 l 576 1057 q 535 1039 557 1039 l 506 1039 q 464 1057 483 1039 m 854 328 q 889 344 867 350 q 906 310 911 339 q 778 81 881 175 q 514 -14 676 -14 q 188 142 329 -14 q 46 503 46 297 q 176 860 46 721 q 507 999 306 999 q 773 912 660 999 q 886 742 886 825 q 870 698 886 714 q 825 682 854 682 q 774 709 797 682 q 729 774 751 736 q 678 849 707 811 q 598 915 650 888 q 475 942 546 942 q 260 838 350 942 q 171 572 171 733 q 284 233 171 368 q 549 97 397 97 q 738 165 661 97 q 854 328 815 233 z "},"č":{"ha":697,"x_min":40,"x_max":664,"o":"m 308 790 l 150 942 q 145 963 140 951 q 162 977 150 974 q 185 975 174 981 l 367 854 l 549 975 q 573 978 560 983 q 589 962 586 972 q 583 942 592 951 l 421 790 q 379 771 401 771 l 350 771 q 308 790 328 771 m 619 204 q 646 217 628 221 q 660 193 664 213 q 572 47 643 108 q 388 -14 500 -14 q 141 87 242 -14 q 40 338 40 188 q 138 585 40 490 q 382 681 236 679 q 572 626 490 682 q 653 508 653 569 q 597 460 653 458 q 548 488 571 461 q 508 548 525 515 q 452 608 490 581 q 360 636 414 636 q 218 566 274 636 q 163 392 163 496 q 236 160 163 247 q 426 74 310 74 q 544 110 494 74 q 619 204 593 147 z "},"Ď":{"ha":1031,"x_min":82,"x_max":976,"o":"m 272 1204 q 266 1225 261 1214 q 283 1240 271 1236 q 307 1238 294 1243 l 489 1121 l 671 1238 q 696 1240 683 1244 q 711 1224 708 1235 q 706 1204 714 1214 l 543 1057 q 501 1039 524 1039 l 472 1039 q 431 1057 450 1039 l 272 1204 m 415 986 q 813 851 650 986 q 976 501 976 715 q 831 136 976 272 q 465 0 686 0 l 111 0 q 82 17 82 0 l 82 19 q 108 51 82 31 q 133 97 133 71 l 133 889 q 108 937 133 917 q 82 967 82 957 l 82 969 q 111 986 82 986 l 415 986 m 457 57 q 735 165 624 57 q 847 457 847 272 q 712 798 847 667 q 393 929 576 929 l 296 929 q 257 885 257 929 l 257 133 q 274 77 257 97 q 322 57 292 57 l 457 57 z "},"ď":{"ha":814,"x_min":47,"x_max":919,"o":"m 896 1114 q 919 1086 919 1114 q 788 785 919 900 q 751 779 767 767 l 744 785 q 746 821 731 797 q 828 1086 828 932 q 850 1114 828 1114 l 896 1114 m 692 97 q 717 49 692 69 q 743 19 743 28 l 743 15 q 722 0 743 0 l 606 0 q 582 22 585 0 l 579 92 q 488 13 544 40 q 368 -14 432 -14 q 142 83 236 -14 q 47 335 47 181 q 140 583 47 486 q 372 681 233 681 q 574 590 494 681 l 574 893 q 559 933 574 918 q 530 957 544 949 q 515 975 515 965 l 515 978 q 536 1001 515 992 l 649 1039 q 692 1018 692 1056 l 692 97 m 397 32 q 519 85 464 32 q 574 232 574 139 l 575 232 l 574 303 l 574 442 q 513 574 574 513 q 371 636 453 636 q 224 565 281 636 q 167 376 168 493 q 229 133 164 232 q 397 32 294 33 z "},"Đ":{"ha":1035,"x_min":40,"x_max":981,"o":"m 419 986 q 817 851 654 986 q 981 501 981 715 q 835 136 981 272 q 469 0 690 0 l 115 0 q 86 17 86 0 l 86 19 q 112 51 86 31 q 138 97 138 71 l 138 471 l 61 471 q 40 488 40 471 l 40 510 q 61 526 40 526 l 138 526 l 138 889 q 112 937 138 917 q 86 967 86 957 l 86 969 q 115 986 86 986 l 419 986 m 461 57 q 740 165 628 57 q 851 457 851 272 q 716 798 851 667 q 397 929 581 929 l 300 929 q 261 885 261 929 l 261 526 l 454 526 q 475 510 475 526 l 475 489 q 454 471 475 471 l 261 471 l 261 133 q 278 77 261 97 q 326 57 296 57 l 461 57 z "},"đ":{"ha":789,"x_min":47,"x_max":797,"o":"m 776 813 q 797 796 797 813 l 797 775 q 776 757 797 757 l 692 757 l 692 97 q 717 49 692 69 q 743 19 743 28 l 743 15 q 722 0 743 0 l 606 0 q 582 22 585 0 l 579 92 q 488 13 544 40 q 368 -14 432 -14 q 142 83 236 -14 q 47 335 47 181 q 140 583 47 486 q 372 681 233 681 q 574 590 494 681 l 574 757 l 382 757 q 363 774 363 757 l 363 796 q 382 813 363 813 l 574 813 l 574 893 q 559 933 574 918 q 530 957 544 949 q 515 975 515 965 l 515 978 q 536 1001 515 992 l 649 1039 q 692 1018 692 1056 l 692 813 l 776 813 m 397 32 q 519 85 464 32 q 574 232 574 139 l 575 232 l 574 303 l 574 442 q 513 574 574 513 q 371 636 453 636 q 224 565 281 636 q 167 376 168 493 q 229 133 164 232 q 397 32 294 33 z "},"Ē":{"ha":833,"x_min":82,"x_max":808,"o":"m 235 1126 q 211 1147 211 1126 l 211 1186 q 235 1207 211 1207 l 600 1207 q 625 1186 625 1207 l 625 1147 q 600 1126 625 1126 l 235 1126 m 111 0 q 82 17 82 0 l 82 19 q 108 49 82 29 q 133 99 133 69 l 133 888 q 121 924 133 910 q 95 948 108 939 q 82 967 82 957 l 82 971 q 107 986 82 986 l 696 986 q 731 956 724 986 l 764 818 q 747 790 769 790 l 740 790 q 709 812 726 790 q 677 860 692 833 q 640 908 663 886 q 592 929 617 929 l 297 929 q 258 882 258 929 l 258 533 l 511 533 q 542 546 529 533 q 560 574 554 558 q 574 603 567 590 q 592 615 582 615 l 597 615 q 615 592 615 615 l 615 421 q 597 397 615 397 l 592 397 q 574 410 582 397 q 560 437 567 422 q 542 464 554 451 q 511 476 529 476 l 258 476 l 257 117 q 270 74 257 92 q 308 57 283 57 l 635 57 q 682 79 660 57 q 717 128 704 101 q 748 178 731 156 q 781 200 765 200 l 789 200 q 803 192 799 200 q 806 172 808 183 l 772 32 q 736 0 765 0 l 111 0 z "},"ē":{"ha":688,"x_min":47,"x_max":654,"o":"m 163 839 q 138 861 138 839 l 138 900 q 163 921 138 921 l 526 921 q 551 900 551 921 l 551 861 q 526 839 551 839 l 163 839 m 611 196 q 638 208 621 211 q 651 185 654 204 q 563 49 636 111 q 369 -14 489 -14 q 140 83 232 -14 q 47 339 47 181 q 142 583 47 485 q 375 681 236 681 q 563 617 493 681 q 633 475 633 554 q 568 393 633 415 l 183 267 q 267 126 207 176 q 413 75 328 75 q 611 196 556 75 m 354 636 q 219 564 271 636 q 168 383 168 492 q 174 313 168 342 l 483 424 q 517 472 517 438 q 469 581 517 525 q 354 636 421 636 z "},"Ė":{"ha":833,"x_min":82,"x_max":808,"o":"m 424 1078 q 358 1101 383 1078 q 333 1161 333 1124 q 358 1222 333 1199 q 424 1246 383 1246 q 487 1222 463 1246 q 511 1161 511 1199 q 487 1101 511 1124 q 424 1078 463 1078 m 111 0 q 82 17 82 0 l 82 19 q 108 49 82 29 q 133 99 133 69 l 133 888 q 121 924 133 910 q 95 948 108 939 q 82 967 82 957 l 82 971 q 107 986 82 986 l 696 986 q 731 956 724 986 l 764 818 q 747 790 769 790 l 740 790 q 709 812 726 790 q 677 860 692 833 q 640 908 663 886 q 592 929 617 929 l 297 929 q 258 882 258 929 l 258 533 l 511 533 q 542 546 529 533 q 560 574 554 558 q 574 603 567 590 q 592 615 582 615 l 597 615 q 615 592 615 615 l 615 421 q 597 397 615 397 l 592 397 q 574 410 582 397 q 560 437 567 422 q 542 464 554 451 q 511 476 529 476 l 258 476 l 257 117 q 270 74 257 92 q 308 57 283 57 l 635 57 q 682 79 660 57 q 717 128 704 101 q 748 178 731 156 q 781 200 765 200 l 789 200 q 803 192 799 200 q 806 172 808 183 l 772 32 q 736 0 765 0 l 111 0 z "},"ė":{"ha":688,"x_min":47,"x_max":654,"o":"m 346 799 q 277 822 303 799 q 251 885 251 846 q 277 948 251 924 q 346 972 303 972 q 411 948 386 972 q 436 885 436 924 q 411 822 436 846 q 346 799 386 799 m 611 196 q 638 208 621 211 q 651 185 654 204 q 563 49 636 111 q 369 -14 489 -14 q 140 83 232 -14 q 47 339 47 181 q 142 583 47 485 q 375 681 236 681 q 563 617 493 681 q 633 475 633 554 q 568 393 633 415 l 183 267 q 267 126 207 176 q 413 75 328 75 q 611 196 556 75 m 354 636 q 219 564 271 636 q 168 383 168 492 q 174 313 168 342 l 483 424 q 517 472 517 438 q 469 581 517 525 q 354 636 421 636 z "},"Ę":{"ha":833,"x_min":82,"x_max":808,"o":"m 756 4 q 658 -165 658 -86 q 674 -216 658 -199 q 714 -233 689 -233 q 751 -225 731 -233 q 776 -242 772 -217 q 761 -276 782 -268 q 696 -292 738 -292 q 605 -262 643 -292 q 567 -182 567 -233 q 603 -87 567 -135 q 700 0 640 -39 l 111 0 q 82 17 82 0 l 82 19 q 108 49 82 29 q 133 99 133 69 l 133 888 q 121 924 133 910 q 95 948 108 939 q 82 967 82 957 l 82 971 q 107 986 82 986 l 696 986 q 731 956 724 986 l 764 818 q 747 790 769 790 l 740 790 q 709 812 726 790 q 677 860 692 833 q 640 908 663 886 q 592 929 617 929 l 297 929 q 258 882 258 929 l 258 533 l 511 533 q 542 546 529 533 q 560 574 554 558 q 574 603 567 590 q 592 615 582 615 l 597 615 q 615 592 615 615 l 615 421 q 597 397 615 397 l 592 397 q 574 410 582 397 q 560 437 567 422 q 542 464 554 451 q 511 476 529 476 l 258 476 l 257 117 q 270 74 257 92 q 308 57 283 57 l 635 57 q 682 79 660 57 q 717 128 704 101 q 748 178 731 156 q 781 200 765 200 l 789 200 q 803 192 799 200 q 806 172 808 183 l 772 32 q 756 4 768 11 z "},"ę":{"ha":688,"x_min":47,"x_max":654,"o":"m 611 196 q 638 208 621 211 q 651 185 654 204 q 608 94 642 140 q 519 21 574 49 q 426 -146 426 -72 q 442 -196 426 -178 q 481 -214 457 -214 q 519 -206 499 -214 q 544 -222 540 -197 q 529 -257 549 -247 q 463 -271 507 -271 q 373 -242 411 -271 q 335 -162 335 -214 q 426 -10 335 -85 q 369 -14 400 -14 q 140 83 232 -14 q 47 339 47 181 q 142 583 47 485 q 375 681 236 681 q 563 617 493 681 q 633 475 633 554 q 568 393 633 415 l 183 267 q 267 126 207 176 q 413 75 328 75 q 611 196 556 75 m 354 636 q 219 564 271 636 q 168 383 168 492 q 174 313 168 342 l 483 424 q 517 472 517 438 q 469 581 517 525 q 354 636 421 636 z "},"Ě":{"ha":833,"x_min":82,"x_max":808,"o":"m 361 1057 l 201 1204 q 197 1225 192 1214 q 213 1240 201 1236 q 236 1238 225 1243 l 419 1121 l 601 1238 q 626 1240 614 1244 q 642 1224 639 1235 q 636 1204 644 1214 l 474 1057 q 431 1039 451 1039 l 403 1039 q 361 1057 381 1039 m 789 200 q 803 192 799 200 q 806 172 808 183 l 772 32 q 736 0 765 0 l 111 0 q 82 17 82 0 l 82 19 q 108 49 82 29 q 133 99 133 69 l 133 888 q 121 924 133 910 q 95 948 108 939 q 82 967 82 957 l 82 971 q 107 986 82 986 l 696 986 q 731 956 724 986 l 764 818 q 747 790 769 790 l 740 790 q 709 812 726 790 q 677 860 692 833 q 640 908 663 886 q 592 929 617 929 l 297 929 q 258 882 258 929 l 258 533 l 511 533 q 542 546 529 533 q 560 574 554 558 q 574 603 567 590 q 592 615 582 615 l 597 615 q 615 592 615 615 l 615 421 q 597 397 615 397 l 592 397 q 574 410 582 397 q 560 437 567 422 q 542 464 554 451 q 511 476 529 476 l 258 476 l 257 117 q 270 74 257 92 q 308 57 283 57 l 635 57 q 682 79 660 57 q 717 128 704 101 q 748 178 731 156 q 781 200 765 200 l 789 200 z "},"ě":{"ha":688,"x_min":47,"x_max":654,"o":"m 129 942 q 123 963 118 951 q 140 977 128 974 q 164 975 151 981 l 346 854 l 528 975 q 552 978 539 983 q 568 962 565 972 q 563 942 571 951 l 400 790 q 358 771 381 771 l 329 771 q 288 790 307 771 l 129 942 m 611 196 q 638 208 621 211 q 651 185 654 204 q 563 49 636 111 q 369 -14 489 -14 q 140 83 232 -14 q 47 339 47 181 q 142 583 47 485 q 375 681 236 681 q 563 617 493 681 q 633 475 633 554 q 568 393 633 415 l 183 267 q 267 126 207 176 q 413 75 328 75 q 611 196 556 75 m 354 636 q 219 564 271 636 q 168 383 168 492 q 174 313 168 342 l 483 424 q 517 472 517 438 q 469 581 517 525 q 354 636 421 636 z "},"Ğ":{"ha":1007,"x_min":51,"x_max":982,"o":"m 528 1079 q 384 1128 443 1079 q 314 1249 325 1178 q 333 1278 310 1272 q 363 1268 356 1285 q 422 1192 376 1221 q 528 1164 468 1164 q 633 1192 586 1164 q 694 1268 679 1221 q 724 1277 701 1283 q 743 1249 746 1271 q 674 1128 733 1178 q 528 1079 615 1079 m 533 -14 q 196 136 340 -14 q 51 489 51 286 q 185 857 51 715 q 517 999 318 999 q 790 914 679 999 q 900 743 900 829 q 884 699 900 715 q 842 683 868 683 q 790 710 814 683 q 742 774 765 736 q 688 851 718 813 q 606 915 658 889 q 482 942 553 942 q 265 833 354 942 q 176 564 176 725 q 293 214 176 357 q 565 71 410 71 q 782 131 699 71 l 782 371 q 759 408 782 394 q 713 431 736 422 q 689 447 689 439 l 689 453 q 718 472 689 472 l 954 471 q 982 453 982 471 l 982 447 q 969 433 982 440 q 941 421 957 426 q 913 403 925 415 q 900 371 900 390 l 900 156 q 865 89 900 118 q 533 -14 739 -14 z "},"ğ":{"ha":738,"x_min":42,"x_max":693,"o":"m 363 776 q 219 826 278 776 q 149 946 160 875 q 158 969 147 961 q 181 976 168 978 q 197 965 193 975 q 258 890 213 918 q 363 861 304 861 q 469 890 422 861 q 529 965 515 918 q 547 976 533 975 q 569 969 560 978 q 578 946 579 961 q 509 826 568 875 q 363 776 450 776 m 644 667 q 692 644 693 667 q 683 632 690 638 q 654 615 672 621 q 610 607 636 610 q 569 600 583 604 q 640 515 614 567 q 667 408 667 463 q 622 257 667 322 q 500 158 578 192 q 635 92 589 139 q 681 -17 681 46 q 591 -169 681 -112 q 358 -225 501 -225 q 126 -158 211 -225 q 42 -14 42 -90 q 55 24 42 8 q 93 39 68 39 q 127 23 113 39 q 151 -17 142 7 q 176 -70 160 -42 q 212 -123 192 -99 q 272 -164 232 -147 q 367 -181 313 -181 q 504 -137 451 -181 q 557 -25 557 -94 q 515 84 557 42 q 403 133 474 126 q 350 131 367 131 q 139 209 225 131 q 53 400 53 288 q 138 602 53 524 q 360 681 222 681 q 472 674 397 681 q 644 667 547 667 m 372 176 q 499 230 451 176 q 546 365 546 283 q 487 556 546 476 q 338 636 428 636 q 219 583 264 636 q 174 450 174 531 q 231 257 174 338 q 372 176 289 176 z "},"Ġ":{"ha":1007,"x_min":51,"x_max":982,"o":"m 533 1078 q 468 1101 493 1078 q 443 1161 443 1124 q 468 1222 443 1199 q 533 1246 493 1246 q 597 1222 572 1246 q 621 1161 621 1199 q 597 1101 621 1124 q 533 1078 572 1078 m 533 -14 q 196 136 340 -14 q 51 489 51 286 q 185 857 51 715 q 517 999 318 999 q 790 914 679 999 q 900 743 900 829 q 884 699 900 715 q 842 683 868 683 q 790 710 814 683 q 742 774 765 736 q 688 851 718 813 q 606 915 658 889 q 482 942 553 942 q 265 833 354 942 q 176 564 176 725 q 293 214 176 357 q 565 71 410 71 q 782 131 699 71 l 782 371 q 759 408 782 394 q 713 431 736 422 q 689 447 689 439 l 689 453 q 718 472 689 472 l 954 471 q 982 453 982 471 l 982 447 q 969 433 982 440 q 941 421 957 426 q 913 403 925 415 q 900 371 900 390 l 900 156 q 865 89 900 118 q 533 -14 739 -14 z "},"ġ":{"ha":738,"x_min":42,"x_max":693,"o":"m 430 813 q 418 801 430 813 q 364 789 406 789 q 297 813 322 789 q 271 876 271 838 q 297 938 271 914 q 364 963 322 963 q 430 938 406 963 q 454 876 454 914 q 430 813 454 836 m 644 667 q 692 644 693 667 q 683 632 690 638 q 654 615 672 621 q 610 607 636 610 q 569 600 583 604 q 640 515 614 567 q 667 408 667 463 q 622 257 667 322 q 500 158 578 192 q 635 92 589 139 q 681 -17 681 46 q 591 -169 681 -112 q 358 -225 501 -225 q 126 -158 211 -225 q 42 -14 42 -90 q 55 24 42 8 q 93 39 68 39 q 127 23 113 39 q 151 -17 142 7 q 176 -70 160 -42 q 212 -123 192 -99 q 272 -164 232 -147 q 367 -181 313 -181 q 504 -137 451 -181 q 557 -25 557 -94 q 515 84 557 42 q 403 133 474 126 q 350 131 367 131 q 139 209 225 131 q 53 400 53 288 q 138 602 53 524 q 360 681 222 681 q 472 674 397 681 q 644 667 547 667 m 372 176 q 499 230 451 176 q 546 365 546 283 q 487 556 546 476 q 338 636 428 636 q 219 583 264 636 q 174 450 174 531 q 231 257 174 338 q 372 176 289 176 z "},"Ģ":{"ha":1007,"x_min":51,"x_max":982,"o":"m 533 -14 q 196 136 340 -14 q 51 489 51 286 q 185 857 51 715 q 517 999 318 999 q 790 914 679 999 q 900 743 900 829 q 884 699 900 715 q 842 683 868 683 q 790 710 814 683 q 742 774 765 736 q 688 851 718 813 q 606 915 658 889 q 482 942 553 942 q 265 833 354 942 q 176 564 176 725 q 293 214 176 357 q 565 71 410 71 q 782 131 699 71 l 782 371 q 759 408 782 394 q 713 431 736 422 q 689 447 689 439 l 689 453 q 718 472 689 472 l 954 471 q 982 453 982 471 l 982 447 q 969 433 982 440 q 941 421 957 426 q 913 403 925 415 q 900 371 900 390 l 900 156 q 865 89 900 118 q 533 -14 739 -14 m 496 -412 q 470 -410 482 -422 q 472 -385 458 -397 q 544 -267 532 -326 q 533 -247 550 -247 q 487 -225 506 -247 q 468 -168 468 -203 q 490 -107 468 -131 q 549 -83 513 -83 q 608 -110 585 -83 q 632 -181 632 -136 q 496 -412 632 -318 z "},"ģ":{"ha":738,"x_min":42,"x_max":693,"o":"m 349 785 q 288 812 313 785 q 264 885 264 839 q 401 1121 264 1028 q 428 1118 417 1131 q 426 1092 440 1106 q 351 972 365 1035 q 364 953 347 953 q 411 930 392 953 q 431 872 431 907 q 408 810 431 835 q 349 785 386 785 m 644 667 q 692 644 693 667 q 683 632 690 638 q 654 615 672 621 q 610 607 636 610 q 569 600 583 604 q 640 515 614 567 q 667 408 667 463 q 622 257 667 322 q 500 158 578 192 q 635 92 589 139 q 681 -17 681 46 q 591 -169 681 -112 q 358 -225 501 -225 q 126 -158 211 -225 q 42 -14 42 -90 q 55 24 42 8 q 93 39 68 39 q 127 23 113 39 q 151 -17 142 7 q 176 -70 160 -42 q 212 -123 192 -99 q 272 -164 232 -147 q 367 -181 313 -181 q 504 -137 451 -181 q 557 -25 557 -94 q 515 84 557 42 q 403 133 474 126 q 350 131 367 131 q 139 209 225 131 q 53 400 53 288 q 138 602 53 524 q 360 681 222 681 q 472 674 397 681 q 644 667 547 667 m 372 176 q 499 230 451 176 q 546 365 546 283 q 487 556 546 476 q 338 636 428 636 q 219 583 264 636 q 174 450 174 531 q 231 257 174 338 q 372 176 289 176 z "},"Ħ":{"ha":1069,"x_min":36,"x_max":1029,"o":"m 1006 792 q 1029 774 1029 792 l 1029 754 q 1006 736 1029 736 l 932 736 l 932 97 q 945 63 932 76 q 972 39 958 49 q 985 19 985 29 l 985 17 q 957 0 985 0 l 783 0 q 756 17 756 0 l 756 19 q 781 49 756 29 q 806 97 806 69 l 806 472 l 263 472 l 261 97 q 275 63 261 76 q 302 39 289 49 q 315 19 315 29 l 315 17 q 288 0 315 0 l 114 0 q 86 17 86 0 l 86 19 q 111 49 86 29 q 136 97 136 69 l 136 736 l 58 736 q 36 754 36 736 l 36 774 q 58 792 36 792 l 136 792 l 136 889 q 111 937 136 917 q 86 967 86 957 l 86 969 q 114 986 86 986 l 288 986 q 315 969 315 986 l 315 967 q 302 947 315 957 q 276 924 289 938 q 263 889 263 910 l 263 792 l 806 792 l 806 889 q 781 937 806 917 q 756 967 756 957 l 756 969 q 783 986 756 986 l 957 986 q 985 969 985 986 l 985 967 q 972 947 985 957 q 945 924 958 938 q 932 889 932 910 l 932 792 l 1006 792 m 806 533 l 806 736 l 263 736 l 261 533 l 806 533 z "},"ħ":{"ha":789,"x_min":-15,"x_max":754,"o":"m 704 100 q 731 53 707 72 q 754 22 754 33 l 754 17 q 726 0 754 0 l 560 0 q 532 17 532 0 l 532 22 q 545 42 532 32 q 571 65 558 51 q 582 99 583 78 l 568 382 q 517 564 563 501 q 397 626 471 626 q 272 572 321 626 q 224 435 224 518 l 224 97 q 251 52 224 71 q 279 22 279 33 l 279 18 q 250 0 279 0 l 76 0 q 50 18 50 0 l 50 22 q 76 52 50 33 q 101 97 101 71 l 101 760 l 4 760 q -15 776 -15 760 l -15 800 q 4 815 -15 815 l 101 815 l 101 882 q 88 920 101 906 q 62 944 75 935 q 49 961 49 953 l 49 965 q 68 989 49 981 l 182 1039 q 211 1042 200 1047 q 222 1021 222 1038 l 221 815 l 397 815 q 418 799 418 815 l 418 779 q 397 760 418 760 l 221 760 l 219 571 q 426 681 290 681 q 608 605 535 681 q 689 379 681 529 l 704 100 z "},"Ĩ":{"ha":394,"x_min":-36,"x_max":439,"o":"m 103 1242 q 219 1202 150 1242 q 315 1163 289 1163 q 386 1210 364 1163 q 408 1228 393 1228 l 418 1228 q 432 1204 439 1228 q 300 1075 400 1075 q 187 1115 256 1075 q 88 1156 118 1156 q 17 1107 42 1156 q -6 1086 7 1086 l -18 1086 q -32 1110 -36 1086 q 13 1205 -21 1168 q 103 1242 47 1242 m 83 17 l 83 19 q 108 49 83 29 q 133 96 133 68 l 133 889 q 108 937 133 917 q 83 967 83 957 l 83 969 q 111 986 83 986 l 285 986 q 313 969 313 986 l 313 967 q 299 947 313 957 q 273 924 286 938 q 260 889 260 910 l 260 96 q 286 49 260 68 q 313 19 313 29 l 313 17 q 285 0 313 0 l 111 0 q 83 17 83 0 z "},"ĩ":{"ha":338,"x_min":-68,"x_max":406,"o":"m 71 983 q 188 944 118 983 q 283 904 258 904 q 354 951 333 904 q 378 969 361 969 l 386 969 q 401 946 406 969 q 268 817 369 817 q 155 857 224 817 q 56 897 86 897 q -15 849 8 897 q -37 828 -25 828 l -49 828 q -64 851 -68 828 q -18 946 -53 908 q 71 983 17 983 m 86 0 q 60 18 60 0 l 60 24 q 72 42 60 33 q 97 65 85 51 q 110 99 110 78 l 110 513 q 85 568 110 544 q 60 599 60 592 l 60 601 q 81 622 60 611 l 188 675 q 220 678 210 683 q 231 656 231 672 l 231 99 q 239 70 231 82 q 258 53 247 58 q 278 40 269 47 q 286 24 286 32 l 286 18 q 257 0 286 0 l 86 0 z "},"Ī":{"ha":394,"x_min":-12,"x_max":401,"o":"m 11 1126 q -12 1147 -12 1126 l -12 1186 q 11 1207 -12 1207 l 376 1207 q 401 1186 401 1207 l 401 1147 q 376 1126 401 1126 l 11 1126 m 83 17 l 83 19 q 108 49 83 29 q 133 96 133 68 l 133 889 q 108 937 133 917 q 83 967 83 957 l 83 969 q 111 986 83 986 l 285 986 q 313 969 313 986 l 313 967 q 299 947 313 957 q 273 924 286 938 q 260 889 260 910 l 260 96 q 286 49 260 68 q 313 19 313 29 l 313 17 q 285 0 313 0 l 111 0 q 83 17 83 0 z "},"ī":{"ha":338,"x_min":-31,"x_max":383,"o":"m -6 839 q -31 861 -31 839 l -31 900 q -6 921 -31 921 l 360 921 q 383 900 383 921 l 383 861 q 360 839 383 839 l -6 839 m 86 0 q 60 18 60 0 l 60 24 q 72 42 60 33 q 97 65 85 51 q 110 99 110 78 l 110 513 q 85 568 110 544 q 60 599 60 592 l 60 601 q 81 622 60 611 l 188 675 q 220 678 210 683 q 231 656 231 672 l 231 99 q 239 70 231 82 q 258 53 247 58 q 278 40 269 47 q 286 24 286 32 l 286 18 q 257 0 286 0 l 86 0 z "},"Į":{"ha":394,"x_min":43,"x_max":313,"o":"m 313 967 q 299 947 313 957 q 273 924 286 938 q 260 889 260 910 l 260 96 q 286 49 260 68 q 313 19 313 29 l 313 17 q 285 0 313 0 l 228 0 q 135 -165 135 -90 q 150 -217 135 -199 q 190 -235 165 -235 q 228 -226 200 -235 q 253 -243 249 -218 q 238 -278 257 -268 q 171 -292 213 -292 q 81 -263 119 -292 q 43 -183 43 -235 q 80 -87 43 -136 q 176 0 117 -39 l 111 0 q 83 17 83 0 l 83 19 q 108 49 83 29 q 133 96 133 68 l 133 889 q 108 937 133 917 q 83 967 83 957 l 83 969 q 111 986 83 986 l 285 986 q 313 969 313 986 l 313 967 z "},"į":{"ha":338,"x_min":35,"x_max":286,"o":"m 167 799 q 99 822 124 799 q 74 885 74 846 q 99 948 74 924 q 167 972 125 972 q 232 948 207 972 q 257 885 257 924 q 232 822 257 846 q 167 799 207 799 m 231 99 q 239 70 231 82 q 258 53 247 58 q 278 40 269 47 q 286 24 286 32 l 286 18 q 257 0 286 0 l 218 0 q 126 -165 126 -92 q 181 -235 126 -235 q 218 -226 190 -235 q 243 -243 239 -218 q 229 -278 247 -268 q 163 -292 201 -292 q 73 -263 111 -292 q 35 -183 35 -235 q 167 0 35 -86 l 86 0 q 60 18 60 0 l 60 24 q 72 42 60 33 q 97 65 85 51 q 110 99 110 78 l 110 513 q 85 568 110 544 q 60 599 60 592 l 60 601 q 81 622 60 611 l 188 675 q 220 678 210 683 q 231 656 231 672 l 231 99 z "},"İ":{"ha":394,"x_min":83,"x_max":313,"o":"m 201 1078 q 136 1101 161 1078 q 111 1161 111 1124 q 136 1222 111 1199 q 201 1246 161 1246 q 265 1222 240 1246 q 289 1161 289 1199 q 265 1101 289 1124 q 201 1078 240 1078 m 83 17 l 83 19 q 108 49 83 29 q 133 96 133 68 l 133 889 q 108 937 133 917 q 83 967 83 957 l 83 969 q 111 986 83 986 l 285 986 q 313 969 313 986 l 313 967 q 299 947 313 957 q 273 924 286 938 q 260 889 260 910 l 260 96 q 286 49 260 68 q 313 19 313 29 l 313 17 q 285 0 313 0 l 111 0 q 83 17 83 0 z "},"ı":{"ha":333,"x_min":60,"x_max":286,"o":"m 86 0 q 60 18 60 0 l 60 24 q 72 42 60 33 q 97 65 85 51 q 110 99 110 78 l 110 513 q 85 568 110 544 q 60 599 60 592 l 60 601 q 81 622 60 611 l 188 675 q 220 678 210 683 q 231 656 231 672 l 231 99 q 239 70 231 82 q 258 53 247 58 q 278 40 269 47 q 286 24 286 32 l 286 18 q 257 0 286 0 l 86 0 z "},"Ĳ":{"ha":1099,"x_min":83,"x_max":1033,"o":"m 83 17 l 83 19 q 108 49 83 29 q 133 96 133 68 l 133 889 q 108 937 133 917 q 83 967 83 957 l 83 969 q 111 986 83 986 l 285 986 q 313 969 313 986 l 313 967 q 299 947 313 957 q 273 924 286 938 q 260 889 260 910 l 260 96 q 286 49 260 68 q 313 19 313 29 l 313 17 q 285 0 313 0 l 111 0 q 83 17 83 0 m 853 889 q 828 937 853 917 q 803 967 803 957 l 803 969 q 831 986 803 986 l 1006 986 q 1033 969 1033 986 l 1033 967 q 1020 947 1033 957 q 994 924 1007 938 q 981 889 981 910 l 978 354 q 683 -14 976 -11 q 550 8 608 -14 q 459 67 492 31 q 410 140 426 103 q 394 210 394 176 q 410 256 394 239 q 454 274 426 274 q 503 250 485 274 q 531 192 521 226 q 556 124 542 158 q 606 67 571 90 q 696 43 640 43 q 808 109 764 43 q 853 296 853 175 l 853 889 z "},"ĳ":{"ha":669,"x_min":60,"x_max":597,"o":"m 167 799 q 99 822 124 799 q 74 885 74 846 q 99 948 74 924 q 167 972 125 972 q 232 948 207 972 q 257 885 257 924 q 232 822 257 846 q 167 799 207 799 m 573 822 q 561 810 573 822 q 507 799 549 799 q 440 822 465 799 q 414 885 414 846 q 440 948 414 924 q 507 972 465 972 q 573 948 549 972 q 597 885 597 924 q 573 822 597 846 m 86 0 q 60 18 60 0 l 60 24 q 72 42 60 33 q 97 65 85 51 q 110 99 110 78 l 110 513 q 85 568 110 544 q 60 599 60 592 l 60 601 q 81 622 60 611 l 188 675 q 220 678 210 683 q 231 656 231 672 l 231 99 q 239 70 231 82 q 258 53 247 58 q 278 40 269 47 q 286 24 286 32 l 286 18 q 257 0 286 0 l 86 0 m 411 -256 q 299 -225 342 -256 q 257 -144 257 -194 q 272 -106 257 -121 q 311 -90 286 -90 q 353 -108 338 -90 q 372 -149 368 -126 q 391 -189 376 -171 q 432 -207 406 -207 q 477 -186 460 -207 q 494 -132 494 -165 q 475 -46 494 -97 q 456 36 456 6 l 456 513 q 431 567 456 544 q 406 597 406 589 l 406 601 q 426 622 406 611 l 538 675 q 569 678 557 685 q 581 656 581 671 l 581 4 q 558 -150 581 -82 q 411 -256 522 -256 z "},"Ķ":{"ha":943,"x_min":83,"x_max":964,"o":"m 893 99 q 920 64 906 78 q 944 45 935 50 q 958 34 953 40 q 964 19 964 28 l 964 17 q 940 0 964 0 l 742 0 q 717 17 717 0 l 717 19 q 740 48 717 28 q 750 92 764 68 l 461 550 l 260 351 l 260 99 q 287 51 260 72 q 314 19 314 31 l 314 17 q 285 0 314 0 l 111 0 q 83 17 83 0 l 83 19 q 108 51 83 31 q 133 99 133 72 l 133 889 q 108 937 133 917 q 83 967 83 957 l 83 969 q 111 986 83 986 l 285 986 q 313 969 313 986 l 313 967 q 299 947 313 957 q 273 924 286 938 q 260 889 260 910 l 260 436 l 713 885 q 728 920 732 910 q 710 944 724 931 q 696 967 696 958 l 696 969 q 725 986 696 986 l 869 986 q 897 969 897 986 l 897 967 q 883 946 897 956 q 843 919 869 936 q 799 885 817 903 l 546 635 l 893 99 m 471 -107 q 482 -95 471 -107 q 529 -83 493 -83 q 589 -110 565 -83 q 613 -181 613 -136 q 476 -412 613 -318 q 451 -410 463 -422 q 453 -385 439 -397 q 526 -267 511 -328 q 514 -247 531 -247 q 467 -225 486 -247 q 449 -168 449 -203 q 471 -107 449 -131 z "},"ķ":{"ha":726,"x_min":46,"x_max":740,"o":"m 671 79 q 711 49 682 65 q 740 19 740 33 l 740 17 q 719 0 740 0 l 535 0 q 514 17 514 0 l 514 19 q 534 45 514 29 q 539 79 554 61 l 328 344 l 222 247 l 222 97 q 249 52 222 71 q 276 22 276 33 l 276 18 q 247 0 276 0 l 78 0 q 50 18 50 0 l 50 22 q 75 52 50 33 q 100 97 100 71 l 100 878 q 86 917 100 901 q 59 943 72 933 q 46 961 46 953 l 46 964 q 65 986 46 975 l 178 1039 q 210 1041 199 1047 q 222 1019 222 1035 l 222 322 l 503 569 q 511 598 518 589 q 488 622 504 607 q 472 646 472 636 l 472 650 q 494 667 472 667 l 651 667 q 671 651 671 667 l 671 647 q 657 626 671 636 q 617 600 643 615 q 574 571 590 585 l 408 418 l 671 79 m 317 -107 q 328 -95 317 -107 q 375 -83 339 -83 q 435 -110 411 -83 q 460 -181 460 -136 q 324 -412 460 -318 q 297 -410 310 -422 q 299 -385 285 -397 q 372 -267 360 -326 q 361 -247 378 -247 q 313 -225 332 -247 q 294 -168 294 -203 q 317 -107 294 -131 z "},"ĸ":{"ha":733,"x_min":53,"x_max":750,"o":"m 685 79 q 724 49 697 64 q 750 19 750 33 l 750 17 q 729 0 750 0 l 550 0 q 528 17 528 0 l 528 19 q 548 45 528 29 q 554 79 568 61 l 339 344 l 233 249 l 233 97 q 260 52 233 71 q 288 22 288 33 l 288 18 q 258 0 288 0 l 86 0 q 57 18 57 0 l 57 22 q 83 52 57 33 q 108 97 108 71 l 108 650 q 81 703 108 681 q 53 732 53 725 l 53 736 q 74 757 53 749 l 188 810 q 221 813 208 819 q 233 792 233 807 l 233 322 l 513 569 q 521 598 528 589 q 498 622 514 607 q 482 646 482 636 l 482 650 q 504 667 482 667 l 661 667 q 682 651 682 667 l 682 647 q 668 626 682 636 q 628 600 654 615 q 585 571 601 585 l 419 418 l 685 79 z "},"Ĺ":{"ha":799,"x_min":42,"x_max":792,"o":"m 79 1086 q 46 1103 54 1083 q 61 1133 42 1124 l 336 1256 q 383 1235 372 1274 l 396 1188 q 392 1161 400 1172 q 368 1149 385 1150 l 79 1086 m 111 0 q 83 17 83 0 l 83 19 q 108 50 83 31 q 133 97 133 69 l 133 889 q 108 937 133 918 q 83 967 83 956 l 83 969 q 111 986 83 986 l 286 986 q 314 969 314 986 l 314 967 q 287 937 314 956 q 260 889 260 918 l 260 111 q 304 57 260 57 l 613 57 q 663 81 640 57 q 697 133 685 104 q 726 186 710 163 q 758 210 743 210 l 769 210 q 785 185 792 210 l 750 32 q 715 0 743 0 l 111 0 z "},"ĺ":{"ha":331,"x_min":-31,"x_max":329,"o":"m 8 1099 q -25 1114 -18 1096 q -11 1146 -31 1135 l 264 1268 q 311 1247 300 1285 l 324 1200 q 322 1174 329 1185 q 296 1161 314 1163 l 8 1099 m 79 0 q 53 18 53 0 l 53 22 q 77 52 53 33 q 101 97 101 71 l 101 878 q 90 917 101 901 q 65 943 78 933 q 53 961 53 953 l 53 964 q 72 986 53 975 l 181 1039 q 213 1041 201 1047 q 224 1019 224 1035 l 224 97 q 251 52 224 71 q 278 22 278 33 l 278 18 q 250 0 278 0 l 79 0 z "},"Ļ":{"ha":799,"x_min":83,"x_max":792,"o":"m 111 0 q 83 17 83 0 l 83 19 q 108 50 83 31 q 133 97 133 69 l 133 889 q 108 937 133 918 q 83 967 83 956 l 83 969 q 111 986 83 986 l 286 986 q 314 969 314 986 l 314 967 q 287 937 314 956 q 260 889 260 918 l 260 111 q 304 57 260 57 l 613 57 q 663 81 640 57 q 697 133 685 104 q 726 186 710 163 q 758 210 743 210 l 769 210 q 785 185 792 210 l 750 32 q 715 0 743 0 l 111 0 m 383 -412 q 356 -410 368 -422 q 358 -385 344 -397 q 432 -267 419 -325 q 421 -247 436 -247 q 373 -225 392 -247 q 354 -168 354 -203 q 376 -107 354 -131 q 435 -83 399 -83 q 495 -110 471 -83 q 519 -181 519 -136 q 383 -412 519 -317 z "},"ļ":{"ha":331,"x_min":53,"x_max":278,"o":"m 79 0 q 53 18 53 0 l 53 22 q 77 52 53 33 q 101 97 101 71 l 101 878 q 90 917 101 901 q 65 943 78 933 q 53 961 53 953 l 53 964 q 72 986 53 975 l 181 1039 q 213 1041 201 1047 q 224 1019 224 1035 l 224 97 q 251 52 224 71 q 278 22 278 33 l 278 18 q 250 0 278 0 l 79 0 m 122 -390 q 96 -387 107 -399 q 97 -361 85 -375 q 171 -244 158 -303 q 158 -225 175 -225 q 112 -203 131 -225 q 93 -146 93 -181 q 115 -84 93 -108 q 174 -60 138 -60 q 233 -86 210 -60 q 257 -158 257 -112 q 122 -390 257 -296 z "},"Ľ":{"ha":801,"x_min":83,"x_max":792,"o":"m 494 708 l 486 714 q 489 749 471 725 q 571 1014 571 860 q 592 1043 571 1043 l 639 1043 q 663 1014 663 1043 q 531 713 663 829 q 494 708 510 694 m 111 0 q 83 17 83 0 l 83 19 q 108 50 83 31 q 133 97 133 69 l 133 889 q 108 937 133 918 q 83 967 83 956 l 83 969 q 111 986 83 986 l 286 986 q 314 969 314 986 l 314 967 q 287 937 314 956 q 260 889 260 918 l 260 111 q 304 57 260 57 l 613 57 q 663 81 640 57 q 697 133 685 104 q 726 186 710 163 q 758 210 743 210 l 769 210 q 785 185 792 210 l 750 32 q 715 0 743 0 l 111 0 z "},"ľ":{"ha":351,"x_min":53,"x_max":447,"o":"m 279 783 l 272 789 q 275 824 257 801 q 356 1090 356 935 q 362 1110 356 1101 q 378 1118 368 1118 l 424 1118 q 447 1090 447 1118 q 317 789 447 904 q 279 783 297 772 m 79 0 q 53 18 53 0 l 53 22 q 77 52 53 33 q 101 97 101 71 l 101 878 q 90 917 101 901 q 65 943 78 933 q 53 961 53 953 l 53 964 q 72 986 53 975 l 181 1039 q 213 1041 201 1047 q 224 1019 224 1035 l 224 97 q 251 52 224 71 q 278 22 278 33 l 278 18 q 250 0 278 0 l 79 0 z "},"Ŀ":{"ha":803,"x_min":83,"x_max":792,"o":"m 111 0 q 83 17 83 0 l 83 19 q 108 50 83 31 q 133 97 133 69 l 133 889 q 108 937 133 918 q 83 967 83 956 l 83 969 q 111 986 83 986 l 286 986 q 314 969 314 986 l 314 967 q 287 937 314 956 q 260 889 260 918 l 260 111 q 304 57 260 57 l 613 57 q 663 81 640 57 q 697 133 685 104 q 726 186 710 163 q 758 210 743 210 l 769 210 q 785 185 792 210 l 750 32 q 715 0 743 0 l 111 0 m 625 472 q 613 461 625 472 q 561 450 600 450 q 497 472 522 450 q 472 533 472 493 q 497 597 472 575 q 561 618 522 618 q 625 597 600 618 q 650 533 650 575 q 625 472 650 493 z "},"ŀ":{"ha":451,"x_min":53,"x_max":467,"o":"m 79 0 q 53 18 53 0 l 53 22 q 77 52 53 33 q 101 97 101 71 l 101 878 q 90 917 101 901 q 65 943 78 933 q 53 961 53 953 l 53 964 q 72 986 53 975 l 181 1039 q 213 1041 201 1047 q 224 1019 224 1035 l 224 97 q 251 52 224 71 q 278 22 278 33 l 278 18 q 250 0 278 0 l 79 0 m 442 474 q 429 464 442 474 q 378 453 417 453 q 313 474 339 453 q 288 536 288 496 q 313 599 288 578 q 378 621 339 621 q 442 599 417 621 q 467 536 467 576 q 442 474 467 496 z "},"Ł":{"ha":835,"x_min":19,"x_max":828,"o":"m 806 210 q 821 185 828 210 l 786 32 q 751 0 779 0 l 147 0 q 119 17 119 0 l 119 19 q 144 50 119 31 q 169 97 169 69 l 169 394 l 65 339 q 35 347 40 329 l 28 361 q 42 390 19 379 l 169 458 l 169 889 q 144 937 169 918 q 119 967 119 956 l 119 969 q 147 986 119 986 l 322 986 q 350 969 350 986 l 350 967 q 323 937 350 956 q 296 889 296 918 l 296 525 l 438 600 q 467 592 458 611 l 474 579 q 460 550 482 561 l 296 463 l 296 111 q 340 57 296 57 l 649 57 q 699 81 676 57 q 733 133 721 104 q 763 186 746 163 q 794 210 779 210 l 806 210 z "},"ł":{"ha":413,"x_min":14,"x_max":404,"o":"m 396 635 q 388 610 404 621 l 275 535 l 275 97 q 302 52 275 71 q 329 22 329 33 l 329 18 q 300 0 329 0 l 131 0 q 103 18 103 0 l 103 22 q 128 52 103 33 q 153 97 153 71 l 153 454 l 60 393 q 36 396 49 383 l 22 418 q 28 442 14 431 l 153 525 l 153 878 q 140 917 153 901 q 115 943 128 933 q 103 961 103 953 l 103 964 q 124 986 103 975 l 231 1039 q 264 1041 253 1047 q 275 1019 275 1035 l 275 607 l 351 658 q 382 657 374 672 l 396 635 z "},"Ń":{"ha":1042,"x_min":81,"x_max":967,"o":"m 408 1086 q 375 1103 382 1083 q 389 1133 368 1122 l 665 1256 q 713 1235 699 1272 l 724 1188 q 722 1161 729 1172 q 696 1149 714 1150 l 408 1086 m 939 986 q 967 968 967 986 l 967 965 q 939 936 967 956 q 911 889 911 917 l 911 38 q 876 0 911 0 l 842 0 q 797 36 821 0 l 204 844 l 204 101 q 219 65 204 79 q 249 40 233 50 q 264 19 264 29 l 264 17 q 235 0 264 0 l 108 0 q 81 17 81 0 l 81 19 q 107 51 81 29 q 133 101 133 72 l 133 888 q 120 922 133 908 q 94 944 107 935 q 81 963 81 953 l 81 968 q 108 986 81 986 l 214 986 q 264 958 244 986 l 840 161 l 840 889 q 812 936 840 917 q 783 965 783 956 l 783 968 q 813 986 783 986 l 939 986 z "},"ń":{"ha":797,"x_min":53,"x_max":764,"o":"m 296 774 q 260 783 271 767 q 268 817 250 801 l 513 992 q 564 982 544 1015 l 585 938 q 587 911 592 924 q 565 893 582 899 l 296 774 m 714 100 q 728 64 715 78 q 752 41 740 50 q 764 22 764 32 l 764 17 q 735 -1 764 -1 l 569 -1 q 540 17 540 -1 l 540 22 q 566 51 540 32 q 590 99 592 71 l 576 376 q 526 563 571 500 q 406 626 481 626 q 281 572 329 626 q 232 435 232 518 l 232 97 q 241 69 232 81 q 260 51 250 57 q 278 38 269 46 q 288 22 288 31 l 288 17 q 258 -1 288 -1 l 85 -1 q 57 17 57 -1 l 57 22 q 84 51 57 33 q 111 97 111 69 l 111 518 q 97 559 111 544 q 67 582 82 574 q 53 600 53 590 l 53 604 q 75 625 53 617 l 179 675 q 208 678 199 685 q 218 654 218 671 l 218 553 q 306 646 249 611 q 435 681 364 681 q 616 604 543 681 q 699 374 689 528 l 714 100 z "},"Ņ":{"ha":1042,"x_min":81,"x_max":967,"o":"m 939 986 q 967 968 967 986 l 967 965 q 939 936 967 956 q 911 889 911 917 l 911 38 q 876 0 911 0 l 842 0 q 797 36 821 0 l 204 844 l 204 101 q 219 65 204 79 q 249 40 233 50 q 264 19 264 29 l 264 17 q 235 0 264 0 l 108 0 q 81 17 81 0 l 81 19 q 107 51 81 29 q 133 101 133 72 l 133 888 q 120 922 133 908 q 94 944 107 935 q 81 963 81 953 l 81 968 q 108 986 81 986 l 214 986 q 264 958 244 986 l 840 161 l 840 889 q 812 936 840 917 q 783 965 783 956 l 783 968 q 813 986 783 986 l 939 986 m 489 -107 q 500 -95 489 -107 q 547 -83 511 -83 q 607 -110 583 -83 q 631 -181 631 -136 q 494 -412 631 -318 q 469 -410 481 -422 q 469 -385 457 -397 q 543 -267 531 -326 q 532 -247 547 -247 q 485 -225 504 -247 q 467 -168 467 -203 q 489 -107 467 -131 z "},"ņ":{"ha":797,"x_min":53,"x_max":764,"o":"m 714 100 q 728 64 715 78 q 752 41 740 50 q 764 22 764 32 l 764 17 q 735 -1 764 -1 l 569 -1 q 540 17 540 -1 l 540 22 q 566 51 540 32 q 590 99 592 71 l 576 376 q 526 563 571 500 q 406 626 481 626 q 281 572 329 626 q 232 435 232 518 l 232 97 q 241 69 232 81 q 260 51 250 57 q 278 38 269 46 q 288 22 288 31 l 288 17 q 258 -1 288 -1 l 85 -1 q 57 17 57 -1 l 57 22 q 84 51 57 33 q 111 97 111 69 l 111 518 q 97 559 111 544 q 67 582 82 574 q 53 600 53 590 l 53 604 q 75 625 53 617 l 179 675 q 208 678 199 685 q 218 654 218 671 l 218 553 q 306 646 249 611 q 435 681 364 681 q 616 604 543 681 q 699 374 689 528 l 714 100 m 356 -107 q 367 -95 356 -107 q 414 -83 378 -83 q 474 -110 450 -83 q 497 -181 497 -136 q 363 -412 497 -318 q 335 -410 347 -422 q 338 -385 324 -397 q 411 -267 399 -325 q 400 -247 417 -247 q 352 -225 371 -247 q 333 -168 333 -203 q 356 -107 333 -131 z "},"Ň":{"ha":1042,"x_min":81,"x_max":967,"o":"m 465 1057 l 306 1204 q 301 1225 296 1214 q 317 1240 306 1236 q 340 1238 329 1243 l 524 1121 l 706 1238 q 731 1240 718 1244 q 746 1224 743 1235 q 740 1204 749 1214 l 578 1057 q 535 1039 556 1039 l 507 1039 q 465 1057 485 1039 m 939 986 q 967 968 967 986 l 967 965 q 939 936 967 956 q 911 889 911 917 l 911 38 q 876 0 911 0 l 842 0 q 797 36 821 0 l 204 844 l 204 101 q 219 65 204 79 q 249 40 233 50 q 264 19 264 29 l 264 17 q 235 0 264 0 l 108 0 q 81 17 81 0 l 81 19 q 107 51 81 29 q 133 101 133 72 l 133 888 q 120 922 133 908 q 94 944 107 935 q 81 963 81 953 l 81 968 q 108 986 81 986 l 214 986 q 264 958 244 986 l 840 161 l 840 889 q 812 936 840 917 q 783 965 783 956 l 783 968 q 813 986 783 986 l 939 986 z "},"ň":{"ha":797,"x_min":53,"x_max":764,"o":"m 356 790 l 196 942 q 191 963 186 951 q 208 977 196 974 q 231 975 219 981 l 414 854 l 596 975 q 620 978 607 983 q 636 962 633 972 q 631 942 639 951 l 468 790 q 425 771 447 771 l 397 771 q 356 790 375 771 m 714 100 q 728 64 715 78 q 752 41 740 50 q 764 22 764 32 l 764 17 q 735 -1 764 -1 l 569 -1 q 540 17 540 -1 l 540 22 q 566 51 540 32 q 590 99 592 71 l 576 376 q 526 563 571 500 q 406 626 481 626 q 281 572 329 626 q 232 435 232 518 l 232 97 q 241 69 232 81 q 260 51 250 57 q 278 38 269 46 q 288 22 288 31 l 288 17 q 258 -1 288 -1 l 85 -1 q 57 17 57 -1 l 57 22 q 84 51 57 33 q 111 97 111 69 l 111 518 q 97 559 111 544 q 67 582 82 574 q 53 600 53 590 l 53 604 q 75 625 53 617 l 179 675 q 208 678 199 685 q 218 654 218 671 l 218 553 q 306 646 249 611 q 435 681 364 681 q 616 604 543 681 q 699 374 689 528 l 714 100 z "},"ŉ":{"ha":850,"x_min":-76,"x_max":818,"o":"m 18 1050 q 81 1022 56 1050 q 107 947 107 994 q -37 703 107 803 q -64 708 -51 694 q -62 733 -76 721 q 15 857 0 793 q 3 878 19 878 q -47 901 -26 878 q -67 960 -67 924 q -44 1025 -67 1000 q 18 1050 -21 1050 m 768 100 q 782 64 769 78 q 806 41 794 50 q 818 22 818 32 l 818 17 q 789 -1 818 -1 l 624 -1 q 594 17 594 -1 l 594 22 q 620 51 594 32 q 644 99 646 71 l 631 376 q 580 563 625 500 q 460 626 535 626 q 343 580 390 626 q 288 461 296 533 l 288 97 q 315 51 288 69 q 342 22 342 33 l 342 17 q 313 -1 342 -1 l 140 -1 q 113 17 113 -1 l 113 22 q 139 51 113 33 q 165 97 165 69 l 165 518 q 151 559 165 544 q 122 582 136 574 q 107 600 107 590 l 107 604 q 129 625 107 617 l 233 675 q 263 678 253 685 q 272 654 272 671 l 272 553 q 360 646 303 611 q 489 681 418 681 q 672 604 599 681 q 753 374 744 528 l 768 100 z "},"Ŋ":{"ha":1040,"x_min":81,"x_max":967,"o":"m 939 986 q 967 969 967 986 l 967 967 q 953 947 967 957 q 924 921 939 936 q 910 885 910 906 l 910 32 q 846 -190 910 -110 q 657 -272 782 -271 q 472 -204 540 -274 q 404 -61 404 -135 q 421 -13 404 -31 q 465 4 438 4 q 508 -19 493 4 q 533 -74 524 -42 q 554 -140 542 -107 q 598 -197 567 -174 q 679 -219 629 -219 q 792 -157 750 -219 q 838 7 833 -94 l 206 844 l 206 101 q 219 65 206 79 q 248 40 233 50 q 263 19 263 29 l 263 17 q 235 0 263 0 l 108 0 q 81 17 81 0 l 81 19 q 107 51 81 29 q 133 101 133 72 l 133 885 q 107 934 133 913 q 81 965 81 956 l 81 968 q 108 986 81 986 l 208 986 q 257 958 236 986 l 838 165 l 838 885 q 811 935 838 913 q 785 967 785 957 l 785 969 q 813 986 785 986 l 939 986 z "},"ŋ":{"ha":782,"x_min":54,"x_max":722,"o":"m 718 21 q 697 -150 722 -74 q 550 -260 664 -260 q 443 -228 488 -260 q 399 -147 399 -196 q 415 -110 399 -124 q 456 -96 431 -96 q 494 -114 481 -96 q 513 -153 508 -132 q 531 -192 517 -174 q 571 -210 544 -210 q 617 -189 600 -210 q 635 -132 635 -168 q 615 -47 635 -100 q 593 51 596 6 l 576 368 q 403 626 561 626 q 288 580 335 626 q 232 461 240 533 l 232 99 q 259 51 232 71 q 286 22 286 32 l 286 17 q 258 0 286 0 l 85 0 q 57 17 57 0 l 57 22 q 84 51 57 32 q 111 99 111 71 l 111 515 q 83 567 111 543 q 54 600 54 590 l 54 604 q 75 625 54 617 l 179 675 q 217 654 217 694 l 218 556 q 302 648 246 615 q 431 681 358 681 q 614 602 540 681 q 697 365 688 524 l 718 21 z "},"Ō":{"ha":1071,"x_min":53,"x_max":1019,"o":"m 349 1126 q 325 1147 325 1126 l 325 1186 q 349 1207 325 1207 l 714 1207 q 739 1186 739 1207 l 739 1147 q 714 1126 739 1126 l 349 1126 m 547 -14 q 193 138 333 -14 q 53 496 53 289 q 189 857 53 714 q 538 1000 325 1000 q 883 850 747 1000 q 1019 488 1019 700 q 883 133 1019 281 q 547 -14 746 -14 m 578 46 q 804 153 714 46 q 894 404 894 260 q 782 785 894 629 q 494 940 669 940 q 267 838 356 940 q 178 581 178 735 q 291 203 178 360 q 578 46 404 46 z "},"ō":{"ha":785,"x_min":46,"x_max":736,"o":"m 208 839 q 183 861 183 839 l 183 900 q 208 921 183 921 l 574 921 q 597 900 597 921 l 597 861 q 574 839 597 839 l 208 839 m 408 -14 q 147 91 247 -14 q 46 343 46 196 q 143 584 46 488 q 383 681 240 681 q 637 578 538 681 q 736 328 736 476 q 644 84 736 182 q 408 -14 553 -14 m 425 32 q 560 101 507 32 q 614 286 614 171 q 544 534 614 433 q 369 635 475 635 q 225 566 281 635 q 169 382 169 497 q 242 138 169 243 q 425 32 314 32 z "},"Ő":{"ha":1071,"x_min":53,"x_max":1019,"o":"m 357 1046 q 360 1079 346 1056 l 517 1300 q 563 1310 539 1333 l 590 1285 q 590 1236 618 1257 l 390 1053 q 357 1046 372 1035 m 610 1046 q 613 1078 597 1056 l 769 1300 q 815 1308 790 1331 l 843 1283 q 842 1235 871 1257 l 643 1051 q 610 1046 625 1035 m 547 -14 q 193 138 333 -14 q 53 496 53 289 q 189 857 53 714 q 538 1000 325 1000 q 883 850 747 1000 q 1019 488 1019 700 q 883 133 1019 281 q 547 -14 746 -14 m 578 46 q 804 153 714 46 q 894 404 894 260 q 782 785 894 629 q 494 940 669 940 q 267 838 356 940 q 178 581 178 735 q 291 203 178 360 q 578 46 404 46 z "},"ő":{"ha":785,"x_min":46,"x_max":736,"o":"m 217 767 q 219 800 203 776 l 376 1021 q 422 1029 399 1053 l 449 1004 q 450 957 479 979 l 250 772 q 217 767 229 756 m 468 767 q 471 799 457 776 l 629 1021 q 675 1029 650 1053 l 701 1003 q 701 956 732 976 l 503 772 q 468 767 483 756 m 408 -14 q 147 91 247 -14 q 46 343 46 196 q 143 584 46 488 q 383 681 240 681 q 637 578 538 681 q 736 328 736 476 q 644 84 736 182 q 408 -14 553 -14 m 425 32 q 560 101 507 32 q 614 286 614 171 q 544 534 614 433 q 369 635 475 635 q 225 566 281 635 q 169 382 169 497 q 242 138 169 243 q 425 32 314 32 z "},"Œ":{"ha":1539,"x_min":47,"x_max":1518,"o":"m 1496 196 q 1511 172 1518 196 l 1476 32 q 1442 0 1469 0 l 874 0 q 844 18 844 0 l 844 21 q 868 51 844 31 q 892 99 892 71 l 892 169 q 737 35 829 83 q 536 -14 644 -14 q 192 133 336 -14 q 47 496 47 279 q 178 860 47 719 q 517 1000 310 1000 q 729 947 631 1000 q 892 803 828 894 l 892 888 q 868 936 892 915 q 844 967 844 957 l 844 971 q 874 986 844 986 l 1401 986 q 1436 956 1429 986 l 1468 821 q 1450 794 1475 794 l 1440 794 q 1413 816 1428 794 q 1385 863 1397 838 q 1353 909 1374 888 q 1307 931 1332 931 l 1029 929 q 990 885 990 929 l 990 531 l 1272 531 q 1308 551 1294 531 q 1330 592 1322 572 q 1346 613 1338 613 l 1356 613 q 1374 583 1374 613 l 1374 424 q 1356 394 1374 394 l 1346 394 q 1330 415 1338 394 q 1308 455 1322 435 q 1272 475 1294 475 l 990 475 l 990 111 q 1040 58 990 58 l 1346 58 q 1406 92 1381 58 q 1450 161 1432 126 q 1482 196 1468 196 l 1496 196 m 572 46 q 799 147 710 46 q 889 404 889 247 q 835 653 889 529 q 687 858 781 776 q 488 940 593 940 q 261 838 350 940 q 172 581 172 736 q 226 325 172 449 q 372 124 279 201 q 572 46 465 46 z "},"œ":{"ha":1253,"x_min":46,"x_max":1218,"o":"m 1174 206 q 1201 216 1183 221 q 1215 193 1218 211 q 1124 49 1199 113 q 935 -14 1050 -14 q 783 24 853 -14 q 671 129 714 63 q 556 24 626 63 q 400 -14 485 -14 q 151 90 256 -14 q 46 343 46 193 q 145 584 46 488 q 393 681 244 681 q 546 642 474 681 q 665 535 618 603 q 931 681 757 681 q 1124 616 1049 681 q 1199 471 1199 551 q 1136 393 1199 414 l 749 267 q 834 126 774 178 q 978 75 894 75 q 1174 206 1107 75 m 915 636 q 784 564 835 636 q 733 383 733 492 q 739 311 733 340 l 1049 418 q 1082 472 1082 429 q 1033 580 1082 524 q 915 636 983 636 m 425 32 q 560 102 508 32 q 613 276 613 172 q 542 522 613 410 q 363 635 471 635 q 223 565 276 635 q 169 392 169 494 q 242 138 169 243 q 425 32 314 32 z "},"Ŕ":{"ha":900,"x_min":83,"x_max":890,"o":"m 329 1086 q 296 1103 303 1083 q 310 1133 289 1122 l 586 1256 q 633 1235 619 1272 l 646 1188 q 642 1161 650 1172 q 618 1149 635 1150 l 329 1086 m 803 97 q 841 60 818 75 q 877 38 864 46 q 890 19 890 31 l 890 17 q 863 0 890 0 l 669 0 q 642 17 642 0 l 642 19 q 656 40 642 29 q 676 60 671 51 q 669 97 682 69 l 461 385 q 426 383 450 383 l 260 381 l 260 97 q 273 63 260 76 q 300 39 286 49 q 314 19 314 29 l 314 17 q 286 0 314 0 l 111 0 q 83 17 83 0 l 83 19 q 108 49 83 29 q 133 97 133 69 l 133 889 q 108 937 133 917 q 83 967 83 957 l 83 969 q 111 986 83 986 l 396 986 q 699 909 583 986 q 815 681 814 832 q 754 510 815 583 q 581 404 693 436 l 803 97 m 414 439 q 611 499 536 439 q 686 663 686 558 q 601 861 686 793 q 389 929 515 929 l 296 929 q 260 882 260 929 l 260 504 q 318 439 260 439 l 414 439 z "},"ŕ":{"ha":529,"x_min":54,"x_max":525,"o":"m 185 774 q 149 783 160 767 q 156 817 139 800 l 401 992 q 451 982 433 1015 l 474 938 q 476 911 481 924 q 454 893 471 899 l 185 774 m 397 681 q 491 650 457 681 q 525 574 525 619 q 469 508 525 508 q 432 524 446 508 q 413 557 418 539 q 392 590 408 575 q 346 606 375 606 q 259 551 290 606 q 228 414 228 496 l 228 97 q 257 51 228 69 q 286 22 286 32 l 286 17 q 258 0 286 0 l 86 0 q 58 17 58 0 l 58 22 q 84 51 58 32 q 110 97 110 69 l 110 519 q 82 569 110 549 q 54 600 54 590 l 54 603 q 75 628 54 617 l 181 675 q 217 656 217 692 l 217 544 q 397 681 264 681 z "},"Ŗ":{"ha":900,"x_min":83,"x_max":890,"o":"m 803 97 q 841 60 818 75 q 877 38 864 46 q 890 19 890 31 l 890 17 q 863 0 890 0 l 669 0 q 642 17 642 0 l 642 19 q 656 40 642 29 q 676 60 671 51 q 669 97 682 69 l 461 385 q 426 383 450 383 l 260 381 l 260 97 q 273 63 260 76 q 300 39 286 49 q 314 19 314 29 l 314 17 q 286 0 314 0 l 111 0 q 83 17 83 0 l 83 19 q 108 49 83 29 q 133 97 133 69 l 133 889 q 108 937 133 917 q 83 967 83 957 l 83 969 q 111 986 83 986 l 396 986 q 699 909 583 986 q 815 681 814 832 q 754 510 815 583 q 581 404 693 436 l 803 97 m 414 439 q 611 499 536 439 q 686 663 686 558 q 601 861 686 793 q 389 929 515 929 l 296 929 q 260 882 260 929 l 260 504 q 318 439 260 439 l 414 439 m 401 -97 q 413 -84 401 -97 q 460 -72 424 -72 q 520 -99 496 -72 q 544 -169 544 -125 q 408 -403 544 -308 q 383 -399 394 -411 q 383 -374 371 -386 q 457 -256 444 -318 q 446 -237 461 -237 q 399 -215 418 -237 q 379 -158 379 -193 q 401 -97 379 -121 z "},"ŗ":{"ha":529,"x_min":54,"x_max":525,"o":"m 397 681 q 491 650 457 681 q 525 574 525 619 q 469 508 525 508 q 432 524 446 508 q 413 557 418 539 q 392 590 408 575 q 346 606 375 606 q 259 551 290 606 q 228 414 228 496 l 228 97 q 257 51 228 69 q 286 22 286 32 l 286 17 q 258 0 286 0 l 86 0 q 58 17 58 0 l 58 22 q 84 51 58 32 q 110 97 110 69 l 110 519 q 82 569 110 549 q 54 600 54 590 l 54 603 q 75 628 54 617 l 181 675 q 217 656 217 692 l 217 544 q 397 681 264 681 m 115 -107 q 125 -95 115 -107 q 172 -83 136 -83 q 233 -110 208 -83 q 257 -181 257 -136 q 121 -412 257 -318 q 95 -410 107 -422 q 96 -385 83 -397 q 169 -267 157 -326 q 158 -247 175 -247 q 112 -225 131 -247 q 93 -168 93 -203 q 115 -107 93 -131 z "},"Ř":{"ha":900,"x_min":83,"x_max":890,"o":"m 399 1057 l 239 1204 q 234 1225 229 1214 q 251 1240 239 1236 q 274 1238 263 1243 l 457 1121 l 639 1238 q 664 1240 651 1244 q 679 1224 676 1235 q 674 1204 682 1214 l 511 1057 q 468 1039 489 1039 l 440 1039 q 399 1057 418 1039 m 803 97 q 841 60 818 75 q 877 38 864 46 q 890 19 890 31 l 890 17 q 863 0 890 0 l 669 0 q 642 17 642 0 l 642 19 q 656 40 642 29 q 676 60 671 51 q 669 97 682 69 l 461 385 q 426 383 450 383 l 260 381 l 260 97 q 273 63 260 76 q 300 39 286 49 q 314 19 314 29 l 314 17 q 286 0 314 0 l 111 0 q 83 17 83 0 l 83 19 q 108 49 83 29 q 133 97 133 69 l 133 889 q 108 937 133 917 q 83 967 83 957 l 83 969 q 111 986 83 986 l 396 986 q 699 909 583 986 q 815 681 814 832 q 754 510 815 583 q 581 404 693 436 l 803 97 m 414 439 q 611 499 536 439 q 686 663 686 558 q 601 861 686 793 q 389 929 515 929 l 296 929 q 260 882 260 929 l 260 504 q 318 439 260 439 l 414 439 z "},"ř":{"ha":529,"x_min":54,"x_max":526,"o":"m 243 790 l 85 942 q 80 963 75 951 q 97 977 85 974 q 119 975 108 981 l 303 854 l 483 975 q 508 978 494 983 q 524 962 521 972 q 518 942 526 951 l 356 790 q 314 771 336 771 l 286 771 q 243 790 264 771 m 397 681 q 491 650 457 681 q 525 574 525 619 q 469 508 525 508 q 432 524 446 508 q 413 557 418 539 q 392 590 408 575 q 346 606 375 606 q 259 551 290 606 q 228 414 228 496 l 228 97 q 257 51 228 69 q 286 22 286 32 l 286 17 q 258 0 286 0 l 86 0 q 58 17 58 0 l 58 22 q 84 51 58 32 q 110 97 110 69 l 110 519 q 82 569 110 549 q 54 600 54 590 l 54 603 q 75 628 54 617 l 181 675 q 217 656 217 692 l 217 544 q 397 681 264 681 z "},"Ś":{"ha":844,"x_min":46,"x_max":793,"o":"m 326 1086 q 293 1103 300 1083 q 308 1133 289 1124 l 583 1256 q 631 1235 619 1274 l 643 1188 q 640 1161 647 1172 q 615 1149 632 1150 l 326 1086 m 438 -14 q 150 69 254 -14 q 46 231 46 151 q 60 271 46 256 q 99 286 74 286 q 145 259 125 285 q 184 197 165 233 q 229 126 203 161 q 310 65 256 90 q 443 40 365 40 q 603 92 542 40 q 665 226 665 144 q 633 340 665 296 q 548 405 600 385 q 433 438 496 425 q 306 465 369 450 q 190 506 242 481 q 105 588 138 532 q 72 728 72 643 q 165 923 72 847 q 418 999 257 999 q 680 926 582 999 q 778 772 778 854 q 721 717 778 717 q 674 740 693 717 q 640 797 656 764 q 603 864 625 831 q 533 921 581 897 q 414 944 485 944 q 256 892 313 944 q 199 757 199 839 q 231 650 199 692 q 317 589 264 608 q 433 556 369 569 q 559 526 496 543 q 675 483 622 510 q 760 398 728 456 q 793 256 793 340 q 690 60 793 133 q 438 -14 588 -14 z "},"ś":{"ha":649,"x_min":43,"x_max":606,"o":"m 206 774 q 169 783 181 767 q 176 817 160 800 l 422 992 q 472 982 454 1015 l 494 938 q 497 911 501 924 q 475 893 492 899 l 206 774 m 325 -12 q 120 39 197 -12 q 43 146 43 90 q 97 197 43 197 q 135 180 121 197 q 161 138 150 163 q 188 88 172 113 q 239 45 204 63 q 325 28 274 28 q 439 60 394 28 q 483 150 483 93 q 440 236 483 206 q 333 280 396 267 q 208 310 271 293 q 102 371 146 326 q 58 490 58 415 q 132 626 58 571 q 319 681 206 681 q 515 629 440 681 q 590 517 590 578 q 576 482 590 496 q 540 468 561 468 q 497 494 515 468 q 467 553 479 521 q 419 611 456 585 q 325 638 383 638 q 223 603 264 638 q 182 517 182 568 q 226 433 182 463 q 332 389 269 403 q 456 358 394 375 q 562 297 518 342 q 606 175 606 251 q 528 41 606 94 q 325 -12 451 -12 z "},"Ş":{"ha":844,"x_min":46,"x_max":793,"o":"m 793 256 q 699 67 793 140 q 465 -14 606 -7 l 461 -78 q 567 -104 525 -78 q 610 -179 610 -131 q 565 -255 610 -226 q 453 -283 519 -283 q 339 -256 388 -283 q 326 -218 317 -244 q 349 -207 333 -200 q 435 -231 389 -231 q 493 -217 469 -231 q 515 -175 517 -203 q 426 -124 514 -124 q 401 -112 410 -124 q 394 -82 392 -101 l 408 -14 q 247 17 319 -10 q 132 83 174 44 q 68 159 90 121 q 46 231 46 197 q 60 271 46 256 q 99 286 74 286 q 145 259 125 285 q 184 197 165 233 q 229 126 203 161 q 310 65 256 90 q 443 40 365 40 q 603 92 542 40 q 665 226 665 144 q 633 340 665 296 q 548 405 600 385 q 433 438 496 425 q 306 465 369 450 q 190 506 242 481 q 105 588 138 532 q 72 728 72 643 q 165 923 72 847 q 418 999 257 999 q 680 926 582 999 q 778 772 778 854 q 721 717 778 717 q 674 740 693 717 q 640 797 656 764 q 603 864 625 831 q 533 921 581 897 q 414 944 485 944 q 256 892 313 944 q 199 757 199 839 q 231 650 199 692 q 317 589 264 608 q 433 556 369 569 q 559 526 496 543 q 675 483 622 510 q 760 398 728 456 q 793 256 793 340 z "},"ş":{"ha":649,"x_min":43,"x_max":606,"o":"m 606 175 q 537 47 606 100 q 354 -11 468 -6 l 350 -78 q 456 -104 414 -78 q 499 -179 499 -131 q 453 -255 499 -226 q 340 -283 408 -283 q 226 -256 276 -283 q 215 -218 206 -244 q 238 -207 222 -197 q 322 -231 278 -231 q 381 -217 357 -231 q 404 -175 406 -203 q 315 -124 403 -124 q 283 -82 276 -124 l 297 -11 q 112 44 181 -6 q 43 146 43 93 q 97 197 43 197 q 135 180 121 197 q 161 138 150 163 q 188 88 172 113 q 239 45 204 63 q 325 28 274 28 q 439 60 394 28 q 483 150 483 93 q 440 236 483 206 q 333 280 396 267 q 208 310 271 293 q 102 371 146 326 q 58 490 58 415 q 132 626 58 571 q 319 681 206 681 q 515 629 440 681 q 590 517 590 578 q 576 482 590 496 q 540 468 561 468 q 497 494 515 468 q 467 553 479 521 q 419 611 456 585 q 325 638 383 638 q 223 603 264 638 q 182 517 182 568 q 226 433 182 463 q 332 389 269 403 q 456 358 394 375 q 562 297 518 342 q 606 175 606 251 z "},"Š":{"ha":844,"x_min":46,"x_max":793,"o":"m 375 1057 l 215 1204 q 210 1225 206 1214 q 227 1240 215 1236 q 250 1238 239 1243 l 433 1121 l 615 1238 q 640 1240 628 1244 q 656 1224 653 1235 q 650 1204 658 1214 l 488 1057 q 444 1039 465 1039 l 417 1039 q 375 1057 394 1039 m 199 757 q 231 650 199 692 q 317 589 264 608 q 433 556 369 569 q 559 526 496 543 q 675 483 622 510 q 760 398 728 456 q 793 256 793 340 q 690 60 793 133 q 438 -14 588 -14 q 150 69 254 -14 q 46 231 46 151 q 60 271 46 256 q 99 286 74 286 q 145 259 125 285 q 184 197 165 233 q 229 126 203 161 q 310 65 256 90 q 443 40 365 40 q 603 92 542 40 q 665 226 665 144 q 633 340 665 296 q 548 405 600 385 q 433 438 496 425 q 306 465 369 450 q 190 506 242 481 q 105 588 138 532 q 72 728 72 643 q 165 923 72 847 q 418 999 257 999 q 680 926 582 999 q 778 772 778 854 q 721 717 778 717 q 674 740 693 717 q 640 797 656 764 q 603 864 625 831 q 533 921 581 897 q 414 944 485 944 q 256 892 313 944 q 199 757 199 839 z "},"š":{"ha":649,"x_min":43,"x_max":606,"o":"m 264 790 l 106 942 q 101 963 96 951 q 117 977 106 974 q 140 975 129 981 l 324 854 l 504 975 q 528 978 515 983 q 544 962 542 972 q 539 942 547 951 l 376 790 q 335 771 357 771 l 307 771 q 264 790 285 771 m 182 517 q 226 433 182 463 q 332 389 269 403 q 456 358 394 375 q 562 297 518 342 q 606 175 606 251 q 528 41 606 94 q 325 -12 451 -12 q 120 39 197 -12 q 43 146 43 90 q 97 197 43 197 q 135 180 121 197 q 161 138 150 163 q 188 88 172 113 q 239 45 204 63 q 325 28 274 28 q 439 60 394 28 q 483 150 483 93 q 440 236 483 206 q 333 280 396 267 q 208 310 271 293 q 102 371 146 326 q 58 490 58 415 q 132 626 58 571 q 319 681 206 681 q 515 629 440 681 q 590 517 590 578 q 576 482 590 496 q 540 468 561 468 q 497 494 515 468 q 467 553 479 521 q 419 611 456 585 q 325 638 383 638 q 223 603 264 638 q 182 517 182 568 z "},"Ţ":{"ha":844,"x_min":11,"x_max":835,"o":"m 829 803 q 813 776 835 776 l 799 776 q 772 800 786 776 q 746 851 757 824 q 715 903 735 879 q 671 926 694 926 l 479 926 l 479 97 q 492 63 479 76 q 519 39 506 49 q 533 19 533 29 l 533 17 q 504 0 533 0 l 444 0 l 440 -78 q 547 -104 503 -78 q 590 -179 590 -131 q 544 -255 590 -226 q 432 -283 499 -283 q 318 -256 368 -283 q 306 -218 296 -244 q 329 -207 313 -197 q 414 -231 367 -231 q 472 -217 449 -231 q 494 -175 496 -203 q 407 -124 493 -124 q 375 -82 367 -124 l 390 0 l 331 0 q 303 17 303 0 l 303 19 q 328 49 303 29 q 354 97 354 69 l 354 926 l 165 926 q 123 903 142 926 q 94 851 104 879 q 72 800 85 824 q 46 776 58 776 l 33 776 q 15 804 11 776 l 38 956 q 72 986 42 986 l 763 986 q 799 956 792 986 l 829 803 z "},"ţ":{"ha":494,"x_min":10,"x_max":479,"o":"m 313 -78 q 419 -104 375 -78 q 463 -179 463 -131 q 417 -255 463 -226 q 304 -283 372 -283 q 190 -256 240 -283 q 179 -218 169 -244 q 201 -207 186 -197 q 286 -231 239 -231 q 344 -217 321 -231 q 367 -175 368 -203 q 279 -124 365 -124 q 247 -82 239 -124 l 261 -10 q 159 54 196 1 q 122 196 122 107 l 122 611 l 31 611 q 10 632 10 611 l 10 646 q 31 667 10 667 l 81 667 q 186 799 175 667 q 210 826 189 826 l 224 826 q 246 799 246 826 l 247 667 l 439 667 q 453 660 447 667 q 460 646 460 654 l 460 632 q 439 611 460 611 l 247 611 l 247 194 q 271 108 247 139 q 335 78 294 78 q 406 101 379 78 q 438 161 433 124 q 462 176 444 178 q 479 156 479 174 q 435 42 479 92 q 317 -14 390 -8 l 313 -78 z "},"Ť":{"ha":844,"x_min":11,"x_max":835,"o":"m 360 1057 l 201 1204 q 197 1225 192 1214 q 213 1240 201 1236 q 236 1238 225 1243 l 419 1121 l 601 1238 q 625 1240 613 1244 q 641 1224 638 1235 q 636 1204 644 1214 l 474 1057 q 431 1039 451 1039 l 403 1039 q 360 1057 382 1039 m 829 803 q 813 776 835 776 l 799 776 q 772 800 786 776 q 746 851 757 824 q 715 903 735 879 q 671 926 694 926 l 479 926 l 479 97 q 492 63 479 76 q 519 39 506 49 q 533 19 533 29 l 533 17 q 504 0 533 0 l 331 0 q 303 17 303 0 l 303 19 q 328 49 303 29 q 354 97 354 69 l 354 926 l 165 926 q 123 903 142 926 q 94 851 104 879 q 72 800 85 824 q 46 776 58 776 l 33 776 q 15 804 11 776 l 38 956 q 72 986 42 986 l 763 986 q 799 956 792 986 l 829 803 z "},"ť":{"ha":494,"x_min":10,"x_max":521,"o":"m 353 736 l 346 742 q 347 776 332 754 q 429 1043 429 885 q 435 1063 429 1054 q 451 1071 442 1071 l 497 1071 q 521 1043 521 1071 q 389 742 521 857 q 353 736 368 724 m 301 -14 q 170 40 218 -14 q 122 196 122 93 l 122 611 l 31 611 q 10 632 10 611 l 10 646 q 31 667 10 667 l 81 667 q 186 799 175 667 q 210 826 189 826 l 224 826 q 246 799 246 826 l 247 667 l 439 667 q 453 660 447 667 q 460 646 460 654 l 460 632 q 439 611 460 611 l 247 611 l 247 194 q 271 108 247 139 q 335 78 294 78 q 406 101 379 78 q 438 161 433 124 q 462 176 444 178 q 479 156 479 174 q 430 37 479 88 q 301 -14 381 -14 z "},"Ŧ":{"ha":850,"x_min":14,"x_max":839,"o":"m 833 803 q 815 776 839 776 l 803 776 q 769 814 788 776 q 728 889 751 851 q 674 926 704 926 l 483 926 l 483 526 l 614 526 q 635 510 635 526 l 635 489 q 614 471 635 471 l 483 471 l 483 97 q 497 63 483 76 q 523 39 510 49 q 536 19 536 29 l 536 17 q 508 0 536 0 l 335 0 q 307 17 307 0 l 307 19 q 333 49 307 29 q 358 97 358 69 l 358 471 l 221 471 q 200 488 200 471 l 200 510 q 221 526 200 526 l 358 526 l 358 926 l 168 926 q 126 903 144 926 q 97 851 107 879 q 75 800 88 824 q 50 776 63 776 l 36 776 q 18 804 14 776 l 42 956 q 76 986 46 986 l 767 986 q 801 956 794 986 l 833 803 z "},"ŧ":{"ha":517,"x_min":28,"x_max":499,"o":"m 457 161 q 481 176 464 178 q 499 156 499 174 q 449 37 499 88 q 321 -14 400 -14 q 190 39 238 -14 q 142 196 142 92 l 142 376 l 47 376 q 28 393 28 376 l 28 415 q 47 432 28 432 l 142 432 l 142 611 l 49 611 q 29 632 29 611 l 29 646 q 49 667 29 667 l 100 667 q 206 799 194 667 q 229 826 208 826 l 243 826 q 265 799 265 826 l 267 667 l 458 667 q 473 660 467 667 q 479 646 479 654 l 479 632 q 458 611 479 611 l 267 611 l 267 432 l 440 432 q 461 415 461 432 l 461 394 q 440 376 461 376 l 267 376 l 267 194 q 290 108 267 139 q 354 78 314 78 q 425 101 399 78 q 457 161 451 124 z "},"Ũ":{"ha":999,"x_min":67,"x_max":938,"o":"m 428 1242 q 546 1202 476 1242 q 640 1163 615 1163 q 711 1210 690 1163 q 735 1228 718 1228 l 744 1228 q 758 1204 763 1228 q 625 1075 726 1075 q 512 1115 581 1075 q 413 1156 443 1156 q 342 1107 367 1156 q 319 1086 332 1086 l 308 1086 q 293 1110 289 1086 q 339 1204 304 1167 q 428 1242 374 1242 m 510 -14 q 226 94 335 -14 q 117 383 117 203 l 117 889 q 92 936 117 917 q 67 965 67 956 l 67 969 q 94 986 67 986 l 269 986 q 297 969 297 986 l 297 965 q 271 936 297 956 q 244 889 244 917 l 244 383 q 324 138 244 229 q 533 46 403 46 q 729 135 649 46 q 810 383 810 225 l 810 889 q 783 936 810 917 q 757 965 757 956 l 757 969 q 786 986 757 986 l 908 986 q 938 969 938 986 l 938 965 q 909 936 938 956 q 881 889 881 917 l 881 382 q 778 94 881 203 q 510 -14 675 -14 z "},"ũ":{"ha":785,"x_min":40,"x_max":753,"o":"m 164 828 q 150 851 146 828 q 195 946 161 908 q 283 983 229 983 q 401 944 332 983 q 497 904 471 904 q 568 951 546 904 q 590 969 575 969 l 600 969 q 614 946 621 969 q 481 817 582 817 q 368 857 436 817 q 268 897 300 897 q 199 849 221 897 q 175 828 188 828 l 164 828 m 675 119 q 688 67 675 85 q 714 47 700 49 q 740 39 728 44 q 753 21 753 33 q 667 -8 753 -8 q 565 94 561 -8 l 563 103 q 349 -14 499 -14 q 162 69 232 -14 q 92 303 92 151 l 92 549 q 66 600 92 579 q 40 629 40 621 l 40 633 q 61 654 40 650 l 178 675 q 215 658 215 682 l 214 293 q 256 106 214 172 q 378 40 299 40 q 503 99 453 40 q 554 251 554 157 l 554 549 q 527 599 554 578 q 500 629 500 619 l 500 633 q 521 654 500 650 l 639 675 q 675 658 675 682 l 675 119 z "},"Ū":{"ha":999,"x_min":67,"x_max":938,"o":"m 328 1126 q 304 1147 304 1126 l 304 1186 q 328 1207 304 1207 l 693 1207 q 718 1186 718 1207 l 718 1147 q 693 1126 718 1126 l 328 1126 m 510 -14 q 226 94 335 -14 q 117 383 117 203 l 117 889 q 92 936 117 917 q 67 965 67 956 l 67 969 q 94 986 67 986 l 269 986 q 297 969 297 986 l 297 965 q 271 936 297 956 q 244 889 244 917 l 244 383 q 324 138 244 229 q 533 46 403 46 q 729 135 649 46 q 810 383 810 225 l 810 889 q 783 936 810 917 q 757 965 757 956 l 757 969 q 786 986 757 986 l 908 986 q 938 969 938 986 l 938 965 q 909 936 938 956 q 881 889 881 917 l 881 382 q 778 94 881 203 q 510 -14 675 -14 z "},"ū":{"ha":785,"x_min":40,"x_max":753,"o":"m 207 839 q 183 861 183 839 l 183 900 q 207 921 183 921 l 572 921 q 597 900 597 921 l 597 861 q 572 839 597 839 l 207 839 m 675 119 q 688 67 675 85 q 714 47 700 49 q 740 39 728 44 q 753 21 753 33 q 667 -8 753 -8 q 565 94 561 -8 l 563 103 q 349 -14 499 -14 q 162 69 232 -14 q 92 303 92 151 l 92 549 q 66 600 92 579 q 40 629 40 621 l 40 633 q 61 654 40 650 l 178 675 q 215 658 215 682 l 214 293 q 256 106 214 172 q 378 40 299 40 q 503 99 453 40 q 554 251 554 157 l 554 549 q 527 599 554 578 q 500 629 500 619 l 500 633 q 521 654 500 650 l 639 675 q 675 658 675 682 l 675 119 z "},"Ů":{"ha":999,"x_min":67,"x_max":938,"o":"m 519 1053 q 404 1092 450 1053 q 358 1190 358 1132 q 403 1292 358 1251 q 521 1332 449 1332 q 638 1292 592 1332 q 685 1194 685 1253 q 639 1093 685 1133 q 519 1053 593 1053 m 521 1096 q 582 1122 558 1096 q 606 1193 606 1149 q 582 1260 606 1233 q 521 1286 558 1286 q 460 1260 483 1286 q 438 1193 438 1235 q 461 1124 438 1151 q 521 1096 485 1096 m 510 -14 q 226 94 335 -14 q 117 383 117 203 l 117 889 q 92 936 117 917 q 67 965 67 956 l 67 969 q 94 986 67 986 l 269 986 q 297 969 297 986 l 297 965 q 271 936 297 956 q 244 889 244 917 l 244 383 q 324 138 244 229 q 533 46 403 46 q 729 135 649 46 q 810 383 810 225 l 810 889 q 783 936 810 917 q 757 965 757 956 l 757 969 q 786 986 757 986 l 908 986 q 938 969 938 986 l 938 965 q 909 936 938 956 q 881 889 881 917 l 881 382 q 778 94 881 203 q 510 -14 675 -14 z "},"ů":{"ha":785,"x_min":40,"x_max":753,"o":"m 389 756 q 274 796 319 756 q 228 894 228 836 q 273 996 228 956 q 390 1036 318 1036 q 508 997 461 1036 q 554 899 554 957 q 508 796 554 836 q 389 756 463 756 m 451 963 q 440 977 451 963 q 390 990 428 990 q 330 965 353 990 q 307 896 307 939 q 331 828 307 856 q 390 800 354 800 q 451 826 428 800 q 475 896 475 853 q 451 963 475 936 m 675 119 q 688 67 675 85 q 714 47 700 49 q 740 39 728 44 q 753 21 753 33 q 667 -8 753 -8 q 565 94 561 -8 l 563 103 q 349 -14 499 -14 q 162 69 232 -14 q 92 303 92 151 l 92 549 q 66 600 92 579 q 40 629 40 621 l 40 633 q 61 654 40 650 l 178 675 q 215 658 215 682 l 214 293 q 256 106 214 172 q 378 40 299 40 q 503 99 453 40 q 554 251 554 157 l 554 549 q 527 599 554 578 q 500 629 500 619 l 500 633 q 521 654 500 650 l 639 675 q 675 658 675 682 l 675 119 z "},"Ű":{"ha":999,"x_min":67,"x_max":938,"o":"m 336 1046 q 339 1079 322 1056 l 496 1300 q 540 1310 518 1332 l 568 1285 q 568 1236 597 1258 l 369 1053 q 336 1046 349 1035 m 588 1046 q 590 1078 575 1056 l 749 1300 q 793 1308 769 1332 l 821 1283 q 821 1235 849 1258 l 622 1051 q 588 1046 601 1036 m 510 -14 q 226 94 335 -14 q 117 383 117 203 l 117 889 q 92 936 117 917 q 67 965 67 956 l 67 969 q 94 986 67 986 l 269 986 q 297 969 297 986 l 297 965 q 271 936 297 956 q 244 889 244 917 l 244 383 q 324 138 244 229 q 533 46 403 46 q 729 135 649 46 q 810 383 810 225 l 810 889 q 783 936 810 917 q 757 965 757 956 l 757 969 q 786 986 757 986 l 908 986 q 938 969 938 986 l 938 965 q 909 936 938 956 q 881 889 881 917 l 881 382 q 778 94 881 203 q 510 -14 675 -14 z "},"ű":{"ha":785,"x_min":40,"x_max":753,"o":"m 183 767 q 186 800 171 778 l 343 1021 q 389 1029 365 1054 l 415 1004 q 417 957 446 979 l 217 772 q 183 767 197 756 m 435 767 q 438 799 424 776 l 596 1021 q 642 1029 617 1053 l 669 1003 q 668 956 699 976 l 469 772 q 435 767 453 756 m 675 119 q 688 67 675 85 q 714 47 700 49 q 740 39 728 44 q 753 21 753 33 q 667 -8 753 -8 q 565 94 561 -8 l 563 103 q 349 -14 499 -14 q 162 69 232 -14 q 92 303 92 151 l 92 549 q 66 600 92 579 q 40 629 40 621 l 40 633 q 61 654 40 650 l 178 675 q 215 658 215 682 l 214 293 q 256 106 214 172 q 378 40 299 40 q 503 99 453 40 q 554 251 554 157 l 554 549 q 527 599 554 578 q 500 629 500 619 l 500 633 q 521 654 500 650 l 639 675 q 675 658 675 682 l 675 119 z "},"Ų":{"ha":999,"x_min":67,"x_max":938,"o":"m 908 986 q 938 969 938 986 l 938 965 q 909 936 938 956 q 881 889 881 917 l 881 382 q 799 119 881 224 q 579 -8 717 14 q 493 -167 493 -94 q 508 -217 493 -199 q 547 -235 524 -235 q 586 -226 565 -235 q 611 -243 607 -218 q 596 -278 617 -269 q 529 -293 572 -293 q 440 -264 478 -293 q 401 -183 401 -235 q 515 -14 401 -94 l 510 -14 q 226 94 335 -14 q 117 383 117 203 l 117 889 q 92 936 117 917 q 67 965 67 956 l 67 969 q 94 986 67 986 l 269 986 q 297 969 297 986 l 297 965 q 271 936 297 956 q 244 889 244 917 l 244 383 q 324 138 244 229 q 533 46 403 46 q 729 135 649 46 q 810 383 810 225 l 810 889 q 783 936 810 917 q 757 965 757 956 l 757 969 q 786 986 757 986 l 908 986 z "},"ų":{"ha":785,"x_min":40,"x_max":753,"o":"m 753 21 q 676 -8 753 -7 q 600 -158 600 -92 q 615 -208 600 -190 q 656 -226 631 -226 q 693 -218 665 -226 q 718 -235 714 -210 q 704 -269 722 -260 q 638 -283 676 -283 q 547 -255 585 -283 q 508 -175 508 -226 q 624 -3 508 -85 q 565 94 561 14 l 563 103 q 349 -14 499 -14 q 162 69 232 -14 q 92 303 92 151 l 92 549 q 66 600 92 579 q 40 629 40 621 l 40 633 q 61 654 40 650 l 178 675 q 215 658 215 682 l 214 293 q 256 106 214 172 q 378 40 299 40 q 503 99 453 40 q 554 251 554 157 l 554 549 q 527 599 554 578 q 500 629 500 619 l 500 633 q 521 654 500 650 l 639 675 q 675 658 675 682 l 675 119 q 688 67 675 85 q 714 47 700 49 q 740 39 728 44 q 753 21 753 33 z "},"Ŵ":{"ha":1363,"x_min":-7,"x_max":1351,"o":"m 542 1063 q 506 1066 522 1050 q 511 1101 490 1082 l 664 1242 q 706 1261 683 1261 l 732 1261 q 774 1242 751 1261 l 933 1101 q 940 1065 954 1082 q 901 1063 926 1047 l 715 1169 l 542 1063 m 1326 986 q 1351 971 1351 986 l 1351 967 q 1324 937 1351 956 q 1285 889 1296 918 l 1011 36 q 957 0 999 0 q 910 35 922 0 l 706 629 l 492 36 q 443 0 481 0 q 396 35 410 0 l 64 888 q 36 926 54 913 q 6 949 18 940 q -7 968 -7 957 l -7 971 q 18 986 -7 986 l 214 986 q 240 969 240 986 l 240 967 q 225 947 240 956 q 199 924 210 938 q 196 888 188 911 l 467 157 l 671 729 l 617 889 q 577 938 607 918 q 547 968 547 957 l 547 971 q 569 986 547 986 l 768 986 q 792 971 792 986 l 792 968 q 776 950 792 958 q 747 928 760 942 q 742 889 735 914 l 983 158 l 1210 889 q 1209 918 1215 906 q 1192 936 1203 931 q 1172 949 1182 942 q 1163 965 1163 957 l 1163 968 q 1188 986 1163 986 l 1326 986 z "},"ŵ":{"ha":1032,"x_min":1,"x_max":1031,"o":"m 357 771 q 322 776 338 760 q 325 811 306 792 l 478 950 q 521 969 497 969 l 546 969 q 589 950 568 969 l 747 811 q 755 774 768 792 q 715 771 742 757 l 531 879 l 357 771 m 1011 667 q 1031 650 1031 667 l 1031 646 q 1005 616 1031 635 q 968 568 979 597 l 774 28 q 739 0 764 0 l 713 0 q 675 28 683 0 l 518 519 l 360 28 q 325 0 351 0 l 307 0 q 269 28 281 0 l 56 568 q 23 615 44 596 q 1 646 1 635 l 1 650 q 22 667 1 667 l 197 667 q 217 650 217 667 l 217 646 q 203 628 217 636 q 179 606 189 619 q 178 567 169 592 l 336 125 l 500 642 q 524 664 506 664 l 569 665 q 593 643 586 665 l 753 119 l 907 558 q 904 601 917 586 q 874 626 892 617 q 857 646 857 636 l 857 650 q 878 667 857 667 l 1011 667 z "},"Ŷ":{"ha":917,"x_min":6,"x_max":904,"o":"m 293 1063 q 258 1066 274 1050 q 263 1101 242 1082 l 415 1242 q 457 1261 435 1261 l 483 1261 q 525 1242 503 1261 l 685 1101 q 692 1065 706 1082 q 651 1063 678 1047 l 467 1169 l 293 1063 m 876 986 q 904 971 904 986 l 904 967 q 876 936 904 954 q 831 889 847 918 l 531 399 l 531 97 q 544 63 531 76 q 570 39 557 49 q 583 19 583 29 l 583 17 q 557 0 583 0 l 382 0 q 354 17 354 0 l 354 19 q 379 49 354 29 q 404 97 404 69 l 404 390 l 82 889 q 36 934 67 914 q 6 967 6 954 l 6 969 q 33 986 6 986 l 236 986 q 264 969 264 986 l 264 967 q 247 945 264 957 q 220 924 229 933 q 221 889 211 914 l 492 443 l 763 889 q 763 925 774 915 q 734 946 753 935 q 715 967 715 957 l 715 969 q 740 986 715 986 l 876 986 z "},"ŷ":{"ha":725,"x_min":-26,"x_max":724,"o":"m 204 774 q 169 778 185 763 q 174 814 153 794 l 326 954 q 368 972 346 972 l 394 972 q 436 954 417 972 l 596 814 q 603 777 617 794 q 564 774 589 760 l 378 881 l 204 774 m 704 667 q 724 650 724 667 l 724 646 q 699 613 724 633 q 661 560 675 592 l 399 -19 q 364 -97 375 -74 q 326 -167 353 -119 q 276 -235 299 -214 q 219 -276 254 -257 q 144 -294 183 -294 q 22 -255 71 -294 q -26 -171 -26 -215 q -12 -131 -26 -146 q 26 -115 1 -115 q 67 -135 50 -115 q 91 -181 83 -156 q 117 -226 99 -206 q 165 -246 136 -246 q 335 -26 247 -246 l 68 561 q 27 613 53 592 q 1 646 1 633 l 1 650 q 22 667 1 667 l 203 667 q 222 650 222 667 l 222 646 q 210 624 222 636 q 193 602 199 613 q 199 560 188 592 l 399 89 l 597 549 q 601 590 608 574 q 582 613 594 606 q 557 629 569 621 q 544 646 544 638 l 544 650 q 565 667 544 667 l 704 667 z "},"Ÿ":{"ha":917,"x_min":6,"x_max":904,"o":"m 344 1099 q 281 1121 306 1099 q 257 1179 257 1143 q 281 1238 257 1215 q 344 1260 306 1260 q 405 1238 382 1260 q 428 1179 428 1215 q 405 1121 428 1143 q 344 1099 382 1099 m 608 1099 q 547 1121 569 1099 q 524 1179 524 1143 q 547 1238 524 1215 q 608 1260 569 1260 q 669 1237 644 1260 q 693 1179 693 1214 q 669 1122 693 1144 q 608 1099 644 1099 m 876 986 q 904 971 904 986 l 904 967 q 876 936 904 954 q 831 889 847 918 l 531 399 l 531 97 q 544 63 531 76 q 570 39 557 49 q 583 19 583 29 l 583 17 q 557 0 583 0 l 382 0 q 354 17 354 0 l 354 19 q 379 49 354 29 q 404 97 404 69 l 404 390 l 82 889 q 36 934 67 914 q 6 967 6 954 l 6 969 q 33 986 6 986 l 236 986 q 264 969 264 986 l 264 967 q 247 945 264 957 q 220 924 229 933 q 221 889 211 914 l 492 443 l 763 889 q 763 925 774 915 q 734 946 753 935 q 715 967 715 957 l 715 969 q 740 986 715 986 l 876 986 z "},"Ź":{"ha":839,"x_min":31,"x_max":831,"o":"m 306 1086 q 272 1103 279 1083 q 286 1133 265 1122 l 563 1256 q 610 1235 596 1272 l 621 1188 q 619 1161 626 1172 q 593 1149 611 1150 l 306 1086 m 801 206 q 824 178 831 206 l 785 29 q 751 0 775 0 l 58 0 q 39 8 47 0 q 31 25 31 15 l 31 33 q 49 71 31 44 l 638 929 l 201 929 q 160 907 181 929 q 128 858 140 885 q 99 808 115 831 q 65 786 82 786 l 60 786 q 39 819 32 786 l 76 956 q 111 986 83 986 l 758 986 q 777 978 769 986 q 785 961 785 971 l 785 949 q 764 908 785 939 l 178 57 l 647 57 q 697 80 674 57 q 735 131 721 103 q 767 183 750 160 q 799 206 783 206 l 801 206 z "},"ź":{"ha":661,"x_min":35,"x_max":653,"o":"m 243 774 q 208 783 219 765 q 215 817 199 800 l 461 992 q 511 982 492 1015 l 533 938 q 514 893 550 906 l 243 774 m 626 182 q 643 153 653 182 l 606 29 q 572 0 596 0 l 63 0 q 43 8 51 0 q 35 25 35 15 l 35 33 q 53 71 35 42 l 465 625 l 208 625 q 163 604 185 625 q 129 558 142 583 q 101 511 117 532 q 69 490 85 490 l 64 490 q 47 524 36 490 l 82 636 q 118 667 93 667 l 574 667 q 591 660 583 667 q 599 642 599 653 l 599 629 q 576 589 599 618 l 165 42 l 467 42 q 518 64 494 42 q 556 112 542 86 q 587 160 569 138 q 619 182 604 182 l 626 182 z "},"Ż":{"ha":839,"x_min":31,"x_max":831,"o":"m 439 1078 q 374 1101 399 1078 q 349 1161 349 1124 q 374 1222 349 1199 q 439 1246 399 1246 q 502 1222 478 1246 q 526 1161 526 1199 q 502 1101 526 1124 q 439 1078 478 1078 m 801 206 q 824 178 831 206 l 785 29 q 751 0 775 0 l 58 0 q 39 8 47 0 q 31 25 31 15 l 31 33 q 49 71 31 44 l 638 929 l 201 929 q 160 907 181 929 q 128 858 140 885 q 99 808 115 831 q 65 786 82 786 l 60 786 q 39 819 32 786 l 76 956 q 111 986 83 986 l 758 986 q 777 978 769 986 q 785 961 785 971 l 785 949 q 764 908 785 939 l 178 57 l 647 57 q 697 80 674 57 q 735 131 721 103 q 767 183 750 160 q 799 206 783 206 l 801 206 z "},"ż":{"ha":661,"x_min":35,"x_max":653,"o":"m 361 799 q 292 822 318 799 q 267 885 267 846 q 292 948 267 924 q 361 972 318 972 q 426 948 401 972 q 451 885 451 924 q 426 822 451 846 q 361 799 401 799 m 626 182 q 643 153 653 182 l 606 29 q 572 0 596 0 l 63 0 q 43 8 51 0 q 35 25 35 15 l 35 33 q 53 71 35 42 l 465 625 l 208 625 q 163 604 185 625 q 129 558 142 583 q 101 511 117 532 q 69 490 85 490 l 64 490 q 47 524 36 490 l 82 636 q 118 667 93 667 l 574 667 q 591 660 583 667 q 599 642 599 653 l 599 629 q 576 589 599 618 l 165 42 l 467 42 q 518 64 494 42 q 556 112 542 86 q 587 160 569 138 q 619 182 604 182 l 626 182 z "},"Ž":{"ha":839,"x_min":31,"x_max":831,"o":"m 374 1057 l 215 1204 q 210 1225 206 1214 q 227 1240 215 1236 q 250 1238 239 1243 l 433 1121 l 615 1238 q 639 1240 626 1244 q 655 1224 651 1235 q 650 1204 658 1214 l 488 1057 q 444 1039 465 1039 l 417 1039 q 374 1057 396 1039 m 801 206 q 824 178 831 206 l 785 29 q 751 0 775 0 l 58 0 q 39 8 47 0 q 31 25 31 15 l 31 33 q 49 71 31 44 l 638 929 l 201 929 q 160 907 181 929 q 128 858 140 885 q 99 808 115 831 q 65 786 82 786 l 60 786 q 39 819 32 786 l 76 956 q 111 986 83 986 l 758 986 q 777 978 769 986 q 785 961 785 971 l 785 949 q 764 908 785 939 l 178 57 l 647 57 q 697 80 674 57 q 735 131 721 103 q 767 183 750 160 q 799 206 783 206 l 801 206 z "},"ž":{"ha":661,"x_min":35,"x_max":653,"o":"m 301 790 l 143 942 q 138 963 133 951 q 155 977 143 974 q 178 975 167 981 l 360 854 l 542 975 q 566 978 553 983 q 582 962 579 972 q 576 942 585 951 l 414 790 q 372 771 394 771 l 344 771 q 301 790 322 771 m 626 182 q 643 153 653 182 l 606 29 q 572 0 596 0 l 63 0 q 43 8 51 0 q 35 25 35 15 l 35 33 q 53 71 35 42 l 465 625 l 208 625 q 163 604 185 625 q 129 558 142 583 q 101 511 117 532 q 69 490 85 490 l 64 490 q 47 524 36 490 l 82 636 q 118 667 93 667 l 574 667 q 591 660 583 667 q 599 642 599 653 l 599 629 q 576 589 599 618 l 165 42 l 467 42 q 518 64 494 42 q 556 112 542 86 q 587 160 569 138 q 619 182 604 182 l 626 182 z "},"Ǫ":{"ha":1071,"x_min":53,"x_max":1019,"o":"m 1019 488 q 909 163 1019 303 q 628 -7 799 24 q 540 -168 540 -97 q 556 -218 540 -200 q 596 -236 571 -236 q 633 -228 613 -236 q 658 -244 654 -219 q 644 -279 663 -269 q 578 -293 621 -293 q 487 -265 525 -293 q 449 -185 449 -236 q 564 -14 449 -96 l 547 -14 q 193 138 333 -14 q 53 496 53 289 q 189 857 53 714 q 538 1000 325 1000 q 883 850 747 1000 q 1019 488 1019 700 m 178 581 q 291 203 178 360 q 578 46 404 46 q 804 153 714 46 q 894 404 894 260 q 782 785 894 629 q 494 940 669 940 q 267 838 356 940 q 178 581 178 735 z "},"ǫ":{"ha":785,"x_min":46,"x_max":736,"o":"m 736 328 q 656 97 736 192 q 447 -12 576 1 q 372 -161 372 -94 q 387 -211 372 -193 q 426 -229 401 -229 q 464 -221 443 -229 q 489 -237 485 -212 q 475 -272 493 -262 q 408 -286 451 -286 q 319 -258 357 -286 q 281 -178 281 -229 q 385 -14 281 -92 q 140 99 233 -4 q 46 343 46 203 q 143 584 46 488 q 383 681 240 681 q 637 578 538 681 q 736 328 736 476 m 169 382 q 242 138 169 243 q 425 32 314 32 q 560 101 507 32 q 614 286 614 171 q 544 534 614 433 q 369 635 475 635 q 225 566 281 635 q 169 382 169 497 z "},"Ǽ":{"ha":1292,"x_min":-8,"x_max":1271,"o":"m 674 1086 q 640 1103 647 1083 q 654 1133 633 1122 l 929 1256 q 976 1235 965 1272 l 989 1188 q 985 1161 993 1172 q 961 1149 978 1150 l 674 1086 m 1249 196 q 1264 172 1271 196 l 1229 32 q 1194 0 1225 0 l 621 0 q 592 17 592 0 l 592 19 q 617 52 592 32 q 643 99 643 72 l 643 263 l 281 263 l 183 97 q 182 63 174 72 q 206 42 190 53 q 221 21 221 31 l 221 18 q 193 0 221 0 l 21 0 q -8 18 -8 0 l -8 21 q -1 36 -8 29 q 18 49 7 43 q 44 67 29 54 q 69 97 58 79 l 532 868 q 539 913 546 899 q 517 941 532 926 q 501 964 501 956 l 501 969 q 526 986 501 986 l 1154 986 q 1190 956 1182 986 l 1222 821 q 1219 801 1225 808 q 1204 794 1214 794 l 1197 794 q 1167 815 1183 794 q 1136 862 1150 836 q 1099 908 1122 888 q 1051 929 1076 929 l 797 929 q 758 881 758 929 l 758 536 l 1019 536 q 1051 549 1038 536 q 1071 576 1064 561 q 1086 604 1078 592 q 1103 617 1094 617 l 1108 617 q 1126 589 1126 617 l 1126 428 q 1108 400 1126 400 l 1103 400 q 1086 412 1094 400 q 1071 438 1078 424 q 1051 465 1064 453 q 1019 476 1038 476 l 758 476 l 758 113 q 772 71 758 86 q 808 56 786 56 l 1093 56 q 1143 78 1119 56 q 1181 126 1167 100 q 1211 174 1194 151 q 1242 196 1228 196 l 1249 196 m 317 324 l 643 324 l 643 882 l 317 324 z "},"ǽ":{"ha":1119,"x_min":50,"x_max":1082,"o":"m 486 774 q 450 782 463 764 q 457 815 439 801 l 703 990 q 753 981 735 1014 l 775 936 q 756 892 792 906 l 486 774 m 1038 208 q 1065 220 1047 225 q 1079 196 1082 215 q 989 53 1063 115 q 799 -10 915 -10 q 641 32 711 -10 q 529 147 571 74 q 458 32 515 78 q 310 -14 400 -14 q 122 43 194 -14 q 50 196 50 100 q 120 346 50 290 q 306 401 190 401 q 478 346 415 401 l 475 383 q 422 574 463 511 q 303 636 382 636 q 224 611 254 636 q 183 557 193 586 q 154 503 172 528 q 111 478 136 478 q 72 492 86 478 q 57 531 57 507 q 131 635 57 590 q 303 681 204 681 q 543 551 467 681 q 803 685 636 685 q 991 620 919 685 q 1063 474 1063 556 q 1000 393 1063 413 l 614 265 q 699 129 639 179 q 843 79 760 79 q 1038 208 972 79 m 779 639 q 648 567 699 639 q 597 388 597 496 q 603 313 597 344 l 910 422 q 944 474 944 436 q 896 583 944 526 q 779 639 847 639 m 340 32 q 451 83 408 32 q 492 196 493 133 l 490 224 l 489 224 q 443 319 486 282 q 332 356 400 356 q 219 318 263 356 q 175 221 175 281 q 220 85 175 139 q 340 32 265 32 z "},"Ǿ":{"ha":1093,"x_min":49,"x_max":1032,"o":"m 425 1086 q 392 1103 399 1083 q 406 1133 385 1122 l 682 1256 q 728 1235 717 1272 l 740 1188 q 738 1161 746 1172 q 713 1149 731 1150 l 425 1086 m 924 817 q 1032 488 1032 678 q 895 133 1032 281 q 560 -14 758 -14 q 207 136 350 -14 l 104 38 q 79 38 89 28 l 58 57 q 64 82 49 67 l 168 182 q 65 496 65 319 q 201 857 65 714 q 550 1000 338 1000 q 885 861 750 1000 l 971 943 q 1000 947 988 960 l 1018 931 q 1014 903 1031 919 l 924 817 m 190 581 q 263 269 190 410 l 799 779 q 507 940 683 940 q 279 838 368 940 q 190 581 190 735 m 590 46 q 817 153 726 46 q 907 404 907 260 q 831 728 907 586 l 293 217 q 590 46 410 46 z "},"ǿ":{"ha":797,"x_min":35,"x_max":757,"o":"m 282 774 q 246 783 257 767 q 253 817 236 800 l 499 992 q 549 982 531 1017 l 571 938 q 573 911 578 924 q 551 893 568 899 l 282 774 m 746 653 q 743 625 757 642 l 667 551 q 743 328 743 456 q 651 84 743 182 q 415 -14 560 -14 q 169 76 271 -14 l 86 -4 q 65 -4 75 -14 l 46 14 q 50 39 35 25 l 131 117 q 53 343 53 214 q 150 584 53 488 q 390 681 247 681 q 626 593 531 681 l 701 665 q 731 668 717 681 l 746 653 m 175 382 q 214 197 175 283 l 556 525 q 375 635 486 635 q 231 566 286 635 q 175 382 175 497 m 619 286 q 583 472 619 392 l 243 146 q 432 32 318 32 q 567 101 514 32 q 619 286 619 171 z "},"Ș":{"ha":844,"x_min":46,"x_max":793,"o":"m 438 -14 q 150 69 254 -14 q 46 231 46 151 q 60 271 46 256 q 99 286 74 286 q 145 259 125 285 q 184 197 165 233 q 229 126 203 161 q 310 65 256 90 q 443 40 365 40 q 603 92 542 40 q 665 226 665 144 q 633 340 665 296 q 548 405 600 385 q 433 438 496 425 q 306 465 369 450 q 190 506 242 481 q 105 588 138 532 q 72 728 72 643 q 165 923 72 847 q 418 999 257 999 q 680 926 582 999 q 778 772 778 854 q 721 717 778 717 q 674 740 693 717 q 640 797 656 764 q 603 864 625 831 q 533 921 581 897 q 414 944 485 944 q 256 892 313 944 q 199 757 199 839 q 231 650 199 692 q 317 589 264 608 q 433 556 369 569 q 559 526 496 543 q 675 483 622 510 q 760 398 728 456 q 793 256 793 340 q 690 60 793 133 q 438 -14 588 -14 m 393 -412 q 366 -410 378 -422 q 368 -385 354 -397 q 442 -267 429 -325 q 431 -247 447 -247 q 383 -225 401 -247 q 364 -168 364 -203 q 386 -107 364 -131 q 444 -83 408 -83 q 505 -110 481 -83 q 529 -181 529 -136 q 393 -412 529 -317 z "},"ș":{"ha":649,"x_min":43,"x_max":606,"o":"m 325 -12 q 120 39 197 -12 q 43 146 43 90 q 97 197 43 197 q 135 180 121 197 q 161 138 150 163 q 188 88 172 113 q 239 45 204 63 q 325 28 274 28 q 439 60 394 28 q 483 150 483 93 q 440 236 483 206 q 333 280 396 267 q 208 310 271 293 q 102 371 146 326 q 58 490 58 415 q 132 626 58 571 q 319 681 206 681 q 515 629 440 681 q 590 517 590 578 q 576 482 590 496 q 540 468 561 468 q 497 494 515 468 q 467 553 479 521 q 419 611 456 585 q 325 638 383 638 q 223 603 264 638 q 182 517 182 568 q 226 433 182 463 q 332 389 269 403 q 456 358 394 375 q 562 297 518 342 q 606 175 606 251 q 528 41 606 94 q 325 -12 451 -12 m 281 -412 q 255 -410 267 -422 q 257 -385 243 -397 q 331 -267 315 -328 q 318 -247 336 -247 q 272 -225 290 -247 q 253 -168 253 -203 q 275 -107 253 -131 q 333 -83 297 -83 q 393 -110 369 -83 q 417 -181 417 -136 q 281 -412 417 -318 z "},"Ț":{"ha":844,"x_min":11,"x_max":835,"o":"m 331 0 q 303 17 303 0 l 303 19 q 328 49 303 29 q 354 97 354 69 l 354 926 l 165 926 q 123 903 142 926 q 94 851 104 879 q 72 800 85 824 q 46 776 58 776 l 33 776 q 15 804 11 776 l 38 956 q 72 986 42 986 l 763 986 q 799 956 792 986 l 829 803 q 813 776 835 776 l 799 776 q 772 800 786 776 q 746 851 757 824 q 715 903 735 879 q 671 926 694 926 l 479 926 l 479 97 q 492 63 479 76 q 519 39 506 49 q 533 19 533 29 l 533 17 q 504 0 533 0 l 331 0 m 376 -412 q 350 -410 363 -422 q 351 -385 338 -397 q 425 -267 413 -326 q 414 -247 431 -247 q 366 -225 385 -247 q 347 -168 347 -203 q 369 -107 347 -131 q 428 -83 392 -83 q 488 -110 464 -83 q 513 -181 513 -136 q 376 -412 513 -318 z "},"ț":{"ha":494,"x_min":10,"x_max":479,"o":"m 301 -14 q 170 40 218 -14 q 122 196 122 93 l 122 611 l 31 611 q 10 632 10 611 l 10 646 q 31 667 10 667 l 81 667 q 186 799 175 667 q 210 826 189 826 l 224 826 q 246 799 246 826 l 247 667 l 439 667 q 453 660 447 667 q 460 646 460 654 l 460 632 q 439 611 460 611 l 247 611 l 247 194 q 271 108 247 139 q 335 78 294 78 q 406 101 379 78 q 438 161 433 124 q 462 176 444 178 q 479 156 479 174 q 430 37 479 88 q 301 -14 381 -14 m 239 -404 q 214 -400 225 -412 q 215 -375 203 -387 q 289 -257 274 -319 q 276 -239 292 -239 q 230 -217 249 -239 q 211 -160 211 -194 q 233 -98 211 -122 q 292 -74 256 -74 q 351 -100 328 -74 q 375 -171 375 -126 q 239 -404 375 -310 z "},"ȷ":{"ha":333,"x_min":-81,"x_max":244,"o":"m 74 -256 q -37 -225 6 -256 q -81 -144 -81 -194 q -65 -106 -81 -121 q -25 -90 -50 -90 q 17 -108 1 -90 q 36 -149 32 -126 q 54 -189 40 -171 q 94 -207 68 -207 q 141 -186 124 -207 q 158 -132 158 -165 q 139 -46 158 -97 q 119 36 119 6 l 119 513 q 94 567 119 544 q 69 597 69 589 l 69 601 q 89 622 69 611 l 200 675 q 233 678 221 685 q 244 656 244 671 l 244 4 q 221 -150 244 -76 q 74 -256 186 -256 z "},"ˆ":{"ha":833,"x_min":46,"x_max":508,"o":"m 488 810 q 494 774 508 792 q 456 771 481 757 l 271 878 l 96 771 q 61 774 76 758 q 65 810 46 790 l 218 950 q 261 969 239 969 l 286 969 q 328 950 306 969 l 488 810 z "},"ˇ":{"ha":833,"x_min":44,"x_max":501,"o":"m 458 972 q 483 974 471 979 q 499 958 496 968 q 493 938 501 947 l 331 786 q 289 768 313 768 l 261 768 q 218 786 238 768 l 60 938 q 61 968 44 953 q 94 972 78 983 l 276 851 l 458 972 z "},"˘":{"ha":833,"x_min":94,"x_max":531,"o":"m 311 782 q 167 831 226 782 q 97 951 108 881 q 117 981 94 975 q 147 971 140 988 q 207 895 161 924 q 311 867 253 867 q 417 895 371 867 q 478 971 464 924 q 508 980 485 986 q 528 951 531 974 q 458 831 518 881 q 311 782 399 782 z "},"˙":{"ha":833,"x_min":111,"x_max":296,"o":"m 206 799 q 137 822 163 799 q 111 885 111 846 q 137 948 111 924 q 206 972 163 972 q 271 948 246 972 q 296 885 296 924 q 271 822 296 846 q 206 799 246 799 z "},"˚":{"ha":833,"x_min":133,"x_max":458,"o":"m 294 753 q 179 792 225 753 q 133 890 133 832 q 178 992 133 951 q 296 1032 224 1032 q 412 992 365 1032 q 458 894 458 953 q 413 793 458 833 q 294 753 368 753 m 296 796 q 356 822 333 796 q 379 893 379 849 q 356 960 379 933 q 296 986 332 986 q 235 960 258 986 q 213 893 213 935 q 236 824 213 851 q 296 796 260 796 z "},"˛":{"ha":833,"x_min":328,"x_max":543,"o":"m 457 -296 q 366 -267 404 -296 q 328 -186 328 -237 q 367 -87 328 -137 q 469 1 407 -37 l 518 1 q 419 -169 419 -90 q 435 -220 419 -203 q 475 -237 450 -237 q 513 -229 492 -237 q 538 -246 533 -221 q 522 -281 543 -272 q 457 -296 499 -296 z "},"˜":{"ha":833,"x_min":104,"x_max":579,"o":"m 243 979 q 360 940 290 979 q 456 900 429 900 q 526 949 504 900 q 549 965 533 965 l 558 965 q 572 942 579 965 q 439 814 540 814 q 326 854 394 814 q 228 894 258 894 q 157 844 182 894 q 135 824 144 824 l 122 824 q 108 847 104 824 q 153 942 119 906 q 243 979 188 979 z "},"˝":{"ha":833,"x_min":63,"x_max":589,"o":"m 108 769 q 75 763 88 751 q 78 796 63 774 l 235 1017 q 281 1026 256 1049 l 307 1001 q 308 953 335 975 l 108 769 m 326 763 q 329 794 315 772 l 488 1017 q 533 1025 510 1049 l 560 1000 q 560 951 589 974 l 361 768 q 326 763 340 753 z "},"̀":{"ha":0,"x_min":-676,"x_max":-325,"o":"m -371 769 l -642 889 q -660 933 -676 900 l -637 978 q -587 988 -619 1011 l -343 813 q -336 779 -325 797 q -371 769 -347 761 z "},"́":{"ha":0,"x_min":-504,"x_max":-154,"o":"m -460 771 q -496 779 -483 761 q -487 813 -504 799 l -243 988 q -193 978 -211 1011 l -171 933 q -190 889 -154 903 l -460 771 z "},"̂":{"ha":0,"x_min":-510,"x_max":-47,"o":"m -68 810 q -61 774 -47 792 q -100 771 -75 757 l -285 878 l -460 771 q -494 774 -479 758 q -490 810 -510 790 l -337 950 q -294 969 -317 969 l -269 969 q -228 950 -250 969 l -68 810 z "},"̃":{"ha":0,"x_min":-729,"x_max":-254,"o":"m -590 979 q -474 940 -543 979 q -378 900 -404 900 q -307 949 -329 900 q -285 965 -300 965 l -275 965 q -261 942 -254 965 q -394 814 -293 814 q -507 854 -439 814 q -606 894 -575 894 q -676 844 -651 894 q -699 824 -689 824 l -711 824 q -725 847 -729 824 q -680 942 -714 906 q -590 979 -646 979 z "},"̄":{"ha":0,"x_min":-622,"x_max":-208,"o":"m -597 836 q -622 857 -622 836 l -622 896 q -597 917 -622 917 l -233 917 q -208 896 -208 917 l -208 857 q -233 836 -208 836 l -597 836 z "},"̆":{"ha":0,"x_min":-649,"x_max":-212,"o":"m -432 782 q -576 831 -517 782 q -646 951 -635 881 q -626 981 -649 975 q -596 971 -603 988 q -536 895 -582 924 q -432 867 -490 867 q -326 895 -372 867 q -265 971 -279 924 q -235 980 -258 986 q -215 951 -212 974 q -285 831 -225 881 q -432 782 -344 782 z "},"̇":{"ha":0,"x_min":-300,"x_max":-115,"o":"m -206 799 q -274 822 -249 799 q -300 885 -300 846 q -274 948 -300 924 q -206 972 -249 972 q -140 948 -165 972 q -115 885 -115 924 q -140 822 -115 846 q -206 799 -165 799 z "},"̈":{"ha":0,"x_min":-662,"x_max":-226,"o":"m -576 801 q -639 824 -615 801 q -662 882 -662 846 q -639 940 -662 918 q -576 963 -615 963 q -516 940 -539 963 q -493 882 -493 918 q -516 824 -493 846 q -576 801 -539 801 m -311 801 q -374 824 -350 801 q -397 882 -397 846 q -374 940 -397 918 q -311 963 -350 963 q -251 940 -275 963 q -226 882 -226 917 q -251 824 -226 847 q -311 801 -275 801 z "},"̊":{"ha":0,"x_min":-547,"x_max":-222,"o":"m -386 753 q -501 792 -456 753 q -547 890 -547 832 q -502 992 -547 951 q -385 1032 -457 1032 q -269 992 -315 1032 q -222 894 -222 953 q -267 793 -222 833 q -386 753 -312 753 m -385 796 q -324 822 -347 796 q -301 893 -301 849 q -325 960 -301 933 q -385 986 -349 986 q -445 960 -422 986 q -468 893 -468 935 q -444 824 -468 851 q -385 796 -421 796 z "},"̋":{"ha":0,"x_min":-576,"x_max":-50,"o":"m -531 769 q -564 763 -551 751 q -561 796 -576 774 l -404 1017 q -358 1026 -383 1049 l -332 1001 q -331 953 -304 975 l -531 769 m -312 763 q -310 794 -324 772 l -151 1017 q -106 1025 -129 1049 l -79 1000 q -79 951 -50 974 l -278 768 q -312 763 -299 753 z "},"̌":{"ha":0,"x_min":-511,"x_max":-54,"o":"m -97 972 q -72 974 -85 979 q -57 958 -60 968 q -62 938 -54 947 l -225 786 q -267 768 -243 768 l -294 768 q -337 786 -318 768 l -496 938 q -494 968 -511 953 q -461 972 -478 983 l -279 851 l -97 972 z "},"̒":{"ha":0,"x_min":-276,"x_max":-100,"o":"m -239 628 q -265 632 -253 619 q -264 657 -276 644 q -189 778 -201 718 q -201 797 -183 797 q -249 819 -231 797 q -268 878 -268 842 q -245 940 -268 915 q -186 964 -222 964 q -125 938 -150 964 q -100 865 -100 911 q -239 628 -100 725 z "},"̦":{"ha":0,"x_min":-419,"x_max":-244,"o":"m -381 -412 q -407 -410 -394 -422 q -406 -385 -419 -397 q -332 -267 -344 -325 q -343 -247 -328 -247 q -391 -225 -372 -247 q -410 -168 -410 -203 q -387 -107 -410 -131 q -329 -83 -365 -83 q -269 -110 -293 -83 q -244 -181 -244 -136 q -381 -412 -244 -317 z "},"̧":{"ha":0,"x_min":-518,"x_max":-224,"o":"m -374 -78 q -267 -104 -311 -78 q -224 -179 -224 -131 q -269 -255 -224 -226 q -382 -283 -315 -283 q -496 -256 -446 -283 q -508 -218 -518 -244 q -485 -207 -500 -200 q -400 -231 -447 -231 q -342 -217 -365 -231 q -319 -175 -318 -203 q -407 -124 -321 -124 q -439 -82 -447 -124 l -424 0 l -369 0 l -374 -78 z "},"̨":{"ha":0,"x_min":-506,"x_max":-290,"o":"m -376 -296 q -467 -267 -429 -296 q -506 -186 -506 -237 q -466 -87 -506 -137 q -364 1 -426 -37 l -315 1 q -414 -169 -414 -90 q -399 -220 -414 -203 q -358 -237 -383 -237 q -321 -229 -342 -237 q -296 -246 -300 -221 q -311 -281 -290 -272 q -376 -296 -335 -296 z "},"̵":{"ha":0,"x_min":-596,"x_max":-161,"o":"m -575 376 q -596 392 -596 376 l -596 415 q -575 432 -596 432 l -182 432 q -161 415 -161 432 l -161 394 q -182 376 -161 376 l -575 376 z "},"̶":{"ha":0,"x_min":-974,"x_max":19,"o":"m -953 364 q -974 382 -974 364 l -974 400 q -953 418 -974 418 l -4 418 q 19 400 19 418 l 19 382 q -4 364 19 364 l -953 364 z "}}}
